<svg width="321" height="144" viewBox="0 0 321 144" fill="none" xmlns="http://www.w3.org/2000/svg">
<g clip-path="url(#clip0_601_678)">
<path d="M320.111 0.789551H0V143.061H320.111V0.789551Z" fill="#F7F9FC"/>
<path d="M283.458 90.1922C283.122 91.4869 283.058 92.7872 283.229 94.0343L284.308 93.8877C284.467 95.0636 284.862 96.1847 285.451 97.1905L284.515 97.7411C285.165 98.848 286.028 99.8304 287.068 100.621L287.216 100.429L287.727 99.7557C288.635 100.447 289.696 100.974 290.871 101.279L290.597 102.334C291.891 102.67 293.192 102.735 294.439 102.56L294.293 101.481C295.467 101.326 296.589 100.93 297.594 100.343L298.145 101.279C299.252 100.628 300.236 99.7614 301.025 98.7214H301.021L300.773 98.5279L300.16 98.062C300.852 97.1543 301.378 96.0965 301.682 94.922L302.737 95.1959C303.073 93.9012 303.139 92.5966 302.964 91.3489L301.885 91.4954C301.729 90.321 301.333 89.2034 300.745 88.1976L301.681 87.647C301.03 86.5401 300.164 85.5563 299.124 84.766L298.464 85.631C297.557 84.9396 296.499 84.4131 295.324 84.1087L295.598 83.0537C294.304 82.718 292.999 82.6525 291.751 82.8275L291.898 83.9059C290.723 84.0617 289.606 84.458 288.601 85.0455L288.051 84.1094C286.94 84.7589 285.96 85.6267 285.17 86.6667L285.177 86.6724L285.747 87.1063L286.035 87.3262C285.343 88.2338 284.816 89.2952 284.512 90.4661L283.457 90.1922H283.458ZM288.44 91.4847C289.107 88.9118 291.733 87.3681 294.306 88.0354C296.883 88.7041 298.427 91.3304 297.76 93.9034C297.091 96.4799 294.465 98.0243 291.888 97.3556C289.315 96.6883 287.772 94.0613 288.44 91.4847Z" fill="#AAE0FF"/>
<path d="M295.307 70.804C294.899 71.4257 294.633 72.0987 294.501 72.7851L295.095 72.9004C294.969 73.5477 294.977 74.2086 295.107 74.8424L294.515 74.9647C294.661 75.6633 294.939 76.3348 295.346 76.9359L295.458 76.8612L295.847 76.598C296.201 77.1244 296.666 77.5911 297.23 77.961L296.898 78.4675C297.52 78.8751 298.192 79.1411 298.88 79.272L298.996 78.678C299.642 78.8054 300.302 78.7975 300.937 78.6674L301.059 79.2585C301.758 79.1134 302.431 78.8331 303.032 78.4269L303.03 78.4255L302.933 78.2797L302.694 77.9254C303.22 77.5712 303.686 77.1081 304.055 76.5447L304.562 76.8769C304.97 76.2551 305.237 75.5801 305.368 74.8922L304.774 74.7769C304.901 74.131 304.892 73.4716 304.763 72.8378L305.354 72.7154C305.209 72.0169 304.928 71.3439 304.522 70.7428L304.021 71.0807C303.666 70.5543 303.203 70.0891 302.64 69.7192L302.972 69.2127C302.35 68.8051 301.676 68.5376 300.987 68.4067L300.872 69.0007C300.226 68.8734 299.567 68.8826 298.933 69.0121L298.811 68.4217C298.11 68.5654 297.44 68.8471 296.838 69.2533L296.841 69.2575L297.064 69.5876L297.176 69.7548C296.65 70.109 296.183 70.5735 295.814 71.1355L295.308 70.8033L295.307 70.804ZM297.698 72.3733C298.508 71.1384 300.167 70.7941 301.401 71.6043C302.638 72.4159 302.983 74.0741 302.173 75.309C301.361 76.5461 299.703 76.8904 298.466 76.0787C297.231 75.2685 296.886 73.6103 297.698 72.3733Z" stroke="#135BCC" stroke-width="1.90288" stroke-miterlimit="10"/>
<path d="M294.847 116.777H222.261C221.996 116.777 221.781 116.562 221.781 116.297C221.781 116.032 221.996 115.817 222.261 115.817H294.847C295.112 115.817 295.327 116.032 295.327 116.297C295.327 116.562 295.112 116.777 294.847 116.777Z" fill="#2E5B99"/>
<path d="M290.72 37.4676C290.062 33.5658 284.053 31.8045 284.171 34.3511L256.626 34.5126C254.718 34.524 253.171 36.2398 253.169 38.3482L253.112 110.791C253.111 112.975 254.684 114.761 256.629 114.777L284.748 115.018C284.922 115.385 285.249 115.718 285.764 115.996C288.988 116.065 290.535 114.473 291.1 112.672C291.284 112.189 291.384 111.655 291.38 111.092C291.267 110.148 290.925 38.3824 290.72 37.4676Z" fill="#058DD1"/>
<path d="M285.463 116.008L253.187 115.801C251.173 115.788 249.543 113.954 249.548 111.707L249.669 37.2057C249.672 35.0389 251.276 33.279 253.251 33.2726L284.901 33.1695C286.892 33.163 288.519 34.9208 288.536 37.0969L289.11 111.942C289.127 114.2 287.494 116.021 285.464 116.008L285.463 116.008Z" fill="#058DD1"/>
<path d="M285.909 115.466C285.775 115.484 285.638 115.492 285.501 115.492L253.235 115.248C251.504 115.235 250.089 113.627 250.093 111.666L250.204 37.2465C250.207 35.355 251.599 33.8114 253.297 33.8035L284.945 33.6655C284.995 33.6655 285.044 33.6662 285.094 33.6684C285.89 33.7054 286.634 34.0682 287.191 34.6892C287.759 35.3237 288.076 36.1645 288.082 37.0587L288.648 111.98C288.662 113.756 287.489 115.255 285.91 115.466H285.909Z" fill="black"/>
<path d="M286.971 37.2622L287.515 111.923L251.165 111.705L251.259 37.2622H286.971Z" fill="#AAE0FF"/>
<path d="M276.674 96.8262H261.969V97.9288H276.674V96.8262Z" fill="#80D1FF"/>
<path d="M281.616 99.2769H257.232V100.379H281.616V99.2769Z" fill="#80D1FF"/>
<path d="M280.595 101.728H258.253V102.83H280.595V101.728Z" fill="#80D1FF"/>
<path d="M266.065 80.6489V85.1853C266.065 85.6903 272.233 85.6903 272.233 85.1853V80.6489H266.065Z" fill="#058DD1"/>
<path d="M271.692 80.4292H271.068V78.9154C271.068 77.8569 270.206 76.9962 269.148 76.9962C268.091 76.9962 267.229 77.8576 267.229 78.9154V79.2206H266.605V78.9154C266.605 77.5126 267.746 76.3716 269.148 76.3716C270.551 76.3716 271.692 77.5126 271.692 78.9154V80.4292Z" fill="#058DD1"/>
<path d="M268.574 84.4959C268.51 84.4959 268.445 84.4703 268.399 84.4198L267.382 83.3307C267.292 83.2332 267.297 83.081 267.394 82.9914C267.49 82.9003 267.642 82.906 267.732 83.0027L268.586 83.9183L270.977 81.7301C271.075 81.6412 271.226 81.6476 271.316 81.7451C271.406 81.8425 271.398 81.9948 271.301 82.0844L268.736 84.4326C268.69 84.4745 268.632 84.4952 268.574 84.4952V84.4959Z" fill="#AAE0FF"/>
<path d="M269.022 68.0399C275.307 68.0399 280.402 62.9448 280.402 56.6596C280.402 50.3744 275.307 45.2793 269.022 45.2793C262.737 45.2793 257.642 50.3744 257.642 56.6596C257.642 62.9448 262.737 68.0399 269.022 68.0399Z" fill="#66C8FF"/>
<mask id="mask0_601_678" style="mask-type:luminance" maskUnits="userSpaceOnUse" x="260" y="48" width="18" height="17">
<path d="M274.842 62.4794C278.056 59.2653 278.056 54.0541 274.842 50.8399C271.628 47.6257 266.417 47.6257 263.202 50.8399C259.988 54.0541 259.988 59.2653 263.202 62.4794C266.417 65.6936 271.628 65.6936 274.842 62.4794Z" fill="white"/>
</mask>
<g mask="url(#mask0_601_678)">
<path d="M273.023 76.1892C272.004 76.1892 270.987 76.0284 270.023 75.7048C267.403 74.8241 265.29 72.8288 263.914 69.9335C261.554 64.9683 261.329 63.0853 260.957 59.9653C260.904 59.515 260.848 59.0498 260.782 58.5426C260.492 55.9084 261.087 53.5495 262.505 51.7142C263.841 49.9849 265.831 48.8617 268.108 48.5515C270.35 48.2464 272.389 48.7458 274.004 49.9949C275.652 51.2704 276.739 53.2465 277.147 55.7107L277.232 56.2712C277.778 59.8813 278.027 61.5288 279.806 65.1361C281.007 67.5697 281.284 69.8439 280.608 71.7141C280.032 73.3061 278.812 74.5268 276.98 75.3413C275.738 75.904 274.379 76.1885 273.023 76.1885L273.023 76.1892ZM269.368 49.0787C268.985 49.0787 268.592 49.1057 268.19 49.1605C263.651 49.7779 260.855 53.6065 261.391 58.4693C261.457 58.9736 261.513 59.441 261.566 59.8927C261.931 62.9501 262.152 64.7954 264.468 69.6703C266.432 73.8026 269.816 75.5739 273.055 75.5746C274.334 75.5746 275.589 75.2986 276.726 74.7829H276.728C278.402 74.0374 279.512 72.9355 280.029 71.5063C280.648 69.7977 280.379 67.6892 279.255 65.4093C277.433 61.7166 277.18 60.0393 276.623 56.3644L276.539 55.8088C275.846 51.6175 273.086 49.0801 269.367 49.0801L269.368 49.0787Z" fill="#058DD1"/>
<path d="M272.769 75.0985C271.882 75.0985 270.994 74.9562 270.149 74.6681C268.576 74.1332 266.399 72.8428 264.962 69.7377C262.627 64.6942 262.352 62.5018 261.935 59.1833C261.89 58.8276 261.844 58.4577 261.792 58.07C261.545 56.1842 262.075 54.2828 263.286 52.7163C264.49 51.1585 266.229 50.1085 268.183 49.7585C270.016 49.4306 271.787 49.7948 273.167 50.7857C274.59 51.8072 275.534 53.4355 275.824 55.3718C276.443 59.5013 276.823 61.6531 278.68 65.4205C279.713 67.5161 279.936 69.5065 279.325 71.1775C278.812 72.5789 277.71 73.6829 276.138 74.3686C275.087 74.8531 273.929 75.0985 272.768 75.0985H272.769ZM269.512 50.2529C269.115 50.2529 268.707 50.2899 268.292 50.3639C264.58 51.0283 261.938 54.4492 262.402 57.9911C262.453 58.3802 262.499 58.7508 262.544 59.1072C262.954 62.3688 263.225 64.5235 265.519 69.4802C267.777 74.3573 272.544 75.351 275.884 73.8102L275.89 73.8074C277.326 73.1814 278.288 72.2253 278.748 70.9662C279.292 69.4788 279.073 67.6058 278.129 65.6922C276.236 61.8509 275.828 59.5433 275.216 55.4636C274.951 53.693 274.096 52.2092 272.808 51.2858C271.856 50.6022 270.733 50.2529 269.511 50.2529H269.512Z" fill="#058DD1"/>
<path d="M275.212 60.5092C275.073 60.5092 274.947 60.4138 274.913 60.2723C274.588 58.8837 274.377 57.5122 274.091 55.578C273.782 53.4881 272.493 51.9651 270.643 51.5041C270.479 51.4628 270.378 51.2964 270.42 51.1321C270.461 50.9677 270.627 50.8674 270.792 50.9087C272.86 51.4244 274.358 53.1793 274.699 55.4891C274.982 57.4077 275.191 58.7671 275.512 60.1329C275.55 60.2979 275.448 60.4629 275.283 60.5021C275.259 60.5077 275.236 60.5099 275.212 60.5099V60.5092Z" fill="#058DD1"/>
<path d="M272.617 73.9303C271.835 73.9303 271.046 73.7987 270.296 73.5326C268.986 73.0688 267.179 71.9833 266.02 69.4487C265.95 69.2943 266.017 69.1122 266.171 69.0418C266.326 68.9714 266.508 69.039 266.578 69.1933C268.404 73.1833 272.32 74.0313 275.078 72.8028C276.263 72.2998 277.094 71.4761 277.487 70.4197C277.959 69.1499 277.789 67.5778 277.01 65.9922C276.315 64.5802 275.647 62.8587 275.178 61.2688C275.13 61.1059 275.223 60.9352 275.386 60.8875C275.549 60.8399 275.719 60.9323 275.767 61.0952C276.227 62.6531 276.881 64.3397 277.561 65.7219C278.416 67.4598 278.595 69.2047 278.063 70.6338C277.61 71.8524 276.663 72.7978 275.324 73.3662C274.482 73.741 273.554 73.9303 272.618 73.9303H272.617Z" fill="#058DD1"/>
<path d="M265.447 67.6668C265.326 67.6668 265.211 67.595 265.162 67.4755C263.761 64.0424 263.522 62.1161 263.192 59.4499C263.139 59.0181 263.083 58.5707 263.02 58.0912C262.792 56.3669 263.278 54.6084 264.354 53.2675C265.164 52.2567 266.691 51.0026 269.362 50.7678C269.531 50.7529 269.68 50.8781 269.695 51.0467C269.71 51.2153 269.585 51.3646 269.416 51.3796C267.473 51.5503 265.888 52.3364 264.833 53.6517C263.862 54.8631 263.423 56.4523 263.629 58.0109C263.693 58.4932 263.748 58.9413 263.802 59.3745C264.138 62.0912 264.36 63.8852 265.731 67.2428C265.795 67.4001 265.72 67.5793 265.563 67.6433C265.525 67.659 265.485 67.6661 265.447 67.6661V67.6668Z" fill="#058DD1"/>
<path d="M275.821 71.4148C275.746 71.4148 275.67 71.387 275.611 71.3316C275.487 71.2156 275.482 71.0214 275.598 70.8976C275.908 70.5669 276.139 70.1799 276.285 69.7459C276.624 68.7365 276.485 67.5158 275.893 66.3094C273.937 62.3229 273.583 59.8887 272.995 55.856C272.83 54.7178 272.27 53.7653 271.419 53.1742C270.592 52.5994 269.547 52.4095 268.477 52.6392C266.151 53.1393 264.443 55.496 264.747 57.7859C264.769 57.9538 264.651 58.1081 264.483 58.1309C264.316 58.1537 264.161 58.0356 264.138 57.867C263.968 56.5901 264.324 55.2734 265.141 54.1608C265.933 53.0803 267.103 52.3063 268.347 52.0388C269.585 51.7728 270.8 51.9969 271.769 52.6698C272.761 53.3591 273.412 54.4589 273.603 55.7671C274.181 59.74 274.531 62.1387 276.443 66.0384C277.107 67.3914 277.257 68.7771 276.866 69.9416C276.692 70.4594 276.416 70.9225 276.044 71.318C275.984 71.3821 275.902 71.4148 275.82 71.4148H275.821Z" fill="#058DD1"/>
<path d="M272.518 72.7205C270.438 72.7205 268.222 71.5738 267.087 69.0976C265.115 64.7932 264.609 61.7898 264.259 59.0824C264.237 58.9145 264.356 58.7602 264.525 58.7388C264.693 58.7175 264.847 58.8356 264.868 59.0042C265.226 61.7756 265.708 64.6132 267.645 68.8422C269.011 71.8242 272.107 72.6686 274.311 71.7624C274.468 71.6976 274.647 71.773 274.711 71.9295C274.776 72.086 274.701 72.266 274.544 72.33C273.917 72.5882 273.225 72.7205 272.518 72.7205Z" fill="#058DD1"/>
<path d="M272.402 71.5026C270.791 71.5026 269.044 70.6127 268.166 68.7183C266.351 65.0463 265.836 61.9483 265.259 57.6418C265.128 56.6644 265.398 55.6592 266.019 54.8113C266.628 53.9783 267.493 53.4035 268.454 53.1915C269.405 52.9824 270.343 53.1553 271.098 53.6774C271.864 54.2088 272.366 55.0496 272.509 56.0462L272.534 56.2212C273.093 60.1223 273.431 62.4769 275.332 66.3687C275.863 67.455 275.955 68.5711 275.59 69.5115C275.277 70.3175 274.659 70.9221 273.801 71.2607L273.794 71.2636C273.361 71.4222 272.888 71.5033 272.402 71.5033V71.5026ZM269.236 53.7194C269.023 53.7194 268.805 53.7428 268.587 53.7912C266.889 54.1647 265.644 55.8911 265.868 57.56C266.438 61.8075 266.943 64.8606 268.719 68.4494L268.722 68.4566C269.715 70.6013 271.97 71.275 273.58 70.6874C274.272 70.4128 274.77 69.9291 275.018 69.2881C275.32 68.5099 275.236 67.5681 274.781 66.6369C272.837 62.6583 272.495 60.2681 271.926 56.3073L271.901 56.1323C271.783 55.3071 271.374 54.6143 270.748 54.181C270.307 53.8752 269.786 53.7179 269.237 53.7179L269.236 53.7194Z" fill="#058DD1"/>
<path d="M272.257 70.2859C271.13 70.2859 269.875 69.6542 269.254 68.3367C267.429 64.7586 266.831 61.0702 266.539 58.6061C266.519 58.4375 266.64 58.2853 266.808 58.2653C266.975 58.2454 267.129 58.3656 267.149 58.5342C267.435 60.9521 268.021 64.5701 269.803 68.0622L269.807 68.0714C270.432 69.4038 271.893 69.8903 272.891 69.5795C273.328 69.4123 273.646 69.1071 273.81 68.696C274.009 68.1959 273.959 67.5699 273.671 66.9781C273.138 65.8826 272.422 63.9498 271.97 62.6281C271.916 62.4673 272.001 62.293 272.162 62.2383C272.323 62.1835 272.497 62.2689 272.552 62.4296C272.997 63.735 273.702 65.6386 274.223 66.7092C274.591 67.4668 274.647 68.2528 274.38 68.9222C274.153 69.492 273.698 69.9302 273.099 70.1557L273.083 70.1614C272.824 70.2432 272.544 70.2844 272.255 70.2844L272.257 70.2859Z" fill="#058DD1"/>
<path d="M271.991 61.8546C271.852 61.8546 271.727 61.7599 271.693 61.6198C271.327 60.106 271.119 58.6293 270.856 56.7598L270.807 56.4112C270.733 55.8948 270.476 55.4602 270.081 55.187C269.69 54.9167 269.203 54.8285 268.707 54.9395C267.632 55.1806 266.844 56.2775 266.987 57.3346C267.01 57.5025 266.892 57.6575 266.724 57.6796C266.557 57.7024 266.401 57.5843 266.379 57.4164C266.193 56.0335 267.177 54.6528 268.574 54.3398C269.237 54.1911 269.897 54.312 270.43 54.6812C270.968 55.0533 271.318 55.6366 271.415 56.3245L271.464 56.673C271.725 58.5261 271.932 59.9901 272.291 61.4747C272.33 61.6397 272.229 61.8055 272.064 61.8453C272.04 61.851 272.016 61.8538 271.992 61.8538L271.991 61.8546Z" fill="#058DD1"/>
<path d="M272.034 69.0777C271.36 69.0777 270.672 68.6466 270.354 67.9808C270.28 67.8278 270.346 67.6443 270.499 67.5717C270.652 67.4985 270.835 67.5639 270.908 67.7168C271.187 68.303 271.82 68.5456 272.252 68.4382C272.429 68.372 272.557 68.2496 272.626 68.0818C272.715 67.8648 272.694 67.5909 272.568 67.3306C271.714 65.565 271.135 64.0534 270.748 62.5723C270.299 60.8565 269.992 59.0418 269.814 57.8211C269.789 57.6533 269.905 57.4975 270.073 57.4726C270.242 57.4477 270.397 57.5643 270.422 57.7315C270.598 58.9366 270.901 60.727 271.343 62.4158C271.72 63.857 272.286 65.3338 273.121 67.0624C273.323 67.4793 273.35 67.9359 273.195 68.3137C273.058 68.6459 272.793 68.897 272.447 69.02L272.424 69.0272C272.297 69.0613 272.167 69.077 272.036 69.077L272.034 69.0777Z" fill="#058DD1"/>
<path d="M269.533 65.6049C269.409 65.6049 269.292 65.5295 269.245 65.4064C268.241 62.7517 267.978 60.7791 267.613 58.0496C267.576 57.7722 267.537 57.4876 267.497 57.1931C267.393 56.427 267.935 55.6609 268.705 55.4859C269.081 55.4005 269.457 55.4695 269.763 55.6808C270.068 55.8913 270.266 56.22 270.319 56.6048C270.343 56.7727 270.225 56.9278 270.058 56.9513C269.889 56.9747 269.735 56.8574 269.711 56.6895C269.681 56.4768 269.576 56.2975 269.414 56.1858C269.251 56.0734 269.047 56.0372 268.84 56.0841C268.381 56.1887 268.044 56.6582 268.106 57.1092C268.145 57.4044 268.184 57.6896 268.221 57.9671C268.581 60.6567 268.84 62.5994 269.819 65.1888C269.879 65.3474 269.799 65.5245 269.641 65.5843C269.605 65.5978 269.568 65.6042 269.533 65.6042V65.6049Z" fill="#058DD1"/>
<path d="M271.45 67.2867C271.334 67.2867 271.224 67.2206 271.172 67.1089C268.973 62.3599 268.653 57.3732 268.65 57.3235C268.64 57.1542 268.769 57.009 268.938 56.9991C269.108 56.9891 269.252 57.1179 269.263 57.2872C269.266 57.3355 269.58 62.2112 271.729 66.8514C271.8 67.005 271.733 67.1879 271.579 67.259C271.537 67.2782 271.494 67.2874 271.45 67.2874V67.2867Z" fill="#058DD1"/>
</g>
<path d="M239.282 72.1155C238.352 71.7399 237.672 70.3186 238.906 69.6826C240.141 69.0467 243.827 70.983 243.365 71.8174C242.665 73.0843 240.212 72.4911 239.283 72.1155H239.282Z" fill="#666EAE"/>
<path d="M240.955 76.0288C239.584 74.1494 240.798 70.8701 243.463 71.7123C244.999 73.2489 249.686 74.5236 250.097 75.4569L253.932 72.3675C254.104 72.1057 254.317 71.9784 254.586 72.0381C255.019 72.6798 255.532 73.0853 256.188 73.0725C256.188 73.0725 256.492 73.2738 256.266 73.7518C255.384 75.6148 252.763 78.7704 250.817 79.183C248.509 79.6724 241.995 77.273 240.954 76.0288H240.955Z" fill="#404680"/>
<path d="M256.587 73.1564C256.587 73.1564 259.227 72.6165 258.507 70.0713C258.204 69.0014 255.654 70.8537 255.654 70.8537C255.654 70.8537 255.945 69.2276 255.311 69.4687C254.943 69.6089 254.364 71.171 254.489 72.4614C254.531 72.8854 255.504 74.0669 256.587 73.1564Z" fill="#F7A58E"/>
<path d="M255.741 73.8264L258.259 73.8719C258.42 73.8747 258.554 73.7474 258.559 73.5866L258.703 68.4108C258.709 68.2458 258.578 68.1085 258.413 68.1056L255.895 68.0601C255.734 68.0573 255.6 68.1846 255.595 68.3454L255.451 73.5212C255.446 73.6862 255.576 73.8235 255.741 73.8264Z" fill="black"/>
<path d="M255.852 69.8286L257.913 72.726L255.782 72.6691L255.852 69.8286Z" fill="#AAE0FF"/>
<path d="M255.884 68.5518L258.403 68.6193L258.302 72.7367L257.913 72.726L255.853 69.8286L255.884 68.5518Z" fill="white"/>
<path d="M258.766 69.1458C258.595 69.0861 257.947 68.7958 257.967 70.4106C257.978 71.393 258.287 72.1918 258.749 71.9166C259.211 71.6413 259.182 70.0051 258.766 69.1458Z" fill="#F7A58E"/>
<path d="M243.237 85.4797C243.237 85.4797 246.535 94.3745 247.135 97.6724C247.734 100.97 245.291 113.448 245.291 113.448L242.293 114.194L241.854 99.7986L236.124 85.479H243.236L243.237 85.4797Z" fill="#092E66"/>
<path d="M232.756 85.5627C232.228 89.2454 232.834 94.2142 232.678 100.343L229.613 113.465C231.673 113.929 231.202 115.075 232.678 113.858C232.678 113.858 237.628 104.35 238.492 100.971C239.079 98.6772 239.522 85.4033 239.522 85.4033L232.756 85.5627Z" fill="#092E66"/>
<path d="M243.629 72.0592C243.629 72.0592 241.595 70.2011 236.945 70.9936C235.781 72.1403 233.273 80.8402 232.988 85.1802C235.551 86.9991 242.835 86.5261 243.237 85.4789L243.629 72.0599V72.0592Z" fill="#56BDBF"/>
<path d="M242.882 71.3696C244.78 71.916 244.866 75.6833 244.866 75.6833L244.572 86.8253C244.391 87.2969 243.966 88.2537 242.054 88.3362C242.139 83.1447 243.663 76.007 242.882 71.3696H242.882Z" fill="#666EAE"/>
<path d="M239.233 70.6953C239.233 70.6953 238.794 71.1043 238.864 71.5624C238.934 72.0213 239.801 72.8685 240.977 73.0179C242.154 73.1673 242.811 73.0079 242.961 72.2902C243.111 71.5724 242.702 71.3135 242.482 71.1833C242.263 71.0538 239.701 70.5054 239.233 70.6946V70.6953Z" fill="white"/>
<path d="M243.562 67.4249L243.196 69.8763L242.895 71.9051L242.886 71.952C242.454 73.5775 238.629 72.0836 239.353 70.769L240.857 67.1987L243.562 67.4242V67.4249Z" fill="#F7A58E"/>
<path d="M243.196 69.8765L242.895 71.9053C240.8 71.3226 240.556 68.4388 240.556 68.4388C241.411 68.1849 242.491 68.9745 243.196 69.8758V69.8765Z" fill="#E87C5D"/>
<path d="M234.508 113.473L233.657 113.212C233.11 112.102 230.701 112.24 231.015 113.591C230.069 113.731 229.579 113.261 229.579 113.261L229.258 115.816H234.357L234.508 113.473H234.508Z" fill="#058DD1"/>
<path d="M231.667 115.816C231.667 115.804 231.667 115.793 231.667 115.781C231.687 114.482 232.756 113.429 234.055 113.429C235.354 113.429 236.39 114.482 236.37 115.781C236.37 115.792 236.37 115.804 236.369 115.816H231.667Z" fill="#6BA6FF"/>
<path d="M231.919 113.868C231.901 113.868 231.883 113.863 231.868 113.853C231.824 113.824 231.811 113.767 231.84 113.723C231.861 113.69 232.374 112.922 233.521 112.986C233.573 112.989 233.613 113.033 233.61 113.085C233.607 113.137 233.563 113.177 233.511 113.174C232.471 113.115 232.002 113.819 231.998 113.826C231.98 113.854 231.949 113.869 231.919 113.869V113.868Z" fill="#0E0E0E"/>
<path d="M232.494 114.049C232.473 114.049 232.453 114.043 232.435 114.029C232.395 113.997 232.388 113.938 232.42 113.897C232.444 113.867 233.022 113.149 234.16 113.315C234.212 113.323 234.247 113.37 234.24 113.422C234.232 113.473 234.186 113.508 234.133 113.501C233.108 113.351 232.589 113.987 232.567 114.014C232.548 114.038 232.521 114.05 232.493 114.05L232.494 114.049Z" fill="#0E0E0E"/>
<path d="M247.21 113.473L246.359 113.212C245.812 112.102 243.404 112.24 243.718 113.591C242.771 113.731 242.282 113.261 242.282 113.261L241.96 115.816H247.059L247.211 113.473H247.21Z" fill="#058DD1"/>
<path d="M244.37 115.816C244.37 115.804 244.37 115.793 244.37 115.781C244.39 114.482 245.459 113.429 246.758 113.429C248.057 113.429 249.093 114.482 249.073 115.781C249.073 115.792 249.073 115.804 249.072 115.816H244.37Z" fill="#6BA6FF"/>
<path d="M244.622 113.868C244.604 113.868 244.586 113.863 244.57 113.853C244.527 113.824 244.514 113.767 244.543 113.723C244.564 113.69 245.075 112.922 246.224 112.986C246.276 112.989 246.315 113.033 246.313 113.085C246.31 113.137 246.265 113.177 246.214 113.174C245.174 113.115 244.705 113.819 244.701 113.826C244.683 113.854 244.652 113.869 244.622 113.869V113.868Z" fill="#0E0E0E"/>
<path d="M245.196 114.049C245.176 114.049 245.156 114.043 245.138 114.029C245.097 113.997 245.09 113.938 245.122 113.897C245.147 113.867 245.725 113.149 246.863 113.315C246.914 113.323 246.95 113.37 246.943 113.422C246.935 113.473 246.888 113.508 246.836 113.501C245.81 113.351 245.292 113.987 245.27 114.014C245.252 114.038 245.224 114.05 245.196 114.05V114.049Z" fill="#0E0E0E"/>
<path d="M238.855 87.861C237.307 87.7109 233.406 87.0394 232.513 86.4063C232.812 79.9009 235.123 72.3285 236.287 71.1818C236.961 70.6874 238.711 70.3538 239.4 70.5338C239.6 75.5702 238.775 84.7431 238.855 87.861H238.855Z" fill="#666EAE"/>
<path d="M246 65.5669C246.696 67.1938 246.546 69.6081 244.644 70.4361C242.743 71.2641 240.415 69.9424 239.45 67.7244C238.485 65.5071 239.245 63.038 241.147 62.2107C243.048 61.3834 245.576 62.8737 246 65.5669Z" fill="#F7A58E"/>
<path d="M244.213 67.3361C244.205 67.3325 244.2 67.3261 244.198 67.3183C244.192 67.3012 244.201 67.2827 244.218 67.277C244.222 67.2756 244.606 67.1412 244.629 66.8609C244.642 66.693 244.464 66.6624 244.249 66.6432C244.162 66.6354 244.098 66.6297 244.066 66.6048L244.056 66.5927L243.875 66.2008C243.867 66.1844 243.875 66.1652 243.89 66.1574C243.907 66.1495 243.926 66.1574 243.934 66.173L244.111 66.5557C244.135 66.5671 244.198 66.5728 244.255 66.5778C244.437 66.5941 244.713 66.619 244.693 66.8659C244.667 67.1895 244.257 67.3325 244.24 67.3389C244.23 67.3418 244.221 67.3411 244.213 67.3368L244.213 67.3361Z" fill="#723917"/>
<path d="M244.667 65.683C244.566 65.4425 244.595 65.2177 244.733 65.1594C244.872 65.1011 245.053 65.2377 245.154 65.4781L245.051 65.5215C244.974 65.3394 244.843 65.2341 244.777 65.2626C244.711 65.2903 244.693 65.4582 244.77 65.6403L244.667 65.6837V65.683Z" fill="#502910"/>
<path d="M241.665 66.5965C241.564 66.3561 241.593 66.1313 241.731 66.073C241.87 66.0147 242.051 66.1512 242.153 66.3917L242.049 66.4351C241.973 66.253 241.841 66.1477 241.775 66.1761C241.709 66.2039 241.692 66.3718 241.768 66.5539L241.665 66.5973L241.665 66.5965Z" fill="#502910"/>
<path d="M242.198 68.6602C242.069 68.5884 241.94 68.4994 241.81 68.392C241.796 68.3806 241.795 68.36 241.806 68.3458C241.817 68.3316 241.838 68.3301 241.852 68.3415C243.281 69.5281 244.75 68.3508 244.765 68.3394C244.779 68.328 244.799 68.3301 244.811 68.3437C244.822 68.3579 244.82 68.3778 244.807 68.3899C244.793 68.4013 243.535 69.4078 242.199 68.6602H242.198Z" fill="#723917"/>
<path d="M243.752 63.2868C243.954 63.7912 243.408 64.8056 242.224 63.9135C242.302 64.4727 241.6 65.3042 240.94 64.6434C240.94 65.7865 239.917 67.232 240.22 68.9884C238.438 68.0487 235.9 64.9984 238.349 62.6196C238.212 60.9002 241.238 60.361 242.682 60.398C244.618 60.1661 245.896 61.0311 246.321 61.9153C246.836 62.9874 246.096 64.0864 243.752 63.2876V63.2868Z" fill="#0E0E0E"/>
<path d="M240.352 67.7891C240.721 67.6476 240.906 67.2338 240.764 66.8647C240.623 66.4957 240.209 66.3113 239.84 66.4528C239.471 66.5943 239.287 67.0081 239.428 67.3772C239.57 67.7462 239.983 67.9306 240.352 67.7891Z" fill="#F7A58E"/>
<path d="M244.679 66.4848C244.703 66.6583 245.025 66.7565 245.398 66.7039C245.77 66.6512 246.054 66.4684 246.029 66.2948C246.004 66.1213 245.682 66.0231 245.309 66.0757C244.937 66.1284 244.654 66.3112 244.679 66.4848Z" fill="#F59176"/>
<path d="M241.315 67.3496C241.339 67.5232 241.675 67.6192 242.065 67.5644C242.456 67.5096 242.752 67.3247 242.727 67.1511C242.703 66.9776 242.367 66.8815 241.977 66.9363C241.586 66.9911 241.29 67.176 241.315 67.3496Z" fill="#F59176"/>
<path d="M252.557 76.0395C252.557 76.0395 252.709 74.2021 254.08 73.9012C254.417 73.8535 254.739 74.4803 254.739 74.4803C254.739 74.4803 257.082 72.8768 257.25 73.1842C257.516 73.6672 255.829 74.8992 255.829 74.8992C255.829 74.8992 256.784 76.2956 256.073 76.7495C255.362 77.2033 254.351 77.771 253.92 77.862C253.489 77.9531 252.432 76.992 252.557 76.0395H252.557Z" fill="#F7A58E"/>
<path d="M237.655 72.6099L245.697 77.2273L252.475 76.0813C253.193 76.2684 254.274 77.7793 253.917 78.0788C253.917 78.0788 248.659 82.0183 245.201 81.0238C241.742 80.0293 235.272 77.6171 235.272 77.6171L237.655 72.6106V72.6099Z" fill="#666EAE"/>
<path d="M246.373 81.1745C245.791 81.1745 245.214 81.104 244.723 80.9162C240.225 79.6927 236.318 78.0374 236.279 78.021C236.232 78.0004 236.21 77.9456 236.23 77.8979C236.25 77.8503 236.305 77.8282 236.353 77.8481C236.392 77.8645 240.289 79.5163 244.777 80.7363L244.786 80.7391C246.475 81.3879 249.204 80.5968 249.522 80.4268C249.568 80.4026 249.625 80.4197 249.649 80.4652C249.674 80.5108 249.657 80.5677 249.611 80.5926C249.376 80.7185 247.857 81.1745 246.374 81.1752L246.373 81.1745Z" fill="#3B4166"/>
<path d="M245.676 77.3255L245.646 77.3063C243.686 76.0287 238.063 73.1178 238.006 73.0886C237.96 73.0652 237.942 73.0083 237.965 72.962C237.989 72.9158 238.046 72.898 238.092 72.9215C238.148 72.9506 243.724 75.8366 245.718 77.1291C247.283 76.893 248.924 76.612 248.94 76.6091C248.991 76.6006 249.04 76.6348 249.049 76.686C249.058 76.7372 249.023 76.7856 248.972 76.7948C248.956 76.7976 247.288 77.0836 245.711 77.3205L245.676 77.3262V77.3255Z" fill="#3B4166"/>
<path d="M85.2938 37.3084C84.6351 33.4066 78.6263 31.6453 78.7444 34.1919L51.1992 34.3534C49.2913 34.3648 47.7441 36.0806 47.7427 38.1891L47.6858 110.632C47.6844 112.816 49.2579 114.602 51.202 114.618L79.3213 114.859C79.4956 115.226 79.8228 115.559 80.3371 115.837C83.5617 115.906 85.1082 114.314 85.6737 112.513C85.8579 112.03 85.9575 111.496 85.9533 110.932C85.8409 109.989 85.498 38.2232 85.2938 37.3084Z" fill="#058DD1"/>
<path d="M80.0369 115.849L47.7605 115.641C45.7466 115.628 44.1169 113.794 44.1212 111.547L44.2421 37.046C44.2457 34.8792 45.8491 33.1193 47.8245 33.1129L79.4742 33.0098C81.4653 33.0034 83.0929 34.7611 83.1099 36.9372L83.6833 111.783C83.7004 114.041 82.0678 115.862 80.0376 115.848L80.0369 115.849Z" fill="#058DD1"/>
<path d="M80.4822 115.306C80.3485 115.324 80.2112 115.333 80.0746 115.332L47.8081 115.088C46.0774 115.075 44.6625 113.467 44.6661 111.506L44.7778 37.0868C44.7806 35.1953 46.1727 33.6517 47.8707 33.6439L79.5183 33.5059C79.5681 33.5059 79.6179 33.5066 79.667 33.5087C80.4637 33.5457 81.2078 33.9085 81.7641 34.5295C82.3325 35.164 82.649 36.0049 82.6554 36.899L83.2217 111.821C83.2352 113.596 82.0621 115.095 80.4836 115.306H80.4822Z" fill="black"/>
<path d="M81.5443 37.2764L82.0892 111.937L45.7396 111.719L45.832 37.2764H81.5443Z" fill="#AAE0FF"/>
<path d="M63.9531 48.4696C63.9489 48.4653 63.9439 48.4603 63.9403 48.4561C62.1612 50.3618 59.3222 51.9239 56.2847 52.589C56.284 52.7918 56.279 53.9157 56.2555 59.0972C56.225 66.0088 62.8022 69.3863 63.8237 69.9042C60.8239 57.7599 63.1735 50.4144 63.9538 48.4696H63.9531Z" fill="#F5F9FF"/>
<path d="M63.9532 48.4695C63.1735 50.415 60.8232 57.7598 63.823 69.9041C64.8125 69.4488 71.4729 66.0763 71.5042 59.1647C71.5277 53.9839 71.5327 52.8592 71.5334 52.6565C68.5087 51.9658 65.7159 50.3844 63.9532 48.4688V48.4695Z" fill="#E3EEFF"/>
<path d="M63.8208 70.0472L63.7653 70.0187C61.7742 69.0079 60.3764 67.8128 59.5541 66.9883C57.2671 64.6949 56.114 62.0394 56.1268 59.0958L56.1559 52.4845L56.257 52.4624C59.2212 51.8129 62.0588 50.2821 63.8464 48.3671L63.941 48.2661L64.0485 48.3814C65.8233 50.3098 68.6324 51.8613 71.5625 52.5307L71.6628 52.5535V52.6566C71.6614 52.8309 71.6578 53.6874 71.6422 57.2221L71.6337 59.1648C71.6016 66.2606 64.668 69.6566 63.8777 70.0201L63.8215 70.0465L63.8208 70.0472ZM56.4128 52.6922L56.3843 59.0972C56.3566 65.2483 61.5331 68.586 63.8265 69.7605C64.8267 69.2896 71.3456 65.9554 71.3762 59.1641L71.3847 57.2214C71.3982 54.1334 71.4032 53.0898 71.4046 52.759C68.5058 52.0769 65.7322 50.5467 63.9396 48.6438C62.1342 50.5268 59.3379 52.0313 56.4128 52.6922Z" fill="white"/>
<path d="M63.8336 68.6709L63.7163 68.6098C63.0006 68.2377 61.6021 67.4154 60.2712 66.0908C58.2289 64.0585 57.1995 61.7103 57.2109 59.1117L57.2365 53.3896L57.4286 53.3398C59.8863 52.7059 62.1285 51.5415 63.7426 50.0611L63.919 49.8989L64.1061 50.0753C65.7052 51.5642 67.9318 52.7436 70.376 53.3974L70.5681 53.4486L70.5425 59.1708C70.5311 61.7693 69.4804 64.1083 67.4203 66.1229C66.1178 67.3962 64.7499 68.1965 64.0499 68.5607L64.0321 68.5699C64.0051 68.5842 63.9773 68.5984 63.9524 68.6112L63.8344 68.6709H63.8336ZM57.7494 53.7872L57.7259 59.1131C57.7153 61.5687 58.6934 63.7939 60.6347 65.7252C61.8482 66.9331 63.1194 67.7071 63.8365 68.0905C64.518 67.7341 65.8198 66.9658 67.0604 65.7537C69.0187 63.8394 70.0168 61.6235 70.0274 59.1679L70.0516 53.842C67.6828 53.1797 65.5189 52.0351 63.9155 50.5975C62.2992 52.0202 60.1261 53.1449 57.7501 53.7872H57.7494Z" fill="#058DD1"/>
<path d="M60.8488 58.1587V62.695C60.8488 63.2001 67.0169 63.2001 67.0169 62.695V58.1587H60.8488ZM64.2448 60.5681V61.8542C64.2448 62.0256 64.1053 62.1679 63.9339 62.1679C63.7625 62.1679 63.6202 62.0256 63.6202 61.8542V60.5652C63.3563 60.4464 63.1706 60.1789 63.1706 59.8716C63.1706 59.4505 63.5128 59.1112 63.9339 59.1112C64.355 59.1112 64.6944 59.4505 64.6944 59.8716C64.6944 60.1825 64.5115 60.4493 64.2448 60.5681Z" fill="#058DD1"/>
<path d="M66.4763 57.8353H65.8518V57.5301C65.8518 56.4716 64.9903 55.6109 63.9325 55.6109C62.8747 55.6109 62.0133 56.4724 62.0133 57.5301V57.8353H61.3887V57.5301C61.3887 56.1273 62.5297 54.9863 63.9325 54.9863C65.3353 54.9863 66.4763 56.1273 66.4763 57.5301V57.8353Z" fill="#058DD1"/>
<path d="M72.5542 73.501H54.7254V77.025H72.5542V73.501Z" fill="white"/>
<path d="M58.2893 76.1546C58.7144 76.1546 59.059 75.81 59.059 75.3849C59.059 74.9598 58.7144 74.6152 58.2893 74.6152C57.8642 74.6152 57.5196 74.9598 57.5196 75.3849C57.5196 75.81 57.8642 76.1546 58.2893 76.1546Z" fill="#058DD1"/>
<path d="M60.9284 76.1546C61.3535 76.1546 61.6981 75.81 61.6981 75.3849C61.6981 74.9598 61.3535 74.6152 60.9284 74.6152C60.5033 74.6152 60.1587 74.9598 60.1587 75.3849C60.1587 75.81 60.5033 76.1546 60.9284 76.1546Z" fill="#058DD1"/>
<path d="M63.5669 76.1546C63.992 76.1546 64.3366 75.81 64.3366 75.3849C64.3366 74.9598 63.992 74.6152 63.5669 74.6152C63.1418 74.6152 62.7972 74.9598 62.7972 75.3849C62.7972 75.81 63.1418 76.1546 63.5669 76.1546Z" fill="#058DD1"/>
<path d="M66.2053 76.1546C66.6304 76.1546 66.975 75.81 66.975 75.3849C66.975 74.9598 66.6304 74.6152 66.2053 74.6152C65.7802 74.6152 65.4356 74.9598 65.4356 75.3849C65.4356 75.81 65.7802 76.1546 66.2053 76.1546Z" fill="#058DD1"/>
<path d="M68.8444 76.1546C69.2695 76.1546 69.6141 75.81 69.6141 75.3849C69.6141 74.9598 69.2695 74.6152 68.8444 74.6152C68.4193 74.6152 68.0747 74.9598 68.0747 75.3849C68.0747 75.81 68.4193 76.1546 68.8444 76.1546Z" fill="#058DD1"/>
<path d="M65.9535 81.9787H61.1817C60.5052 81.9787 59.9567 81.4303 59.9567 80.7538C59.9567 80.0773 60.5052 79.5288 61.1817 79.5288H65.9535C66.63 79.5288 67.1784 80.0773 67.1784 80.7538C67.1784 81.4303 66.63 81.9787 65.9535 81.9787Z" fill="#058DD1"/>
<path d="M71.2474 86.2148H56.5429V87.3174H71.2474V86.2148Z" fill="#80D1FF"/>
<path d="M76.1899 88.6665H51.8053V89.7691H76.1899V88.6665Z" fill="#80D1FF"/>
<path d="M75.1684 91.1167H52.8261V92.2193H75.1684V91.1167Z" fill="#80D1FF"/>
<path d="M34.764 87.1193C32.9991 88.9055 31.4583 90.664 29.9773 93.9334C29.5668 92.8685 29.6679 93.1025 28.6784 90.7607C28.2231 89.6603 25.2809 90.2827 25.2069 91.2509C25.2069 91.2509 24.6784 97.9952 27.7934 100.651C30.9085 103.308 39.6895 92.2169 39.6895 92.2169C42.4943 88.3848 37.7823 84.7234 34.7647 87.1186L34.764 87.1193Z" fill="#007382"/>
<path d="M57.3681 110.915C54.0575 117.375 29.9069 115.075 25.7504 111.559C22.6788 107.05 33.8065 104.846 34.0534 104.839C39.523 104.69 47.0591 105.176 49.8363 105.176C56.294 106.168 58.0951 108.455 57.3681 110.915V110.915Z" fill="#092E66"/>
<path d="M34.0022 108.204C38.4944 109.269 42.4801 109.618 47.3792 108.867C47.3792 108.867 39.8751 112.184 39.8346 112.307C39.794 112.429 34.0022 108.204 34.0022 108.204Z" fill="#051733"/>
<path d="M56.7919 111.664C51.9547 117.02 31.3104 116.506 35.2812 111.635C38.8849 111.185 48.787 108.777 49.6599 108.305C52.7023 105.838 58.7595 108.766 56.7919 111.664Z" fill="#092E66"/>
<path d="M53.6947 115.492C53.455 114.414 52.2129 113.727 50.8855 113.295C50.2403 114.05 49.3611 115.539 49.3049 117.762C52.2499 118.424 54.1059 117.343 53.6947 115.492Z" fill="#73CCFF"/>
<path d="M47.1488 112.813C47.1488 112.813 45.9146 112.603 45.5532 114.078C45.4308 114.579 45.0716 115.583 46.2759 116.366C47.4774 117.028 48.3083 117.539 49.3049 117.763C49.3611 115.539 50.2396 114.05 50.8855 113.295C49.1612 112.733 47.1488 112.814 47.1488 112.814V112.813Z" fill="#AAE0FF"/>
<path d="M46.7618 112.984C49.1178 113.549 47.9071 116.453 46.6942 116.281C48.0159 116.468 23.3005 116.471 25.7113 108.996H25.7206C26.6418 107.422 29.5221 106.061 31.8546 107.088C37.2574 109.955 42.3564 111.945 46.7618 112.984Z" fill="#092E66"/>
<path d="M47.6446 116.12C47.6446 116.12 45.5425 115.956 46.2717 114.267C47.0001 112.577 48.479 113.568 48.479 113.568C48.479 113.568 49.2679 115.292 47.6446 116.12Z" fill="#AAE0FF"/>
<path d="M47.7456 116.265C47.6944 116.265 47.6517 116.225 47.6496 116.173C47.5962 114.63 48.5445 113.628 48.585 113.587C48.622 113.549 48.6825 113.548 48.7209 113.584C48.7593 113.621 48.76 113.682 48.7237 113.72C48.7145 113.73 47.7918 114.707 47.8416 116.166C47.8438 116.22 47.8018 116.264 47.7492 116.266C47.7477 116.266 47.747 116.266 47.7456 116.266V116.265Z" fill="white"/>
<path d="M48.3396 116.492C48.2884 116.492 48.2457 116.451 48.2436 116.399C48.1902 114.856 49.1385 113.855 49.179 113.814C49.216 113.775 49.2765 113.775 49.3149 113.811C49.3533 113.848 49.354 113.908 49.3177 113.947C49.3085 113.957 48.3858 114.934 48.4356 116.393C48.4378 116.446 48.3958 116.49 48.3432 116.493C48.3417 116.493 48.341 116.493 48.3396 116.493V116.492Z" fill="white"/>
<path d="M48.9691 116.65C48.9179 116.65 48.8752 116.609 48.8731 116.557C48.8198 115.014 49.768 114.013 49.8085 113.971C49.8455 113.932 49.906 113.932 49.9444 113.968C49.9828 114.005 49.9835 114.065 49.9473 114.104C49.938 114.114 49.0154 115.091 49.0652 116.55C49.0673 116.604 49.0253 116.648 48.9727 116.65C48.9713 116.65 48.9706 116.65 48.9691 116.65Z" fill="white"/>
<path d="M47.0116 116.185C46.508 116.464 33.7711 117.057 26.681 112.49C24.3734 111.004 25.5877 108.871 25.5877 108.871C25.5877 108.871 27.2394 115.054 47.0116 116.185Z" fill="#051733"/>
<path d="M45.5887 112.925C45.5752 112.925 45.5617 112.923 45.5475 112.92C36.3667 110.2 32.1377 107.384 32.0957 107.356C32.0296 107.311 32.0125 107.222 32.0573 107.156C32.1014 107.09 32.191 107.073 32.2572 107.118C32.2985 107.145 36.4969 109.939 45.6293 112.644C45.7054 112.667 45.7488 112.747 45.7267 112.824C45.7083 112.886 45.6506 112.927 45.5887 112.927V112.925Z" fill="#051733"/>
<path d="M39.7741 110.87C39.7058 110.87 39.6447 110.821 39.6326 110.751C39.6183 110.673 39.671 110.598 39.7492 110.584C39.8076 110.573 45.5959 109.532 47.8367 108.571C47.9099 108.54 47.9946 108.574 48.0259 108.647C48.0572 108.72 48.023 108.805 47.9505 108.836C45.6791 109.81 40.0388 110.824 39.7997 110.867C39.7912 110.868 39.7827 110.869 39.7741 110.869V110.87Z" fill="#051733"/>
<path d="M50.1805 105.169C50.3819 106.714 39.3885 107.082 33.766 104.844C32.9252 101.357 30.0221 85.4903 38.6928 85.5387C48.0543 85.5906 49.2914 100.961 50.1805 105.169Z" fill="white"/>
<path d="M25.5356 91.1875L25.4061 89.2235L27.4712 88.9126L28.2515 90.6789C28.3397 91.201 25.6238 91.7104 25.5363 91.1882L25.5356 91.1875Z" fill="#F7A594"/>
<path d="M27.5658 89.2182L28.0659 86.0349C28.0659 86.0349 27.3382 85.83 27.2699 86.6943C27.2016 87.5586 25.7917 88.1042 26.1559 88.9457C26.5194 89.7873 27.5658 89.2189 27.5658 89.2189V89.2182Z" fill="#F7A594"/>
<path d="M25.4737 89.3091C25.4737 89.3091 23.9251 86.9439 23.7913 85.603C23.7771 85.1114 23.9962 84.9663 23.9962 84.9663L27.521 88.4228C27.521 88.4228 27.7486 89.1278 27.4755 89.4237C27.2023 89.7196 26.1794 90.1514 25.4744 89.3099L25.4737 89.3091Z" fill="#F7A594"/>
<path d="M27.6519 88.4706C27.6519 88.4706 27.6875 89.0305 27.3666 88.9152C26.4248 88.6392 26.3693 87.2563 26.3693 87.2563L27.6519 88.4706Z" fill="#CC7767"/>
<path d="M29.034 89.1678L22.4782 83.0779C22.4782 83.0779 22.2505 83.0601 22.1033 83.1611L29.0177 89.5021C29.0653 89.3499 29.0347 89.1678 29.0347 89.1678H29.034Z" fill="#404040"/>
<path d="M22.1033 83.1602C22.0037 83.2292 21.9404 83.3508 22.0137 83.577C22.1965 84.1347 27.9841 89.4671 28.5695 89.6662C28.8555 89.7637 28.9715 89.6463 29.017 89.5012L22.1026 83.1602H22.1033Z" fill="black"/>
<path d="M23.8041 85.2724C23.8041 85.2724 23.871 84.7246 24.8577 85.3969C26.0563 86.2128 26.8615 87.6682 26.5912 88.0417C26.2469 88.5176 23.5431 86.3643 23.8041 85.2731V85.2724Z" fill="#F7A594"/>
<path d="M36.9159 85.801C30.6979 87.1647 32.3739 102.016 32.81 105.234C33.9858 105.702 37.7831 106.627 39.2776 106.881C36.2885 99.8091 34.7193 86.4754 36.9166 85.8003L36.9159 85.801Z" fill="#007382"/>
<path d="M40.5644 86.013C39.8737 89.382 36.1682 89.2959 36.1199 87.4044C36.1099 87.356 36.1099 87.2984 36.1099 87.2507L35.8126 83.1611L35.7741 82.6625L36.1007 82.5949L39.0471 82.0094L39.1531 81.9902L39.2392 82.2492L39.6133 83.3148L40.5637 86.0123L40.5644 86.013Z" fill="#F7A594"/>
<path d="M40.4783 85.7566C39.3067 88.5102 40.8554 102.888 41.9281 107.179C44.8283 108.159 49.2038 106.726 50.3726 105.255C49.5432 101.331 48.2165 87.6225 40.4783 85.7559V85.7566Z" fill="#007382"/>
<path d="M40.1867 90.7576C39.735 93.2331 40.5957 97.5276 41.2651 99.7591C43.0421 101.067 45.8029 100.391 45.8029 98.3826C45.879 96.5686 45.7203 94.5335 45.2836 92.2372C44.8539 87.0642 40.4093 87.1119 40.1867 90.7576Z" fill="#007382"/>
<path d="M37.4644 94.0915C35.634 93.4313 34.6915 96.0598 36.0239 96.9717C39.1922 99.1094 44.1134 101.985 44.9884 100.153C46.2688 97.474 41.6343 95.4132 37.4644 94.0915Z" fill="#007382"/>
<path d="M35.777 96.1585L34.4219 95.4422C33.5704 94.782 35.0699 93.4248 35.6781 93.6431L36.7316 94.3047C37.2652 94.8105 36.5068 96.1023 35.7763 96.1585H35.777Z" fill="#F7A594"/>
<path d="M34.552 95.4716C33.443 95.2355 33.8265 94.1158 34.0761 92.8361C33.1834 88.9983 38.0661 95.5734 34.552 95.4716Z" fill="#F7A594"/>
<path d="M35.0393 92.3444C35.0393 92.3444 34.6772 91.7803 33.8805 90.5205C33.5213 90.5881 33.3292 91.2191 33.8122 91.7711C34.2362 92.2562 34.8501 92.5849 35.0393 92.3444Z" fill="#F7A594"/>
<path d="M33.9495 92.0089C33.1485 91.5551 32.578 92.8761 32.7886 93.9068C33.1101 95.4846 34.2846 94.7057 34.6353 94.2846C35.2769 93.5142 34.9305 92.5645 33.9495 92.0089Z" fill="#F7A594"/>
<path d="M40.2891 95.1922C40.2429 95.1922 40.2023 95.1587 40.1945 95.1118C40.1888 95.0769 39.6212 91.5785 40.3226 89.2146C40.3375 89.1641 40.3909 89.135 40.4421 89.1499C40.4926 89.1648 40.5217 89.2182 40.5068 89.2694C39.8175 91.5906 40.3781 95.0464 40.3837 95.0812C40.3923 95.1338 40.3567 95.1829 40.3048 95.1915C40.2998 95.1922 40.2941 95.1929 40.2891 95.1929V95.1922Z" fill="#003331"/>
<path d="M43.6268 100.595C42.0455 100.595 40.171 99.6007 40.0615 99.5417C40.0145 99.5168 39.9975 99.4585 40.0224 99.4115C40.0473 99.3646 40.1056 99.3475 40.1526 99.3724C40.1888 99.3916 43.7961 101.304 45.1157 99.8575C46.2731 98.5885 45.4109 93.0904 45.4024 93.0356C45.3938 92.983 45.4294 92.9339 45.482 92.9261C45.5347 92.9175 45.5838 92.9531 45.5923 93.0057C45.6293 93.2355 46.4772 98.6504 45.258 99.9877C44.8511 100.434 44.2628 100.595 43.6268 100.595Z" fill="#003331"/>
<path d="M42.3443 96.024C42.3314 96.024 42.3179 96.0212 42.3051 96.0155C39.9932 94.9883 37.0994 94.0571 37.0702 94.0479C37.0197 94.0315 36.992 93.9774 37.0084 93.9269C37.0247 93.8764 37.0788 93.8487 37.1293 93.865C37.1585 93.8743 40.0622 94.8083 42.3834 95.8398C42.4317 95.8611 42.4538 95.918 42.4325 95.9664C42.4168 96.002 42.3812 96.0233 42.345 96.0233L42.3443 96.024Z" fill="white"/>
<path d="M36.1092 87.316C36.0231 86.4126 35.5266 83.0102 36.1007 82.5962L39.0471 82.0107C39.7229 85.724 37.2054 87.5785 36.1085 87.316H36.1092Z" fill="#D97661"/>
<path d="M40.1447 81.3478C40.0018 84.3846 37.2979 86.7406 35.2862 86.6296C33.2745 86.5179 30.8025 83.9514 30.9455 80.9146C31.0885 77.8778 33.2638 75.5132 35.804 75.6328C38.3443 75.7523 40.2877 78.311 40.1447 81.3478Z" fill="#F7A594"/>
<path d="M37.4103 76.0619C34.8672 73.9747 33.1464 75.4309 31.5579 77.0037C30.4432 78.1077 29.6522 78.9023 28.4301 78.9379C30.3792 82.1333 35.2307 80.7817 37.0446 78.0444C36.9834 79.7225 38.7704 81.3387 40.1454 81.3472C40.812 79.5539 39.9925 75.6607 37.411 76.0619H37.4103Z" fill="#0E0E0E"/>
<path d="M39.9447 82.4842C40.5033 82.3317 40.8326 81.7552 40.6801 81.1965C40.5275 80.6379 39.951 80.3086 39.3924 80.4612C38.8337 80.6137 38.5045 81.1902 38.657 81.7488C38.8095 82.3075 39.386 82.6367 39.9447 82.4842Z" fill="#F7A594"/>
<path d="M34.0449 84.4218C33.9666 84.4218 33.8941 84.4047 33.8336 84.362C33.5704 84.1763 33.8286 82.6185 33.914 82.1454C33.9204 82.112 33.9524 82.0899 33.9858 82.0956C34.0193 82.102 34.042 82.134 34.0356 82.1675C33.867 83.1001 33.7689 84.165 33.9047 84.2603C34.0826 84.3855 34.5016 84.1628 34.6481 84.0668C34.6766 84.0483 34.715 84.0561 34.7342 84.0846C34.7534 84.113 34.7448 84.1514 34.7164 84.1707C34.6687 84.202 34.3244 84.4218 34.0442 84.4218H34.0449Z" fill="#BD4A31"/>
<path d="M35.9022 81.7907C35.9556 82.0333 36.0964 82.2082 36.2166 82.1819C36.3368 82.1556 36.3909 81.9372 36.3376 81.6946C36.2842 81.4521 36.1434 81.2771 36.0231 81.3034C35.9029 81.3297 35.8489 81.5481 35.9022 81.7907Z" fill="#0E0E0E"/>
<path d="M32.0552 82.739C32.105 82.9652 32.2366 83.1288 32.349 83.104C32.4614 83.0791 32.5119 82.8756 32.4614 82.6487C32.4116 82.4225 32.28 82.2589 32.1676 82.2838C32.0552 82.3087 32.0047 82.5121 32.0552 82.739Z" fill="#0E0E0E"/>
<path d="M35.8325 85.0454C35.7343 85.0454 35.6703 85.0376 35.6625 85.0362C35.6283 85.0319 35.6049 85.0006 35.6091 84.9665C35.6134 84.9323 35.6447 84.9089 35.6789 84.9131C35.6853 84.9138 36.3141 84.9921 36.763 84.6122C37.0504 84.3689 37.2047 83.9912 37.2225 83.4883C37.2239 83.4541 37.251 83.425 37.2865 83.4285C37.3207 83.4299 37.3477 83.4584 37.3463 83.4925C37.3271 84.0325 37.1578 84.4408 36.8419 84.7075C36.4962 84.9999 36.0665 85.0447 35.8325 85.0447V85.0454Z" fill="#803221"/>
<path d="M35.4526 81.1633C35.4526 81.1633 35.4505 81.1633 35.4498 81.1633C35.4156 81.1619 35.3893 81.1327 35.3907 81.0985C35.4021 80.8503 35.57 80.6475 35.8289 80.5707C36.0921 80.4918 36.3568 80.5707 36.5019 80.772C36.5218 80.7998 36.5161 80.8389 36.4877 80.8588C36.4599 80.8787 36.4208 80.873 36.4009 80.8446C36.2871 80.6867 36.0758 80.6255 35.8638 80.6895C35.7016 80.7379 35.5252 80.8723 35.5145 81.1042C35.5131 81.1377 35.4854 81.1633 35.4526 81.1633Z" fill="#803221"/>
<path d="M31.7628 82.0473C31.7628 82.0473 31.7593 82.0473 31.7571 82.0473C31.723 82.0444 31.6974 82.0138 31.701 81.9797C31.7337 81.6069 31.9549 81.4483 32.1505 81.4241C32.3881 81.3942 32.6143 81.5472 32.7011 81.7947C32.7125 81.8275 32.6954 81.8623 32.6627 81.8737C32.63 81.8851 32.5951 81.868 32.5837 81.8353C32.5162 81.6432 32.3454 81.5244 32.1655 81.5472C32.0182 81.5657 31.851 81.6916 31.8247 81.9911C31.8219 82.0231 31.7949 82.048 31.7628 82.048V82.0473Z" fill="#803221"/>
<path d="M23.8404 67.5229H10.5309C9.80605 67.5229 9.21844 68.1106 9.21844 68.8354V74.1201C9.21844 74.8449 9.80605 75.4325 10.5309 75.4325H23.8404C24.5652 75.4325 25.1529 74.8449 25.1529 74.1201V68.8354C25.1529 68.1106 24.5652 67.5229 23.8404 67.5229Z" fill="#AAE0FF"/>
<path d="M22.523 74.1542V77.7231L18.8858 74.0859L22.523 74.1542Z" fill="#AAE0FF"/>
<path d="M12.7574 72.0422C13.0285 71.7711 13.0285 71.3315 12.7574 71.0603C12.4862 70.7892 12.0466 70.7892 11.7755 71.0603C11.5044 71.3315 11.5044 71.7711 11.7755 72.0422C12.0466 72.3133 12.4862 72.3133 12.7574 72.0422Z" fill="white"/>
<path d="M15.2703 71.7147C15.358 71.3414 15.1266 70.9677 14.7533 70.8799C14.3801 70.7922 14.0063 71.0236 13.9186 71.3969C13.8308 71.7702 14.0623 72.1439 14.4355 72.2316C14.8088 72.3194 15.1825 72.088 15.2703 71.7147Z" fill="white"/>
<path d="M17.5986 71.7147C17.6864 71.3414 17.4549 70.9677 17.0817 70.8799C16.7084 70.7922 16.3347 71.0236 16.2469 71.3969C16.1592 71.7702 16.3906 72.1439 16.7639 72.2316C17.1371 72.3194 17.5109 72.088 17.5986 71.7147Z" fill="white"/>
<path d="M19.9367 71.6656C19.9982 71.2871 19.7412 70.9305 19.3627 70.869C18.9842 70.8076 18.6275 71.0646 18.5661 71.4431C18.5047 71.8216 18.7617 72.1782 19.1402 72.2397C19.5187 72.3011 19.8753 72.0441 19.9367 71.6656Z" fill="white"/>
<path d="M22.0708 72.0417C22.342 71.7706 22.342 71.331 22.0708 71.0598C21.7997 70.7887 21.3601 70.7887 21.089 71.0598C20.8178 71.331 20.8178 71.7706 21.089 72.0417C21.3601 72.3129 21.7997 72.3129 22.0708 72.0417Z" fill="white"/>
<path d="M38.4866 55.1123H30.0428C29.1839 55.1123 28.4877 55.8085 28.4877 56.6673V62.9287C28.4877 63.7875 29.1839 64.4837 30.0428 64.4837H38.4866C39.3454 64.4837 40.0416 63.7875 40.0416 62.9287V56.6673C40.0416 55.8085 39.3454 55.1123 38.4866 55.1123Z" fill="#AAE0FF"/>
<path d="M32.667 64.1919L33.9908 66.5152L35.4491 64.1919H32.667Z" fill="#AAE0FF"/>
<path d="M34.0149 59.5789L31.7087 57.8403H36.3098L34.0149 59.5789Z" fill="#058DD1"/>
<path d="M36.5026 58.2881V61.305H31.5152V58.2881L34.0149 60.1625L36.5026 58.2881Z" fill="#058DD1"/>
<path d="M106.579 116.777H21.4033C21.138 116.777 20.9232 116.562 20.9232 116.297C20.9232 116.032 21.138 115.817 21.4033 115.817H106.579C106.844 115.817 107.059 116.032 107.059 116.297C107.059 116.562 106.844 116.777 106.579 116.777Z" fill="#2E5B99"/>
<path d="M113.418 66.2508C113.082 67.5455 113.018 68.8458 113.189 70.0928L114.267 69.9463C114.427 71.1222 114.822 72.2433 115.411 73.2491L114.474 73.7997C115.125 74.9066 115.987 75.889 117.028 76.6793L117.175 76.4872L117.687 75.8143C118.595 76.5057 119.656 77.0328 120.83 77.338L120.557 78.393C121.851 78.7287 123.152 78.7935 124.399 78.6185L124.253 77.5401C125.427 77.3843 126.549 76.9887 127.554 76.4012L128.105 77.3373C129.212 76.6864 130.195 75.82 130.985 74.78H130.981L130.733 74.5865L130.12 74.1206C130.811 73.2129 131.338 72.1551 131.642 70.9806L132.697 71.2545C133.033 69.9598 133.098 68.6552 132.923 67.4075L131.845 67.554C131.689 66.3796 131.293 65.262 130.705 64.2562L131.641 63.7056C130.99 62.5987 130.124 61.6149 129.084 60.8246L128.424 61.6896C127.516 60.9981 126.459 60.4717 125.284 60.1673L125.558 59.1123C124.263 58.7766 122.959 58.7111 121.711 58.8861L121.858 59.9645C120.683 60.1203 119.566 60.5166 118.56 61.1041L118.01 60.168C116.899 60.8175 115.919 61.6853 115.129 62.7253L115.136 62.731L115.706 63.1649L115.994 63.3847C115.302 64.2924 114.775 65.3538 114.472 66.5247L113.417 66.2508H113.418ZM118.4 67.5433C119.067 64.9704 121.693 63.4267 124.266 64.094C126.843 64.7626 128.387 67.389 127.72 69.962C127.051 72.5385 124.425 74.0828 121.848 73.4142C119.275 72.7469 117.732 70.1206 118.4 67.5433Z" fill="#AAE0FF"/>
<path d="M125.266 46.8636C124.859 47.4853 124.593 48.1583 124.46 48.8447L125.054 48.96C124.929 49.6073 124.937 50.2681 125.067 50.902L124.475 51.0243C124.621 51.7229 124.899 52.3944 125.306 52.9955L125.418 52.9208L125.807 52.6576C126.161 53.184 126.626 53.6506 127.19 54.0206L126.858 54.527C127.479 54.9346 128.152 55.2007 128.84 55.3316L128.956 54.7376C129.601 54.8649 130.262 54.8571 130.897 54.7269L131.019 55.3181C131.718 55.1729 132.391 54.8927 132.992 54.4865L132.99 54.4851L132.893 54.3392L132.654 53.985C133.18 53.6307 133.646 53.1676 134.015 52.6042L134.522 52.9364C134.93 52.3147 135.197 51.6396 135.328 50.9518L134.734 50.8365C134.861 50.1906 134.852 49.5312 134.723 48.8974L135.314 48.775C135.169 48.0764 134.888 47.4035 134.482 46.8024L133.981 47.1403C133.626 46.6139 133.163 46.1487 132.6 45.7788L132.932 45.2723C132.31 44.8647 131.636 44.5972 130.947 44.4663L130.832 45.0603C130.186 44.933 129.527 44.9422 128.893 45.0717L128.771 44.4812C128.07 44.6249 127.4 44.9066 126.798 45.3128L126.801 45.3171L127.024 45.6472L127.136 45.8143C126.609 46.1686 126.143 46.6331 125.774 47.1951L125.268 46.8629L125.266 46.8636ZM127.658 48.4328C128.468 47.1979 130.126 46.8536 131.361 47.6639C132.598 48.4755 132.943 50.1337 132.132 51.3686C131.321 52.6057 129.663 52.95 128.426 52.1383C127.191 51.3281 126.846 49.6699 127.658 48.4328Z" stroke="#135BCC" stroke-width="1.90288" stroke-miterlimit="10"/>
<path d="M205.275 116.777H124.194C123.929 116.777 123.714 116.562 123.714 116.297C123.714 116.032 123.929 115.817 124.194 115.817H205.276C205.541 115.817 205.756 116.032 205.756 116.297C205.756 116.562 205.541 116.777 205.276 116.777H205.275Z" fill="#2E5B99"/>
<path d="M130.72 37.3084C131.379 33.4066 137.388 31.6453 137.27 34.1919L164.815 34.3534C166.723 34.3648 168.27 36.0806 168.272 38.1891L168.328 110.632C168.33 112.816 166.756 114.602 164.812 114.618L136.693 114.859C136.519 115.226 136.191 115.559 135.677 115.837C132.453 115.906 130.906 114.314 130.341 112.513C130.156 112.03 130.057 111.496 130.061 110.932C130.173 109.989 130.516 38.2232 130.72 37.3084Z" fill="#058DD1"/>
<path d="M135.977 115.849L168.254 115.641C170.268 115.628 171.897 113.794 171.893 111.547L171.772 37.046C171.769 34.8792 170.165 33.1193 168.19 33.1129L136.54 33.0098C134.549 33.0034 132.921 34.7611 132.904 36.9372L132.331 111.783C132.314 114.041 133.946 115.862 135.977 115.848L135.977 115.849Z" fill="#058DD1"/>
<path d="M135.532 115.306C135.666 115.324 135.803 115.333 135.94 115.332L168.206 115.088C169.937 115.075 171.352 113.467 171.348 111.506L171.236 37.0868C171.234 35.1953 169.842 33.6517 168.144 33.6439L136.496 33.5059C136.446 33.5059 136.396 33.5066 136.347 33.5087C135.551 33.5457 134.806 33.9085 134.25 34.5295C133.682 35.164 133.365 36.0049 133.359 36.899L132.793 111.821C132.779 113.596 133.952 115.095 135.531 115.306H135.532Z" fill="black"/>
<path d="M134.47 37.103L133.925 111.764L170.275 111.546L170.182 37.103H134.47Z" fill="#AAE0FF"/>
<path d="M159.471 96.667H144.767V97.7696H159.471V96.667Z" fill="#80D1FF"/>
<path d="M139.824 100.221H164.209V99.1181H139.824V100.221Z" fill="#80D1FF"/>
<path d="M140.845 102.67H163.188V101.568H140.845V102.67Z" fill="#80D1FF"/>
<path d="M163.742 46.2202H141.445C139.797 46.2202 138.461 47.5563 138.461 49.2044V72.2089C138.461 73.857 139.797 75.1931 141.445 75.1931H163.742C165.39 75.1931 166.727 73.857 166.727 72.2089V49.2044C166.727 47.5563 165.39 46.2202 163.742 46.2202Z" fill="#66C8FF"/>
<path d="M148.084 79.3288C149.434 75.3928 146.905 68.6712 143.937 70.35C140.899 72.0381 139.063 76.3524 139.279 79.3288H148.084Z" fill="#FFA599"/>
<path d="M157.559 79.3288C156.209 75.3928 158.738 68.6712 161.706 70.35C164.744 72.0381 166.581 76.3524 166.364 79.3288H157.559Z" fill="#FFA599"/>
<path d="M162.234 70.9909C162.659 66.7804 163.401 49.6694 152.924 49.6694C142.447 49.6694 143.321 66.678 143.677 70.6637L162.234 70.9909H162.234Z" fill="#0E0E0E"/>
<path d="M143.432 70.7552C147.145 67.9873 158.993 67.9197 162.47 70.9237L162.517 79.3526H143.386L143.432 70.7544V70.7552Z" fill="#008C86"/>
<path d="M149.779 68.7861C149.779 68.7861 145.421 71.4238 148.015 73.8631C150.166 75.8855 153.307 72.8736 153.307 72.8736L149.779 68.7861Z" fill="white"/>
<path d="M155.838 68.7437C155.838 68.7437 160.197 71.3814 157.603 73.8206C155.451 75.843 152.311 72.8311 152.311 72.8311L155.838 68.7437Z" fill="white"/>
<path d="M156.273 71.4469C156.273 73.8655 149.373 73.8655 149.373 71.4469L149.739 67.723L149.978 65.3008H155.679L156.068 69.3221L156.273 71.4469Z" fill="#FFA599"/>
<path d="M156.068 69.3221L149.739 67.723L149.979 65.3008H155.679L156.068 69.3221Z" fill="#E87C5D"/>
<path d="M159.995 58.7123C160.208 63.7707 157.1 67.8717 153.051 67.8717C149.003 67.8717 145.894 63.7714 146.108 58.7123C146.309 53.9469 149.413 50.2812 153.051 50.2812C156.69 50.2812 159.794 53.9469 159.995 58.7123Z" fill="#FFA599"/>
<path d="M145.291 58.1491H160.712C160.712 58.1491 159.933 49.6704 152.923 49.6704C145.914 49.6704 145.29 58.1491 145.29 58.1491H145.291Z" fill="#0E0E0E"/>
<path d="M152.686 62.3712C152.506 62.3712 152.332 62.3328 152.23 62.2105C151.98 61.9096 152.6 60.3979 152.728 60.0984C152.743 60.0607 152.787 60.043 152.824 60.0593C152.862 60.075 152.88 60.1184 152.864 60.1561C152.563 60.8674 152.203 61.9458 152.344 62.1158C152.51 62.3143 153.061 62.1877 153.258 62.1223C153.297 62.1094 153.339 62.1301 153.352 62.1692C153.364 62.2076 153.344 62.2496 153.305 62.2624C153.254 62.2787 152.965 62.3712 152.686 62.3712Z" fill="#BD4A31"/>
<path d="M150.912 63.8113C150.912 63.8113 152.997 64.6343 155.934 63.3994C154.205 65.5121 152.065 66.7471 150.912 63.8113Z" fill="#BD4A31"/>
<path d="M149.002 59.9019C149.002 60.2739 149.152 60.5763 149.337 60.5763C149.522 60.5763 149.671 60.2747 149.671 59.9019C149.671 59.5292 149.522 59.2275 149.337 59.2275C149.152 59.2275 149.002 59.5292 149.002 59.9019Z" fill="#0E0E0E"/>
<path d="M149.97 59.079C149.949 59.079 149.928 59.0697 149.914 59.0526C149.371 58.406 148.694 58.9474 148.665 58.9708C148.634 58.9965 148.587 58.9922 148.561 58.9602C148.536 58.9289 148.54 58.8819 148.572 58.8563C148.58 58.8499 149.392 58.1997 150.027 58.958C150.054 58.9893 150.049 59.0356 150.018 59.0619C150.005 59.0733 149.988 59.079 149.97 59.079Z" fill="#BD4A31"/>
<path d="M156.553 60.5763C156.737 60.5763 156.887 60.2743 156.887 59.9019C156.887 59.5295 156.737 59.2275 156.553 59.2275C156.368 59.2275 156.218 59.5295 156.218 59.9019C156.218 60.2743 156.368 60.5763 156.553 60.5763Z" fill="#0E0E0E"/>
<path d="M157.187 59.079C157.166 59.079 157.145 59.0697 157.13 59.0526C156.587 58.406 155.91 58.9474 155.882 58.9708C155.851 58.9965 155.804 58.9922 155.778 58.9602C155.752 58.9289 155.757 58.8819 155.789 58.8563C155.796 58.8499 156.609 58.1997 157.244 58.958C157.27 58.9893 157.266 59.0356 157.235 59.0619C157.221 59.0733 157.204 59.079 157.187 59.079Z" fill="#BD4A31"/>
<path d="M149.319 62.392C149.814 62.392 150.216 62.1808 150.216 61.9204C150.216 61.6599 149.814 61.4487 149.319 61.4487C148.823 61.4487 148.422 61.6599 148.422 61.9204C148.422 62.1808 148.823 62.392 149.319 62.392Z" fill="#FF8F80"/>
<path d="M156.361 62.392C156.856 62.392 157.258 62.1808 157.258 61.9204C157.258 61.6599 156.856 61.4487 156.361 61.4487C155.865 61.4487 155.464 61.6599 155.464 61.9204C155.464 62.1808 155.865 62.392 156.361 62.392Z" fill="#FF8F80"/>
<path d="M146.978 69.8157H145.031C143.585 69.8157 142.409 68.6392 142.409 67.1937V65.1763H143.135V67.1937C143.135 68.2387 143.985 69.0894 145.031 69.0894H146.978V69.8157Z" fill="white"/>
<path d="M160.359 69.8156H158.457V69.0893H160.359C161.404 69.0893 162.255 68.2393 162.255 67.1936V65.1064H162.981V67.1936C162.981 68.6398 161.805 69.8156 160.359 69.8156Z" fill="white"/>
<path d="M162.981 54.7375H162.255V52.9307C162.255 51.8857 161.405 51.0349 160.359 51.0349H158.527V50.3086H160.359C161.805 50.3086 162.981 51.4852 162.981 52.9307V54.7375Z" fill="white"/>
<path d="M143.136 55.088H142.409V52.9311C142.409 51.485 143.586 50.3091 145.031 50.3091H146.908V51.0354H145.031C143.987 51.0354 143.136 51.8854 143.136 52.9311V55.088Z" fill="white"/>
<path d="M149.724 87.457V91.9934C149.724 92.4984 155.892 92.4984 155.892 91.9934V87.457H149.724Z" fill="#058DD1"/>
<path d="M155.353 87.2373H154.728V85.7235C154.728 84.665 153.867 83.8043 152.809 83.8043C151.751 83.8043 150.89 84.6657 150.89 85.7235V86.0287H150.265V85.7235C150.265 84.3207 151.406 83.1797 152.809 83.1797C154.212 83.1797 155.353 84.3207 155.353 85.7235V87.2373Z" fill="#058DD1"/>
<path d="M152.233 91.3045C152.169 91.3045 152.105 91.2789 152.058 91.2284L151.042 90.1393C150.951 90.0418 150.956 89.8896 151.053 89.8C151.15 89.7089 151.301 89.7146 151.392 89.8113L152.246 90.7269L154.636 88.5387C154.734 88.4498 154.886 88.4562 154.976 88.5537C155.065 88.6511 155.058 88.8033 154.961 88.893L152.395 91.2412C152.349 91.2831 152.292 91.3038 152.233 91.3038V91.3045Z" fill="#AAE0FF"/>
<path d="M199.399 58.2324L185.37 58.2545L188.348 66.3817L199.399 58.2324Z" fill="#AAE0FF"/>
<path d="M185.078 58.1913C185.078 58.1913 179.892 59.0328 180.604 69.6342C181.541 70.5412 191.102 69.5986 191.102 69.5986C189.499 67.9561 188.971 64.5437 188.871 60.4292C188.871 60.4292 188.66 57.8015 185.078 58.1913Z" fill="#0E0E0E"/>
<path d="M189.97 68.1047L195.598 66.5831L200.916 61.7793L201.949 62.66C201.949 62.66 197.849 67.8443 196.818 68.7698C195.903 69.5914 190.512 71.8934 190.512 71.8934L189.971 68.1047H189.97Z" fill="#FFA599"/>
<path d="M182.911 72.5494C183.15 73.844 185.479 79.5996 185.479 79.5996C185.479 81.006 192.291 81.006 192.291 79.5996C192.373 77.4506 192.565 73.4215 192.536 71.0398C192.217 70.0809 191.34 68.6454 189.827 67.7249C186.972 67.1011 181.671 67.8338 182.911 72.5494Z" fill="#008C86"/>
<path d="M183.336 88.2466H189.399C189.248 89.4808 188.605 90.8217 188.329 91.9243C185.861 98.6879 184.656 107.743 182.051 113.708C182.051 113.708 180.929 114.289 180.185 113.708C180.693 109.219 180.658 106.435 182.12 98.9988C182.63 96.8355 182.425 91.6661 183.335 88.2466H183.336Z" fill="#FFA599"/>
<path d="M193.533 88.2466C194.319 95.7464 195.765 111.947 195.924 113.619L193.997 113.629C192.734 109.336 191.122 105.484 190.979 100.039C189.996 97.0425 188.36 92.0033 187.133 88.2466H193.533Z" fill="#FFA599"/>
<path d="M183.17 89.7424L187.748 90.1194L188.859 90.2112L193.773 90.6188C193.986 92.7002 194.224 95.1729 194.457 97.7146C192.978 98.3271 190.913 99.2134 190.736 99.2924L188.33 91.9234C187.625 94.219 186.764 97.2202 186.113 99.5634C184.875 98.9829 183.551 98.4893 182.258 98.2133C182.498 95.4994 182.796 92.3801 183.171 89.7417L183.17 89.7424Z" fill="#E87C5D"/>
<path d="M189.118 67.5185C189.118 67.5185 191.034 68.8288 190.319 69.8091C189.702 70.6535 188.182 69.691 188.182 69.691C188.182 69.691 187.926 70.9963 186.904 70.822C185.484 70.5795 185.186 68.4874 185.781 67.8045C186.376 67.1216 188.424 67.1657 189.118 67.5178V67.5185Z" fill="white"/>
<path d="M185.957 68.2436C186.005 68.8113 186.879 69.5575 187.994 69.3953C188.702 69.2921 189.062 68.7842 188.895 68.2066L188.707 67.4639L188.18 65.3477L185.577 65.6543L185.957 68.2436Z" fill="#FFA599"/>
<path d="M185.605 65.2727C186.041 66.1263 186.812 66.7431 188.523 66.6954L187.996 64.5791L185.58 64.87L185.605 65.2727Z" fill="#E87C5D"/>
<path d="M179.371 96.9309C181.172 97.5832 183.44 97.9353 185.707 98.0805C190.231 98.3394 195.426 97.5903 195.891 96.7723C194.966 88.3135 192.281 79.6001 192.281 79.6001H185.479C184.279 80.5419 183.191 82.188 182.487 83.9486C182.011 85.3358 180.106 91.4129 179.371 96.9316V96.9309Z" fill="#008C86"/>
<path d="M199.406 115.569C199.406 115.545 198.261 115.544 197.037 115.549C195.628 115.554 193.873 115.569 193.873 115.569C193.839 115.025 193.817 114.462 193.997 113.629L196.205 113.617C196.205 113.617 196.817 113.72 197.889 114.048C197.96 114.069 198.036 114.085 198.113 114.103C199.828 114.501 199.406 115.619 199.406 115.569Z" fill="#058DD1"/>
<path d="M199.406 115.57C199.406 115.545 198.261 115.545 197.037 115.55C196.998 115.438 196.979 115.319 196.979 115.197C196.979 114.666 197.36 114.214 197.89 114.047C197.961 114.067 198.036 114.084 198.114 114.103C199.829 114.501 199.407 115.619 199.407 115.569L199.406 115.57Z" fill="#80B3FF"/>
<path d="M199.519 115.224H193.797V115.571H199.519V115.224Z" fill="#80B3FF"/>
<path d="M182.177 115.648C182.144 115.649 181.583 115.642 180.888 115.635C179.756 115.625 178.268 115.616 178.128 115.648C177.734 114.695 178.552 114.206 179.305 113.937C179.626 113.823 179.936 113.749 180.134 113.696L182.052 113.707C182.232 114.54 182.211 115.103 182.177 115.648V115.648Z" fill="#058DD1"/>
<path d="M178.016 115.649H182.253V115.302H178.016V115.649Z" fill="#80B3FF"/>
<path d="M180.887 115.635C179.756 115.625 178.268 115.616 178.128 115.648C177.734 114.695 178.551 114.206 179.305 113.937C179.741 113.891 180.251 113.963 180.651 114.381C181.075 114.824 181.039 115.28 180.887 115.635L180.887 115.635Z" fill="#80B3FF"/>
<path d="M188.818 80.4474C187.792 80.4474 186.622 80.2717 185.42 79.7439C185.342 79.7098 185.306 79.618 185.341 79.539C185.375 79.4608 185.467 79.4245 185.545 79.4594C189.003 80.976 192.182 79.4771 192.213 79.4615C192.29 79.4238 192.383 79.4565 192.421 79.5333C192.458 79.6102 192.426 79.7034 192.349 79.7403C192.327 79.751 190.857 80.446 188.818 80.446L188.818 80.4474Z" fill="white"/>
<path d="M189.085 65.741C187.172 66.7305 185.015 65.9765 184.251 64.3275C182.847 62.4524 182.405 60.1725 183.988 58.9283C185.834 57.4871 188.614 58.1558 189.114 60.9827C189.311 61.1997 189.622 61.7083 189.811 62.3677C189.858 62.5093 189.895 62.6694 189.905 62.8294C190.065 63.715 189.933 64.7799 189.085 65.741Z" fill="#FFA599"/>
<path d="M183.084 63.1216C183.084 63.1216 187.709 61.3425 189.708 61.0224C189.188 59.4361 187.126 56.9549 184.161 58.5732C181.649 59.8935 183.084 63.1216 183.084 63.1216Z" fill="#0E0E0E"/>
<path d="M185.18 60.5761C184.727 62.5031 184.869 65.8124 187.862 69.5747L186.64 69.7711C186.64 69.7711 185.254 69.5221 183.099 64.6408C181.829 61.3294 183.861 60.0988 185.18 60.5754L185.18 60.5761Z" fill="#0E0E0E"/>
<path d="M185.307 71.0457C185.094 72.3325 183.077 76.7579 183.077 76.7579L184.611 84.6198L183.388 85.1028C183.388 85.1028 180.359 78.5961 180.38 76.7181C180.408 74.3364 182.432 70.0007 182.432 70.0007C183.478 68.1242 185.693 68.7139 185.306 71.0464L185.307 71.0457Z" fill="#FFA599"/>
<path d="M183.295 84.6411C183.295 84.6411 182.482 87.2482 183.317 87.7725C184.15 88.2968 184.655 85.4812 184.655 85.4812C184.655 85.4812 185.013 85.9479 185.177 85.8611C185.341 85.7743 184.855 84.7258 184.52 84.4199C184.185 84.114 183.522 83.9824 183.295 84.6411Z" fill="#FFA599"/>
<path d="M200.152 61.6313C200.152 61.6313 200.532 61.2451 200.708 61.8333C201.325 62.0539 201.886 61.3404 202.132 61.9884C202.52 63.0106 200.526 63.414 200.152 61.6313Z" fill="#FFA599"/>
<path d="M201.977 61.0492C201.977 61.0492 201.486 59.8278 200.603 59.3199C200.269 59.1584 200.101 59.2637 200.101 59.2637L201.392 62.7643C202.017 63.2039 202.543 62.2507 201.977 61.0492Z" fill="#FFA599"/>
<path d="M201.437 64.0395L199.268 57.633C199.268 57.633 199.327 57.4701 199.442 57.4004L201.672 64.132C201.552 64.1177 201.436 64.0402 201.436 64.0402L201.437 64.0395Z" fill="#404040"/>
<path d="M199.443 57.3993C199.521 57.3516 199.625 57.346 199.758 57.4669C200.086 57.7657 201.969 63.4081 201.925 63.8734C201.904 64.1003 201.786 64.1444 201.673 64.1309L199.443 57.3993Z" fill="black"/>
<path d="M200.372 59.2266C200.372 59.2266 199.973 59.1028 200.131 59.9913C200.323 61.0704 200.934 61.6587 201.275 61.5876C201.64 61.5115 201.161 59.376 200.372 59.2259V59.2266Z" fill="#FFA599"/>
<path d="M188.812 62.9675C188.797 62.9675 188.784 62.9575 188.78 62.9433C188.775 62.9255 188.786 62.907 188.803 62.9021C188.894 62.8765 189.132 62.7854 189.144 62.6694C189.153 62.5699 188.748 62.2576 188.456 62.0669C188.441 62.057 188.436 62.0363 188.446 62.0207C188.456 62.005 188.477 62.0008 188.493 62.0107C188.616 62.0911 189.227 62.5001 189.21 62.6758C189.191 62.8572 188.859 62.9547 188.821 62.9654C188.818 62.9661 188.816 62.9668 188.812 62.9668V62.9675Z" fill="#BD4A31"/>
<path d="M189.254 63.9141C189.254 63.9141 188.462 64.4348 187.14 64.1773C188.038 64.9021 189.03 65.2287 189.254 63.9141Z" fill="#BD4A31"/>
<path d="M187.062 62.3628C187.104 62.4908 187.086 62.611 187.023 62.6317C186.959 62.6523 186.874 62.5655 186.832 62.4375C186.79 62.3094 186.808 62.1892 186.872 62.1686C186.935 62.1479 187.021 62.2347 187.062 62.3628Z" fill="#0E0E0E"/>
<path d="M189.252 61.6434C189.288 61.7543 189.272 61.8589 189.217 61.8774C189.162 61.8952 189.088 61.8198 189.052 61.7088C189.015 61.5978 189.031 61.4933 189.086 61.4748C189.141 61.457 189.215 61.5324 189.252 61.6434Z" fill="#0E0E0E"/>
<path d="M186.77 63.4794C186.797 63.6067 187.014 63.6686 187.256 63.6174C187.498 63.5669 187.672 63.4225 187.646 63.2952C187.619 63.1678 187.402 63.1059 187.16 63.1572C186.918 63.2077 186.744 63.3521 186.77 63.4794Z" fill="#FF8F80"/>
<path d="M189.905 62.8293H189.895C189.651 62.8763 189.434 62.8201 189.405 62.6878C189.377 62.5654 189.556 62.4239 189.792 62.3677H189.811C189.858 62.5092 189.895 62.6693 189.905 62.8293Z" fill="#FF8F80"/>
</g>
<defs>
<clipPath id="clip0_601_678">
<rect width="320.111" height="142.271" fill="white" transform="translate(0 0.789551)"/>
</clipPath>
</defs>
</svg>
