<svg width="360" height="306" viewBox="0 0 360 306" fill="none" xmlns="http://www.w3.org/2000/svg">
<g clip-path="url(#clip0_119_1388)">
<path d="M386 268.913H-25V269.118H386V268.913Z" fill="#EBEBEB"/>
<path d="M344.818 282.127H273.386V282.332H344.818V282.127Z" fill="#EBEBEB"/>
<path d="M276.14 274.506H268.997V274.711H276.14V274.506Z" fill="#EBEBEB"/>
<path d="M221.033 281.313H205.259V281.519H221.033V281.313Z" fill="#EBEBEB"/>
<path d="M35.8773 275.885H18.1221V276.091H35.8773V275.885Z" fill="#EBEBEB"/>
<path d="M66.1516 275.885H43.1931V276.091H66.1516V275.885Z" fill="#EBEBEB"/>
<path d="M184.207 279.244H145.705V279.449H184.207V279.244Z" fill="#EBEBEB"/>
<path d="M169.822 232.286H11.094C8.50471 232.286 6.40039 230.184 6.40039 227.597V4.68925C6.40039 2.10236 8.50471 0 11.094 0H169.822C172.412 0 174.516 2.10236 174.516 4.68925V227.597C174.516 230.184 172.412 232.286 169.822 232.286ZM11.094 0.205308C8.61979 0.205308 6.60589 2.21733 6.60589 4.68925V227.597C6.60589 230.069 8.61979 232.081 11.094 232.081H169.822C172.296 232.081 174.31 230.069 174.31 227.597V4.68925C174.31 2.21733 172.296 0.205308 169.822 0.205308H11.094Z" fill="#EBEBEB"/>
<path d="M347.621 232.286H188.893C186.303 232.286 184.199 230.184 184.199 227.597V4.68925C184.199 2.10236 186.303 0 188.893 0H347.621C350.21 0 352.314 2.10236 352.314 4.68925V227.597C352.314 230.184 350.21 232.286 347.621 232.286ZM188.893 0.205308C186.418 0.205308 184.404 2.21733 184.404 4.68925V227.597C184.404 230.069 186.418 232.081 188.893 232.081H347.621C350.095 232.081 352.109 230.069 352.109 227.597V4.68925C352.109 2.21733 350.095 0.205308 347.621 0.205308H188.893Z" fill="#EBEBEB"/>
<path d="M180.87 151.148H155.437V268.913H180.87V151.148Z" fill="#E6E6E6"/>
<path d="M176.045 268.913H180.87V255.182H170.973L176.045 268.913Z" fill="#F0F0F0"/>
<path d="M53.0407 151.148H27.608V268.913H53.0407V151.148Z" fill="#E6E6E6"/>
<path d="M180.878 151.148H48.8239V260.487H180.878V151.148Z" fill="#F0F0F0"/>
<path d="M177.122 154.893H52.564V181.928H177.122V154.893Z" fill="#E6E6E6"/>
<path d="M177.122 185.032H116.466V243.332H177.122V185.032Z" fill="#E6E6E6"/>
<path d="M113.228 185.032H52.564V243.332H113.219V185.032H113.228Z" fill="#E6E6E6"/>
<path d="M99.6564 195.322C99.6564 197.695 101.58 199.609 103.947 199.609C106.315 199.609 108.238 197.687 108.238 195.322C108.238 192.957 106.315 191.035 103.947 191.035C101.58 191.035 99.6564 192.957 99.6564 195.322Z" fill="#FAFAFA"/>
<path d="M121.448 195.322C121.448 197.695 123.371 199.609 125.738 199.609C128.106 199.609 130.029 197.687 130.029 195.322C130.029 192.957 128.106 191.035 125.738 191.035C123.371 191.035 121.448 192.957 121.448 195.322Z" fill="#FAFAFA"/>
<path d="M53.649 268.913H48.8239V255.182H58.7125L53.649 268.913Z" fill="#F0F0F0"/>
<path d="M151.977 168.607C151.977 170.981 153.9 172.894 156.267 172.894C158.635 172.894 160.558 170.972 160.558 168.607C160.558 166.242 158.635 164.32 156.267 164.32C153.9 164.32 151.977 166.242 151.977 168.607Z" fill="#FAFAFA"/>
<path d="M70.2616 168.607C70.2616 170.981 72.1851 172.894 74.5524 172.894C76.9198 172.894 78.8433 170.972 78.8433 168.607C78.8433 166.242 76.9198 164.32 74.5524 164.32C72.1851 164.32 70.2616 166.242 70.2616 168.607Z" fill="#FAFAFA"/>
<path d="M331.896 21.0645H194.211V135.372H331.896V21.0645Z" fill="#EBEBEB"/>
<path d="M335.093 21.0645H195.707V135.372H335.093V21.0645Z" fill="#F5F5F5"/>
<path d="M343.585 135.372H194.211V139.158H343.585V135.372Z" fill="#EBEBEB"/>
<path d="M339.795 135.372H209.919V139.158H339.795V135.372Z" fill="#F5F5F5"/>
<path d="M330.614 130.683V25.7373L200.187 25.7373V130.683H330.614Z" fill="#FAFAFA"/>
<path d="M227.995 130.691L266.251 25.7456H284.31L246.054 130.691H227.995Z" fill="white"/>
<path d="M249.934 130.691L288.19 25.7456H295.235L256.971 130.691H249.934Z" fill="white"/>
<path d="M272.58 130.691L310.836 25.7456H317.881L279.625 130.691H272.58Z" fill="white"/>
<path d="M330.614 130.691V25.7456H330.046V130.691H330.614Z" fill="#EBEBEB"/>
<path opacity="0.5" d="M336.154 31.1658H198.477L198.066 27.5605H335.743L336.154 31.1658Z" fill="#EBEBEB"/>
<path opacity="0.5" d="M336.154 35.6658H198.477L198.066 32.0605H335.743L336.154 35.6658Z" fill="#EBEBEB"/>
<path opacity="0.5" d="M336.154 40.158H198.477L198.066 36.5527H335.743L336.154 40.158Z" fill="#EBEBEB"/>
<path opacity="0.5" d="M336.154 44.6501H198.477L198.066 41.0449H335.743L336.154 44.6501Z" fill="#EBEBEB"/>
<path opacity="0.5" d="M336.154 49.1423H198.477L198.066 45.5371H335.743L336.154 49.1423Z" fill="#EBEBEB"/>
<path opacity="0.5" d="M336.154 53.6428H198.477L198.066 50.0376H335.743L336.154 53.6428Z" fill="#EBEBEB"/>
<path opacity="0.5" d="M336.154 58.135H198.477L198.066 54.5298H335.743L336.154 58.135Z" fill="#EBEBEB"/>
<path opacity="0.5" d="M336.154 62.6272H198.477L198.066 59.022H335.743L336.154 62.6272Z" fill="#EBEBEB"/>
<path opacity="0.5" d="M336.154 67.1194H198.477L198.066 63.5142H335.743L336.154 67.1194Z" fill="#EBEBEB"/>
<path opacity="0.5" d="M336.154 71.6199H198.477L198.066 68.0146H335.743L336.154 71.6199Z" fill="#EBEBEB"/>
<path opacity="0.5" d="M336.154 76.1116H198.477L198.066 72.5063H335.743L336.154 76.1116Z" fill="#EBEBEB"/>
<path opacity="0.5" d="M336.154 80.6038H198.477L198.066 76.9985H335.743L336.154 80.6038Z" fill="#EBEBEB"/>
<path opacity="0.5" d="M336.154 85.1042H198.477L198.066 81.499H335.743L336.154 85.1042Z" fill="#EBEBEB"/>
<path opacity="0.5" d="M336.154 89.5964H198.477L198.066 85.9912H335.743L336.154 89.5964Z" fill="#EBEBEB"/>
<path d="M230.256 176.886H307.737V164.313H230.256V176.886Z" fill="#EBEBEB"/>
<path d="M230.264 268.913L238.147 176.894H248.775L233.42 268.913H230.264Z" fill="#E0E0E0"/>
<path d="M307.737 268.913L299.854 176.894H289.226L304.581 268.913H307.737Z" fill="#E0E0E0"/>
<path d="M278.754 268.913L272.219 176.894H261.59L275.589 268.913H278.754Z" fill="#E0E0E0"/>
<path d="M61.7292 131.627C66.3981 131.299 69.6861 127.225 69.0696 122.536L63.5869 81.1129C62.9622 76.4237 58.6713 72.8924 54.0024 73.2209C49.3334 73.5494 46.0454 77.6227 46.6701 82.3119L52.1529 123.735C52.7776 128.424 57.0684 131.956 61.7374 131.627H61.7292Z" fill="#F5F5F5"/>
<path d="M66.5297 128.564C69.8177 129.385 72.7933 127.48 73.1632 124.31L76.4595 96.2892C76.8294 93.1192 74.4702 89.8754 71.174 89.0541C67.886 88.2329 64.9104 90.1382 64.5405 93.3081L61.2442 121.329C60.8743 124.499 63.2335 127.742 66.5297 128.564Z" fill="#F0F0F0"/>
<path d="M60.6277 132.834C57.5863 133.655 54.0353 131.75 52.6954 128.58L40.8422 100.56C39.5023 97.3897 40.8751 94.1459 43.9165 93.3246C46.9579 92.5034 50.5089 94.4087 51.8488 97.5786L63.702 125.599C65.0419 128.769 63.6691 132.013 60.6277 132.834Z" fill="#E6E6E6"/>
<path d="M49.7691 151.148H75.5799L80.964 120.45H44.385L49.7691 151.148Z" fill="#E6E6E6"/>
<path d="M42.4286 124.827H82.9286V116.065H42.4286V124.827Z" fill="#E0E0E0"/>
<path d="M180.5 306C268.522 306 339.878 301.838 339.878 296.704C339.878 291.569 268.522 287.407 180.5 287.407C92.4782 287.407 21.1224 291.569 21.1224 296.704C21.1224 301.838 92.4782 306 180.5 306Z" fill="#F5F5F5"/>
<path d="M234.16 289.945L227.576 289.838L227.987 274.555L234.571 274.654L234.16 289.945Z" fill="#FF8B7B"/>
<path d="M227.494 289.083L234.686 289.198C234.958 289.198 235.171 289.395 235.196 289.658L235.821 295.538C235.886 296.145 235.36 296.712 234.736 296.696C232.146 296.613 228.414 296.4 225.151 296.351C221.337 296.293 221.707 296.449 217.235 296.375C214.531 296.334 214.095 293.583 215.254 293.353C220.54 292.302 221.066 292.253 225.842 289.575C226.359 289.288 226.918 289.075 227.486 289.083H227.494Z" fill="#263238"/>
<path d="M225.874 93.3168C224.97 95.6655 223.984 97.7761 222.964 99.9688C221.929 102.137 220.844 104.28 219.66 106.383C217.301 110.604 214.703 114.735 211.424 118.644L211.087 119.054C210.898 119.26 210.733 119.457 210.519 119.662C210.1 120.064 209.623 120.467 209.032 120.828C208.464 121.189 207.749 121.493 207.026 121.69C206.294 121.871 205.513 121.953 204.815 121.904C203.376 121.822 202.275 121.362 201.395 120.894C200.516 120.418 199.825 119.892 199.225 119.375C198.033 118.332 197.137 117.264 196.34 116.188C195.543 115.121 194.844 114.053 194.203 112.969C191.663 108.641 189.838 104.264 188.309 99.6485L192.838 97.6365C194.022 99.5253 195.247 101.488 196.529 103.336C197.795 105.2 199.085 107.031 200.442 108.707C201.116 109.544 201.798 110.349 202.497 111.064C203.187 111.778 203.902 112.41 204.511 112.829C204.815 113.035 205.094 113.174 205.25 113.223C205.407 113.273 205.431 113.207 205.16 113.158C204.905 113.1 204.428 113.224 204.256 113.322C204.157 113.38 204.116 113.396 204.108 113.388C204.108 113.388 204.108 113.355 204.124 113.347L204.322 113.067C205.546 111.368 206.672 109.487 207.782 107.606C208.875 105.701 209.911 103.73 210.939 101.743C211.941 99.747 212.92 97.7186 213.873 95.6819C214.835 93.6699 215.756 91.5429 216.627 89.5884L225.907 93.325L225.874 93.3168Z" fill="#FF8B7B"/>
<path d="M228.455 89.3831C230.461 95.4273 218.567 111.918 218.567 111.918L205.629 103.796C205.629 103.796 209.023 95.3863 213.816 88.9724C218.739 82.3861 226.253 82.7475 228.455 89.3831Z" fill="#263238"/>
<path opacity="0.2" d="M221.025 96.4868C218.468 97.5955 214.054 106.161 214.629 109.454L218.559 111.918C218.559 111.918 223.145 105.57 226.137 99.3037C224.37 97.4477 222.373 95.9038 221.025 96.4868Z" fill="black"/>
<path d="M193.282 99.4104L192.057 91.9536L184.955 94.4091C184.955 94.4091 185.136 100.273 189.904 101.349L193.282 99.4104Z" fill="#FF8B7B"/>
<path d="M187.249 86.928L184.536 89.17C184.084 89.5395 183.887 90.139 184.026 90.7057L184.955 94.4012L192.057 91.9457L189.55 87.3632C189.09 86.5256 187.98 86.3121 187.249 86.9198V86.928Z" fill="#FF8B7B"/>
<path opacity="0.2" d="M227.987 274.555L227.773 282.439L234.357 282.538L234.571 274.662L227.987 274.555Z" fill="black"/>
<path d="M257.768 86.7143C251.611 111.754 254.053 138.329 253.617 143.708C253.617 143.708 218.32 143.141 218.32 143.133C215.082 104.461 220.786 84.2999 220.786 84.2999C220.786 84.2999 223.03 83.8646 226.096 83.5443C227.058 83.4458 228.094 83.3554 229.179 83.298C229.779 83.2651 230.387 83.2405 231.004 83.2323C234.982 83.1666 241.509 83.7989 246.005 84.3491C246.951 84.4641 247.904 84.6037 248.833 84.7598C249.696 84.9076 250.543 85.0636 251.34 85.2196C254.957 85.9341 257.76 86.7143 257.76 86.7143H257.768Z" fill="#263238"/>
<path opacity="0.2" d="M250.666 97.4561C250.123 99.8787 251.266 110.933 253.905 113.659C254.118 110.119 254.439 106.424 254.899 102.646L250.666 97.4561Z" fill="black"/>
<path d="M245.134 67.4072C244.008 72.1457 242.742 80.8837 246.005 84.3493C243.284 86.7555 239.75 89.4984 234.004 89.2767C228.258 89.055 229.409 85.1952 230.995 83.2406C236.429 82.3619 236.429 78.3707 235.632 74.5602L245.126 67.4072H245.134Z" fill="#FF8B7B"/>
<path d="M245.693 83.7086C245.076 84.5791 242.487 87.1906 232.738 89.1452C234.16 90.1635 235.631 92.6108 236.396 93.9904C236.708 94.5653 237.399 94.8199 237.991 94.5817C240.794 93.4566 248.093 89.9828 247.781 84.5052C247.772 84.3245 247.666 84.152 247.509 84.0617C247.074 83.8153 246.597 83.6347 246.276 83.5279C246.063 83.454 245.832 83.5279 245.709 83.7086H245.693Z" fill="white"/>
<path d="M228.521 92.5859C229.384 91.4773 230.905 89.843 232.738 89.1532C231.563 88.217 230.445 85.6383 231.037 83.462C231.135 83.1089 230.839 82.7476 230.469 82.7804C230.091 82.8133 229.713 82.8954 229.532 82.9364C229.458 82.9529 229.393 82.9857 229.335 83.0268C228.595 83.5934 223.515 87.7571 226.737 92.4792C227.165 93.1033 228.069 93.1526 228.513 92.5777L228.521 92.5859Z" fill="white"/>
<path opacity="0.2" d="M241.262 70.3223L235.64 74.5516C235.829 75.455 235.977 76.3583 236.001 77.2371C238.065 77.0892 240.975 75.0526 241.27 72.9256C241.418 71.8662 241.41 70.8314 241.254 70.3223H241.262Z" fill="black"/>
<path d="M229.771 65.1897C227.001 64.6149 226.713 56.7392 228.003 54.7847C226.203 54.8093 223.392 52.5509 222.759 50.4732C224.724 50.5389 227.551 49.422 228.003 48.5926C226.063 47.6646 223.096 44.8806 222.759 42.5319C227.675 44.9299 231.439 45.0859 233.149 44.8806C233.149 44.8806 231.505 43.2874 231.801 41.3657C235.385 43.2792 239.988 44.7164 244.953 44.5521C249.31 44.4043 251.562 47.9356 249.885 50.5389C253.822 50.4404 251.085 61.5599 247.312 63.9168C243.753 65.7974 237.333 66.7583 229.771 65.1815V65.1897Z" fill="#263238"/>
<path d="M246.729 60.2131C245.898 66.6927 245.75 70.5361 242.232 73.6321C236.947 78.2885 229.088 74.7079 227.962 68.097C226.943 62.143 228.464 52.5428 235.023 50.424C241.484 48.3381 247.559 53.7336 246.729 60.2131Z" fill="#FF8B7B"/>
<path d="M244.887 51.1631C244.887 51.1631 240.81 52.7399 241.944 56.8789C243.079 61.0179 242.906 62.8657 242.323 64.0975C242.734 65.3951 246.12 65.9864 246.12 65.9864C246.12 65.9864 248.964 59.9749 249.375 56.5997C249.786 53.2244 244.887 51.1713 244.887 51.1713V51.1631Z" fill="#263238"/>
<path d="M248.109 50.2102C249.729 50.5059 252.113 47.804 252.31 45.6113C252.31 45.6113 253.321 53.5527 248.109 50.2102Z" fill="#263238"/>
<path d="M247.641 49.6027C248.463 53.1094 239.922 54.9243 228.825 54.6451C228.825 54.6451 228.76 50.3993 232.113 48.724C235.467 47.0487 246.581 45.0449 247.641 49.5945V49.6027Z" fill="#263238"/>
<path d="M249.4 66.8157C248.479 68.3103 246.95 69.2383 245.537 69.5504C243.408 70.0103 242.454 68.0722 243.136 66.1341C243.753 64.3848 245.602 62.0361 247.698 62.4467C249.762 62.8491 250.46 65.1075 249.408 66.8157H249.4Z" fill="#FF8B7B"/>
<path d="M238.78 208.569C238.517 175.416 245.857 143.585 245.857 143.585L218.345 143.141C218.345 143.141 221.51 191.019 222.611 211.074C223.754 231.925 225.357 280.878 225.357 280.878L236.527 281.051C236.527 281.051 240.333 234.733 238.788 208.577L238.78 208.569Z" fill="#058DD1"/>
<path opacity="0.2" d="M239.873 161.824C232.031 172.549 235.558 192.727 238.772 206.984C238.772 189.262 240.859 172.057 242.775 160.05L239.873 161.824Z" fill="black"/>
<path d="M224.658 281.117L237.933 281.322L238.681 277.027L223.877 276.567L224.658 281.117Z" fill="#263238"/>
<path d="M238.056 61.2968C238.024 61.8306 237.711 62.233 237.366 62.2084C237.021 62.1838 236.766 61.7321 236.799 61.1983C236.832 60.6645 237.144 60.2621 237.489 60.2867C237.834 60.3114 238.089 60.763 238.056 61.2968Z" fill="#263238"/>
<path d="M230.716 60.8535C230.683 61.3873 230.371 61.7897 230.025 61.765C229.68 61.7404 229.425 61.2887 229.458 60.7549C229.491 60.2211 229.804 59.8187 230.149 59.8434C230.494 59.868 230.749 60.3197 230.716 60.8535Z" fill="#263238"/>
<path d="M232.607 61.2559C232.607 61.2559 231.201 64.2287 229.771 65.6002C230.65 66.5446 232.278 66.2654 232.278 66.2654L232.607 61.2559Z" fill="#FF5652"/>
<path d="M234.423 67.8503C236.462 67.7271 237.489 66.3967 237.539 66.3392C237.588 66.2735 237.58 66.175 237.506 66.1175C237.44 66.0682 237.341 66.0764 237.284 66.1503C237.275 66.1668 236.067 67.7107 233.749 67.5382C233.667 67.5382 233.585 67.5957 233.585 67.686C233.585 67.7682 233.642 67.8503 233.733 67.8503C233.979 67.8667 234.209 67.8667 234.423 67.8503Z" fill="#263238"/>
<path d="M239.141 58.5458C239.191 58.5458 239.248 58.5294 239.289 58.4966C239.437 58.4062 239.47 58.2091 239.38 58.0613C238.426 56.6077 236.988 56.5913 236.922 56.5913C236.749 56.5913 236.61 56.7309 236.61 56.9034C236.61 57.0758 236.749 57.2154 236.922 57.2154C236.971 57.2154 238.098 57.2483 238.854 58.4062C238.92 58.5048 239.026 58.5541 239.133 58.5458H239.141Z" fill="#263238"/>
<path d="M228.308 58.1599C228.406 58.1599 228.513 58.1189 228.571 58.0368C229.384 56.9281 230.51 56.9774 230.56 56.9774C230.732 56.9856 230.88 56.8542 230.889 56.6817C230.889 56.5093 230.765 56.3614 230.593 56.3532C230.527 56.3532 229.088 56.2793 228.069 57.659C227.97 57.7986 227.995 57.9957 228.135 58.0942C228.184 58.1353 228.242 58.1517 228.308 58.1517V58.1599Z" fill="#263238"/>
<path d="M226.302 289.666C226.359 289.649 226.4 289.6 226.409 289.543C226.417 289.477 226.384 289.411 226.326 289.378C226.031 289.222 223.4 287.834 222.595 288.27C222.438 288.352 222.348 288.5 222.332 288.68C222.307 288.992 222.397 289.247 222.611 289.444C223.326 290.093 225.217 289.863 226.285 289.674C226.285 289.674 226.302 289.674 226.31 289.674L226.302 289.666ZM222.8 288.516C223.302 288.352 224.732 288.918 225.768 289.436C224.304 289.658 223.219 289.575 222.825 289.206C222.685 289.074 222.627 288.91 222.644 288.705C222.644 288.623 222.685 288.574 222.743 288.541C222.759 288.532 222.775 288.524 222.8 288.516Z" fill="#058DD1"/>
<path d="M226.302 289.666C226.302 289.666 226.326 289.658 226.343 289.649C226.392 289.617 226.417 289.567 226.409 289.51C226.409 289.436 226.252 287.654 225.422 286.956C225.167 286.742 224.88 286.644 224.559 286.677C224.132 286.709 224 286.931 223.967 287.104C223.836 287.851 225.389 289.296 226.179 289.666C226.211 289.682 226.252 289.682 226.294 289.666H226.302ZM224.428 287.013C224.428 287.013 224.518 286.989 224.584 286.98C224.822 286.964 225.028 287.03 225.217 287.186C225.759 287.646 225.981 288.713 226.055 289.231C225.25 288.73 224.197 287.596 224.28 287.145C224.28 287.12 224.296 287.046 224.428 287.005V287.013Z" fill="#058DD1"/>
<path d="M271.158 289.945L264.558 289.838L262.379 274.555L268.98 274.654L271.158 289.945Z" fill="#FF8B7B"/>
<path d="M264.221 289.083L271.413 289.197C271.685 289.197 271.898 289.395 271.923 289.657L272.548 295.537C272.613 296.145 272.087 296.712 271.463 296.695C268.873 296.613 268.059 296.4 264.796 296.35C260.982 296.293 262.741 296.449 258.269 296.375C255.565 296.334 255.129 293.599 256.288 293.353C259.955 292.589 260.916 291.127 262.569 289.575C263.004 289.165 263.645 289.074 264.213 289.083H264.221Z" fill="#263238"/>
<path opacity="0.2" d="M262.379 274.555L263.506 282.439L270.106 282.538L268.988 274.662L262.379 274.555Z" fill="black"/>
<path d="M261.779 207.739C258.031 178.109 258.064 150.327 253.617 143.708L230.297 143.33C230.297 143.33 242.257 190.173 246.811 209.908C251.537 230.43 260.522 278.924 260.522 278.924L271.158 279.072C271.158 279.072 268.766 230.66 261.779 207.739Z" fill="#058DD1"/>
<path d="M259.05 281.117L272.326 281.322L273.082 277.027L258.278 276.567L259.05 281.117Z" fill="#263238"/>
<path d="M265.528 289.575C265.585 289.575 265.643 289.551 265.667 289.493C265.7 289.436 265.692 289.362 265.651 289.313C265.429 289.058 263.432 286.857 262.527 286.989C262.355 287.013 262.215 287.12 262.141 287.284C262.009 287.563 262.009 287.843 262.141 288.097C262.585 288.951 264.443 289.387 265.511 289.567C265.511 289.567 265.528 289.567 265.536 289.567L265.528 289.575ZM262.626 287.301C263.152 287.317 264.295 288.344 265.1 289.181C263.653 288.886 262.659 288.442 262.412 287.958C262.322 287.785 262.322 287.613 262.412 287.424C262.445 287.35 262.494 287.317 262.56 287.301C262.577 287.301 262.601 287.301 262.626 287.301Z" fill="#058DD1"/>
<path d="M265.528 289.575C265.528 289.575 265.56 289.575 265.569 289.575C265.626 289.559 265.667 289.518 265.684 289.469C265.7 289.395 266.177 287.678 265.643 286.734C265.478 286.446 265.24 286.257 264.928 286.175C264.508 286.06 264.319 286.225 264.229 286.372C263.851 287.021 264.812 288.918 265.429 289.534C265.454 289.559 265.495 289.575 265.536 289.583L265.528 289.575ZM264.681 286.438C264.722 286.438 264.78 286.446 264.845 286.463C265.076 286.528 265.248 286.66 265.371 286.873C265.725 287.489 265.561 288.565 265.454 289.083C264.87 288.335 264.27 286.906 264.5 286.512C264.517 286.487 264.549 286.43 264.689 286.43L264.681 286.438Z" fill="#058DD1"/>
<path d="M259.585 90.6069C261.878 94.7131 263.949 98.8028 265.939 103.016C267.895 107.237 269.761 111.507 271.389 115.975C271.791 117.092 272.186 118.225 272.548 119.375L272.835 120.27C272.975 120.738 273.09 121.214 273.164 121.691C273.32 122.651 273.345 123.604 273.254 124.499C273.074 126.298 272.523 127.842 271.882 129.18C271.232 130.527 270.443 131.677 269.629 132.736C267.985 134.847 266.144 136.555 264.229 138.099C263.275 138.871 262.281 139.585 261.278 140.251C260.259 140.932 259.28 141.548 258.138 142.164L255.261 138.14C255.968 137.409 256.765 136.596 257.488 135.799C258.22 134.995 258.927 134.165 259.609 133.352C260.966 131.71 262.199 130.01 263.136 128.334C264.056 126.684 264.632 124.976 264.517 123.99C264.492 123.744 264.459 123.547 264.393 123.382C264.369 123.3 264.328 123.226 264.295 123.152L263.999 122.438C263.604 121.436 263.177 120.434 262.725 119.432C260.966 115.408 258.976 111.384 256.962 107.385C254.948 103.385 252.869 99.3366 250.814 95.4029L259.593 90.6151L259.585 90.6069Z" fill="#FF8B7B"/>
<path d="M257.768 86.7145C263.859 88.5951 268.906 104.494 268.906 104.494L255.647 111.918C255.647 111.918 251.981 105.225 249.096 97.5055C245.956 89.096 250.395 84.4314 257.768 86.7145Z" fill="#263238"/>
<path d="M257.217 137.122L250.978 139.503L255.82 145.876C255.82 145.876 261.204 143.034 260.152 139.93L257.209 137.122H257.217Z" fill="#FF8B7B"/>
<path d="M248.101 145.811L250.173 147.757C250.995 148.529 252.261 148.594 253.165 147.905L255.82 145.876L250.978 139.503L248.035 142.509C247.131 143.437 247.156 144.924 248.101 145.811Z" fill="#FF8B7B"/>
<path d="M131.18 52.3784H124.053V53.1997H131.18V52.3784Z" fill="#058DD1"/>
<path d="M115.965 52.3784H100.076V53.1997H115.965V52.3784Z" fill="#058DD1"/>
<path d="M186.575 254.353H92.061C86.4386 254.353 81.5148 249.755 81.1284 244.137L68.8149 65.4779C68.4285 59.8606 72.7111 55.2617 78.3418 55.2617H172.855C178.478 55.2617 183.402 59.8606 183.788 65.4779L196.102 244.137C196.488 249.755 192.205 254.353 186.575 254.353Z" fill="white"/>
<path d="M172.847 56.0742C178.067 56.0742 182.596 60.3117 182.958 65.5266L195.271 244.186C195.444 246.683 194.63 249.023 192.978 250.797C191.334 252.563 189.057 253.532 186.566 253.532H92.0528C86.8331 253.532 82.3039 249.294 81.9422 244.079L69.6286 65.4198C69.456 62.9233 70.2698 60.5827 71.922 58.8089C73.566 57.0432 75.8429 56.0742 78.3336 56.0742H172.847ZM172.847 55.2529H78.3418C72.7193 55.2529 68.4285 59.8518 68.8148 65.4691L81.1284 244.129C81.5147 249.746 86.4385 254.345 92.061 254.345H186.575C192.197 254.345 196.488 249.746 196.102 244.129L183.788 65.4691C183.402 59.8518 178.478 55.2529 172.855 55.2529H172.847Z" fill="#058DD1"/>
<path d="M190.495 254.352H95.9819C90.3594 254.352 85.4357 249.754 85.0493 244.136L72.7358 65.4769C72.3494 59.8597 76.632 55.2607 82.2627 55.2607H176.776C182.399 55.2607 187.323 59.8597 187.709 65.4769L200.022 244.136C200.409 249.754 196.126 254.352 190.495 254.352Z" fill="#058DD1"/>
<path d="M157.607 139.766H115.398C113.449 139.766 111.715 138.288 111.394 136.349L106.849 109.298C106.471 107.072 108.09 105.143 110.334 105.143H157.911C160.155 105.143 162.038 107.072 161.972 109.298L161.158 136.349C161.101 138.288 159.572 139.766 157.624 139.766H157.607Z" fill="white"/>
<path d="M157.607 140.998H115.398C112.849 140.998 110.597 139.092 110.178 136.555L105.632 109.503C105.394 108.074 105.772 106.645 106.684 105.578C107.58 104.518 108.912 103.911 110.334 103.911H157.911C159.317 103.911 160.698 104.502 161.701 105.537C162.695 106.563 163.246 107.951 163.205 109.339L162.391 136.39C162.309 138.977 160.221 140.998 157.624 140.998H157.607ZM110.326 106.374C109.619 106.374 108.994 106.654 108.559 107.171C108.115 107.697 107.942 108.378 108.057 109.101L112.603 136.152C112.825 137.491 114.05 138.534 115.389 138.534H157.599C158.873 138.534 159.86 137.581 159.901 136.317L160.714 109.265C160.739 108.534 160.443 107.803 159.909 107.253C159.366 106.695 158.635 106.374 157.895 106.374H110.318H110.326Z" fill="white"/>
<path d="M161.142 137.581C161.142 137.581 161.117 137.581 161.101 137.581C160.419 137.565 159.884 136.99 159.909 136.317L161.15 95.1811C161.167 94.7294 161.421 94.3188 161.824 94.1217C162.227 93.9164 162.712 93.9492 163.082 94.212L170.496 99.3365C171.055 99.7225 171.195 100.494 170.809 101.053C170.422 101.611 169.65 101.751 169.091 101.365L163.542 97.5298L162.367 136.399C162.35 137.064 161.8 137.598 161.134 137.598L161.142 137.581Z" fill="white"/>
<path d="M130.666 157.355C133.255 154.676 133.026 150.257 130.152 147.484C127.279 144.711 122.85 144.634 120.261 147.312C117.671 149.991 117.901 154.41 120.775 157.183C123.648 159.956 128.076 160.033 130.666 157.355Z" fill="white"/>
<path d="M125.944 159.861C121.817 159.861 118.225 156.503 117.938 152.38C117.798 150.36 118.455 148.463 119.795 147.034C121.127 145.613 122.968 144.825 124.982 144.825C129.109 144.825 132.701 148.184 132.988 152.306C133.128 154.326 132.471 156.223 131.131 157.652C129.799 159.073 127.958 159.861 125.944 159.861ZM124.982 145.901C123.272 145.901 121.702 146.566 120.584 147.765C119.458 148.972 118.899 150.59 119.014 152.306C119.261 155.879 122.368 158.786 125.944 158.786C127.654 158.786 129.215 158.12 130.342 156.921C131.468 155.714 132.027 154.105 131.912 152.38C131.665 148.808 128.558 145.901 124.982 145.901Z" fill="white"/>
<path d="M153.733 157.348C156.323 154.67 156.093 150.251 153.22 147.477C150.346 144.704 145.918 144.627 143.328 147.306C140.739 149.984 140.969 154.403 143.842 157.176C146.715 159.949 151.144 160.026 153.733 157.348Z" fill="white"/>
<path d="M149.009 159.861C144.883 159.861 141.291 156.503 141.003 152.38C140.863 150.36 141.521 148.463 142.861 147.034C144.192 145.613 146.033 144.825 148.047 144.825C152.174 144.825 155.766 148.184 156.054 152.306C156.193 154.326 155.536 156.223 154.196 157.652C152.864 159.073 151.023 159.861 149.009 159.861ZM148.047 145.901C146.338 145.901 144.776 146.566 143.65 147.765C142.524 148.972 141.965 150.582 142.08 152.306C142.326 155.879 145.433 158.786 149.009 158.786C150.719 158.786 152.289 158.12 153.407 156.921C154.533 155.714 155.092 154.096 154.977 152.38C154.73 148.808 151.623 145.901 148.047 145.901Z" fill="white"/>
<path d="M145.913 107.329C152.326 100.697 151.759 89.7568 144.648 82.8935C137.536 76.0301 126.573 75.8423 120.161 82.4741C113.748 89.1058 114.315 100.046 121.426 106.909C128.538 113.773 139.501 113.96 145.913 107.329Z" fill="#058DD1"/>
<path d="M133.991 109.413C126.01 109.413 119.072 102.925 118.521 94.9595C118.25 91.0751 119.524 87.4123 122.089 84.6612C124.653 81.9183 128.196 80.4072 132.076 80.4072C140.058 80.4072 146.995 86.895 147.546 94.8609C147.817 98.7454 146.543 102.408 143.978 105.159C141.414 107.902 137.871 109.413 133.991 109.413ZM132.084 81.7294C128.574 81.7294 125.368 83.0927 123.059 85.5646C120.741 88.0447 119.598 91.3543 119.836 94.8692C120.338 102.162 126.692 108.099 133.991 108.099C137.501 108.099 140.707 106.736 143.017 104.264C145.335 101.784 146.477 98.4744 146.239 94.9595C145.738 87.6669 139.383 81.7294 132.084 81.7294Z" fill="white"/>
<path d="M123.371 94.237C123.371 94.237 129.429 97.5055 132.257 101.71C133.786 98.4252 136.12 93.8592 142.425 88.7183C134.427 92.1017 131.969 97.489 131.969 97.489C131.969 97.489 128.689 94.779 123.371 94.2287V94.237Z" fill="white"/>
<path d="M142.869 249.113C139.416 249.113 136.416 246.313 136.178 242.864C136.063 241.188 136.605 239.603 137.715 238.421C138.816 237.238 140.354 236.589 142.03 236.589C145.483 236.589 148.483 239.39 148.721 242.839C148.837 244.514 148.294 246.099 147.184 247.282C146.075 248.464 144.546 249.113 142.869 249.113ZM142.03 236.992C140.469 236.992 139.047 237.599 138.019 238.7C136.992 239.8 136.482 241.27 136.589 242.839C136.811 246.075 139.63 248.711 142.869 248.711C144.431 248.711 145.853 248.103 146.88 247.003C147.908 245.902 148.417 244.432 148.31 242.872C148.089 239.636 145.269 237 142.03 237V236.992Z" fill="white"/>
<path d="M149.691 183.916L141.258 186.116L123.026 202.467L141.184 217.586L156.58 203.732C158.865 201.654 160.18 198.706 160.246 195.52L166.838 191.964C169.551 190.502 170.102 186.856 167.989 184.343L163.016 178.43C160.986 176.015 157.41 175.777 155.38 177.912L149.7 183.907L149.691 183.916Z" fill="#058DD1"/>
<path d="M141.192 218.046L122.491 202.484L141.167 185.788L149.502 183.612L155.117 177.691C156.119 176.639 157.492 176.073 158.996 176.122C160.632 176.171 162.186 176.935 163.271 178.224L168.244 184.137C169.37 185.468 169.83 187.176 169.518 188.81C169.23 190.305 168.31 191.57 166.986 192.284L160.575 195.741C160.46 198.961 159.128 201.884 156.802 203.995L141.184 218.046H141.192ZM123.552 202.459L141.167 217.126L156.341 203.477C158.569 201.457 159.835 198.624 159.892 195.52V195.314L166.666 191.66C167.825 191.036 168.597 189.976 168.844 188.662C169.115 187.233 168.704 185.739 167.718 184.564L162.745 178.651C161.791 177.518 160.419 176.845 158.988 176.804C157.698 176.754 156.498 177.247 155.634 178.151L149.889 184.211L141.439 186.42L123.568 202.451L123.552 202.459Z" fill="white"/>
<path d="M158.931 203.313L157.87 202.476L140.822 188.868C138.562 187.061 135.948 185.764 133.186 185.066L128.648 183.924L122.138 177.937C119.812 175.802 116.277 176.04 114.576 178.455L110.416 184.367C108.649 186.872 109.709 190.527 112.619 191.989L119.697 195.544C120.198 198.731 121.916 201.679 124.489 203.757L141.792 217.611H141.8L143.181 218.711C144.455 219.722 146.272 219.566 147.193 218.293C148.064 217.085 147.661 215.303 146.403 214.31L148.113 215.665C149.19 216.519 150.703 216.634 151.714 215.837C153.111 214.728 152.988 212.569 151.533 211.419L152.486 212.174C153.563 213.029 155.084 213.144 156.087 212.347C157.484 211.23 157.361 209.078 155.906 207.929L155.692 207.764C156.966 208.775 158.783 208.618 159.703 207.346C160.575 206.138 160.172 204.356 158.914 203.363L158.931 203.313Z" fill="white"/>
<path d="M150.974 191.964C150.974 191.964 148.442 194.05 144.291 194.452C144.291 194.452 140.83 194.477 138.997 196.324C136.556 198.788 131.624 200.225 130.448 197.679C129.857 196.398 134.304 193.508 136.63 188.851C138.266 185.583 143.502 184.425 149.683 183.916" fill="#058DD1"/>
<path d="M132.98 199.297C132.709 199.297 132.446 199.273 132.199 199.231C131.246 199.067 130.555 198.566 130.194 197.794C129.824 196.998 130.753 195.971 132.158 194.419C133.515 192.924 135.208 191.06 136.375 188.72C138.225 185.032 144.439 184.063 149.659 183.636L149.708 184.195C144.636 184.613 138.603 185.533 136.885 188.974C135.685 191.38 133.958 193.278 132.577 194.797C131.459 196.029 130.49 197.096 130.703 197.564C130.983 198.172 131.517 198.55 132.298 198.681C134.156 199.01 137.074 197.86 138.8 196.127C140.691 194.222 144.143 194.173 144.291 194.173C148.269 193.795 150.768 191.775 150.793 191.75L151.146 192.185C151.04 192.276 148.5 194.329 144.316 194.731C144.258 194.731 140.921 194.78 139.195 196.521C137.551 198.18 134.978 199.297 132.98 199.297Z" fill="white"/>
<path d="M125.911 207.715L128.656 205.276C129.881 204.184 129.791 202.197 128.467 201.039C127.358 200.078 125.755 200.037 124.735 200.948L121.99 203.387C120.765 204.48 120.856 206.467 122.179 207.625C123.289 208.586 124.892 208.627 125.911 207.715Z" fill="#058DD1"/>
<path d="M124.144 208.717C123.371 208.717 122.59 208.438 121.949 207.888C121.209 207.247 120.773 206.327 120.773 205.375C120.773 204.496 121.119 203.699 121.76 203.124L124.505 200.685C125.656 199.659 127.465 199.7 128.698 200.767C129.437 201.408 129.873 202.328 129.873 203.28C129.873 204.159 129.528 204.956 128.887 205.531L126.141 207.97C125.582 208.471 124.867 208.717 124.144 208.717ZM126.503 200.636C125.944 200.636 125.393 200.825 124.966 201.211L122.22 203.65C121.735 204.085 121.464 204.693 121.472 205.375C121.472 206.13 121.817 206.853 122.409 207.362C123.387 208.208 124.793 208.249 125.689 207.452L128.434 205.013C128.919 204.578 129.191 203.97 129.183 203.289C129.183 202.533 128.837 201.81 128.245 201.301C127.736 200.858 127.111 200.636 126.503 200.636Z" fill="white"/>
<path d="M129.651 212.207L132.972 209.259C134.139 208.216 134.123 206.352 132.939 205.169C131.838 204.077 130.128 203.97 129.043 204.939L125.722 207.887C124.497 208.98 124.588 210.967 125.911 212.125C127.021 213.086 128.624 213.127 129.643 212.215L129.651 212.207Z" fill="#058DD1"/>
<path d="M127.884 213.209C127.111 213.209 126.33 212.93 125.689 212.38C124.949 211.739 124.514 210.819 124.514 209.867C124.514 208.988 124.859 208.191 125.5 207.616L128.821 204.668C130.037 203.584 131.961 203.691 133.194 204.915C133.86 205.572 134.221 206.467 134.197 207.37C134.172 208.208 133.827 208.963 133.219 209.505L129.898 212.453C129.339 212.954 128.624 213.201 127.9 213.201L127.884 213.209ZM130.81 204.619C130.251 204.619 129.7 204.808 129.273 205.194L125.952 208.142C125.467 208.577 125.196 209.185 125.204 209.867C125.204 210.622 125.549 211.345 126.141 211.854C127.119 212.7 128.525 212.741 129.421 211.944L132.742 208.996C133.21 208.585 133.473 208.002 133.49 207.354C133.506 206.639 133.219 205.933 132.692 205.407C132.166 204.882 131.476 204.611 130.81 204.611V204.619Z" fill="white"/>
<path d="M134.509 215.697L137.255 213.258C138.479 212.166 138.389 210.179 137.066 209.021C135.956 208.06 134.353 208.019 133.334 208.93L130.588 211.369C129.363 212.462 129.454 214.449 130.777 215.607C131.887 216.568 133.49 216.609 134.509 215.697Z" fill="#058DD1"/>
<path d="M132.742 216.707C131.969 216.707 131.188 216.428 130.547 215.878C129.807 215.237 129.372 214.317 129.372 213.365C129.372 212.486 129.717 211.69 130.358 211.115L133.103 208.676C134.254 207.649 136.063 207.69 137.296 208.758C138.035 209.398 138.471 210.318 138.471 211.271C138.471 212.149 138.126 212.946 137.485 213.521L134.739 215.96C134.18 216.461 133.465 216.707 132.742 216.707ZM135.101 208.626C134.542 208.626 133.991 208.815 133.564 209.201L130.818 211.64C130.333 212.075 130.062 212.691 130.07 213.365C130.07 214.12 130.416 214.843 131.007 215.352C131.986 216.198 133.391 216.239 134.287 215.443L137.033 213.003C137.518 212.568 137.789 211.952 137.781 211.279C137.781 210.523 137.435 209.801 136.844 209.292C136.334 208.848 135.709 208.626 135.101 208.626Z" fill="white"/>
<path d="M139.943 218.687L142.787 216.116C144.036 214.983 143.88 212.93 142.466 211.821C141.365 210.951 139.844 210.959 138.866 211.829L136.022 214.359C134.797 215.451 134.887 217.438 136.211 218.596C137.32 219.557 138.923 219.598 139.943 218.687Z" fill="#058DD1"/>
<path d="M138.175 219.689C137.403 219.689 136.622 219.409 135.981 218.859C135.241 218.219 134.805 217.299 134.805 216.346C134.805 215.467 135.15 214.671 135.791 214.096L138.636 211.567C139.745 210.581 141.439 210.573 142.68 211.542C143.469 212.166 143.946 213.078 143.979 214.055C144.011 214.942 143.658 215.788 143.017 216.363L140.173 218.933C139.614 219.434 138.899 219.68 138.175 219.68V219.689ZM140.625 211.517C140.066 211.517 139.523 211.706 139.096 212.084L136.252 214.613C135.767 215.049 135.496 215.656 135.504 216.338C135.504 217.094 135.849 217.816 136.441 218.325C137.419 219.171 138.825 219.212 139.721 218.416L142.557 215.853C143.05 215.402 143.313 214.778 143.288 214.08C143.263 213.308 142.885 212.577 142.252 212.084C141.767 211.698 141.192 211.509 140.625 211.509V211.517Z" fill="white"/>
<g opacity="0.2">
<path d="M94.4447 231.966C91.5266 231.966 88.9866 229.592 88.7811 226.677L78.0705 71.2995C77.8732 68.3841 80.0844 66.0107 83.0025 66.0107H177.516C180.434 66.0107 182.974 68.3841 183.18 71.2995L193.89 226.677C194.088 229.592 191.876 231.966 188.958 231.966H94.4447Z" fill="white"/>
<path d="M188.958 232.171H94.4448C91.4198 232.171 88.7894 229.716 88.5757 226.694L77.865 71.3161C77.7664 69.8461 78.2431 68.4582 79.2213 67.4153C80.1913 66.3723 81.5394 65.8057 83.0025 65.8057H177.516C180.541 65.8057 183.171 68.2694 183.385 71.2915L194.096 226.669C194.194 228.139 193.718 229.527 192.74 230.57C191.77 231.613 190.422 232.179 188.958 232.179V232.171ZM83.0025 66.2081C81.6462 66.2081 80.4132 66.7337 79.5172 67.6863C78.6213 68.6471 78.1774 69.92 78.276 71.2751L88.9867 226.653C89.184 229.461 91.6253 231.752 94.4448 231.752H188.958C190.315 231.752 191.548 231.227 192.444 230.274C193.34 229.313 193.783 228.04 193.685 226.685L182.974 71.3079C182.777 68.4993 180.336 66.2081 177.516 66.2081H83.0025Z" fill="white"/>
</g>
</g>
<defs>
<clipPath id="clip0_119_1388">
<rect width="411" height="306" fill="white" transform="translate(-25)"/>
</clipPath>
</defs>
</svg>
