<svg width="30" height="30" viewBox="0 0 30 30" fill="none" xmlns="http://www.w3.org/2000/svg">
<path d="M12.2686 5.32492C11.4921 5.50563 10.7644 6.09659 10.442 6.79988C10.2027 7.31758 10.1734 7.60085 10.1734 9.40792V11.0831H7.75586C6.19788 11.0831 5.25039 11.1027 5.08433 11.1368C4.15149 11.3273 3.34564 12.0941 3.07214 13.0465C2.99888 13.2858 2.99399 13.696 3.00376 16.5825C3.01841 19.8352 3.01841 19.8498 3.12586 20.1429C3.37006 20.7827 3.86822 21.3297 4.46407 21.6178L4.84502 21.8034L4.85967 23.1221C4.87432 24.348 4.8792 24.4505 4.97688 24.6117C5.18201 24.9633 5.56784 25.0903 5.94391 24.934C6.03182 24.8999 6.87186 24.2063 7.81447 23.4005L9.51897 21.9304L12.8889 21.9158C15.9658 21.8962 16.2784 21.8864 16.5226 21.8083C17.4896 21.4908 18.2075 20.7192 18.4078 19.7815C18.4517 19.5714 18.4762 19.1417 18.4762 18.5409V17.6276H19.6385L20.796 17.6325L22.7154 19.4103C24.7911 21.3346 24.8107 21.3492 25.2112 21.2418C25.3137 21.2173 25.4602 21.1441 25.5335 21.0855C25.7875 20.8852 25.8021 20.7924 25.8021 19.1221V17.5886L25.9926 17.5544C26.5933 17.4518 27.3943 16.8315 27.6971 16.2357C28.0145 15.6057 27.9999 15.8108 27.9999 11.4543C27.9999 7.15641 28.0048 7.26874 27.7264 6.69243C27.5457 6.33102 26.9791 5.76448 26.5982 5.56912C25.9682 5.25655 26.3833 5.2712 19.0818 5.27608C15.4286 5.28097 12.3663 5.3005 12.2686 5.32492ZM25.807 6.89756C26.0219 7.00501 26.271 7.23944 26.3784 7.43968C26.4517 7.57643 26.4614 7.94273 26.4761 11.3762C26.4908 15.6154 26.5054 15.3957 26.1391 15.7668C25.8998 16.0013 25.5921 16.1136 25.1721 16.1136C24.8058 16.1136 24.5714 16.2113 24.4102 16.4262C24.3223 16.5483 24.3125 16.6508 24.2881 17.6472L24.2637 18.7363L22.9206 17.4909C22.1831 16.8071 21.5091 16.2162 21.4212 16.182C21.2893 16.1234 20.4981 16.1136 16.9768 16.1136C13.5238 16.1087 12.6545 16.099 12.5031 16.0452C12.2149 15.9378 11.9805 15.7327 11.8535 15.4592L11.7363 15.2101V11.4445V7.68388L11.8633 7.42991C12.0098 7.13688 12.2247 6.95128 12.5275 6.85849C12.6984 6.80477 13.9048 6.795 19.1843 6.79988C25.2795 6.80965 25.6409 6.81453 25.807 6.89756ZM10.1734 13.8767C10.1734 15.3322 10.2174 15.6399 10.486 16.1869C10.7644 16.7534 11.3358 17.2613 11.9561 17.4958C12.2442 17.6032 12.2979 17.6032 14.5836 17.6179L16.9133 17.6325V18.5605C16.9133 19.5666 16.884 19.718 16.63 19.9915C16.5568 20.0696 16.3907 20.1819 16.254 20.2454L16.0098 20.3627H12.6154C10.4616 20.3627 9.15756 20.3822 9.04034 20.4115C8.91824 20.4457 8.48846 20.7876 7.63865 21.5104L6.41765 22.5556L6.403 21.7057C6.38835 20.939 6.37858 20.8462 6.28579 20.7241C6.11485 20.4896 5.95368 20.4066 5.6118 20.3627C5.18689 20.3089 4.8792 20.1282 4.67896 19.8059L4.53244 19.5666L4.51779 16.5922C4.50802 14.58 4.52268 13.5544 4.55686 13.4225C4.64966 13.0855 5.03061 12.7339 5.41156 12.6411C5.49458 12.6216 6.59836 12.6069 7.86819 12.602L10.1734 12.5971V13.8767Z" fill="black"/>
<path d="M14.464 9.06851C14.1856 9.19061 14 9.48364 14 9.78645C14 9.99646 14.1758 10.309 14.3565 10.4165C14.5079 10.5093 14.63 10.5142 19.0451 10.5142C23.1086 10.5142 23.597 10.5044 23.7484 10.436C24.1342 10.2504 24.2612 9.66923 23.9926 9.31759C23.7337 8.98548 23.9975 9.00013 19.0696 9.00013C15.4603 9.00501 14.5812 9.01478 14.464 9.06851Z" fill="black"/>
<path d="M14.3761 12.1847C14.1758 12.3019 14 12.6047 14 12.8343C14 13.0687 14.1758 13.3666 14.3858 13.4839L14.5763 13.5913H19.0891H23.6068L23.7679 13.479C24.0365 13.2983 24.1293 13.1322 24.1293 12.8343C24.1293 12.5364 24.0365 12.3703 23.7679 12.1847L23.6068 12.0773H19.0842H14.5617L14.3761 12.1847Z" fill="black"/>
</svg>
