<svg width="360" height="310" viewBox="0 0 360 310" fill="none" xmlns="http://www.w3.org/2000/svg">
<g clip-path="url(#clip0_119_820)">
<path d="M342.217 286.237H314.594V286.446H342.217V286.237Z" fill="#EBEBEB"/>
<path d="M243.237 288.503H235.99V288.712H243.237V288.503Z" fill="#EBEBEB"/>
<path d="M313.761 278.505H297.756V278.713H313.761V278.505Z" fill="#EBEBEB"/>
<path d="M46.7722 279.905H10.7517V280.113H46.7722V279.905Z" fill="#EBEBEB"/>
<path d="M59.4823 279.905H54.2031V280.113H59.4823V279.905Z" fill="#EBEBEB"/>
<path d="M154.775 283.421H76.646V283.629H154.775V283.421Z" fill="#EBEBEB"/>
<path d="M165.826 235.67H4.78021C2.15311 235.67 0.0180664 233.537 0.0180664 230.913V4.75757C0.0180664 2.13299 2.15311 0 4.78021 0H165.826C168.453 0 170.588 2.13299 170.588 4.75757V230.913C170.588 233.537 168.453 235.67 165.826 235.67ZM4.78021 0.2083C2.26987 0.2083 0.226566 2.24964 0.226566 4.75757V230.913C0.226566 233.421 2.26987 235.462 4.78021 235.462H165.826C168.336 235.462 170.379 233.421 170.379 230.913V4.75757C170.379 2.24964 168.336 0.2083 165.826 0.2083H4.78021Z" fill="#EBEBEB"/>
<path d="M346.22 235.67H185.174C182.547 235.67 180.412 233.537 180.412 230.913V4.75757C180.412 2.13299 182.547 0 185.174 0H346.22C348.847 0 350.982 2.13299 350.982 4.75757V230.913C350.982 233.537 348.847 235.67 346.22 235.67ZM185.174 0.2083C182.664 0.2083 180.621 2.24964 180.621 4.75757V230.913C180.621 233.421 182.664 235.462 185.174 235.462H346.22C348.73 235.462 350.774 233.421 350.774 230.913V4.75757C350.774 2.24964 348.73 0.2083 346.22 0.2083H185.174Z" fill="#EBEBEB"/>
<path d="M384 272.831H-33V273.039H384V272.831Z" fill="#EBEBEB"/>
<path d="M75.9872 52.8915L82.0671 49.0005L85.3864 55.4161L92.6088 55.0745L92.2752 62.29L98.697 65.6061L94.7939 71.6885L98.697 77.7708L92.2752 81.087L92.6088 88.3025L85.3864 87.9692L82.0671 94.3848L75.9872 90.4855L69.899 94.3848L66.5797 87.9692L59.3572 88.3025L59.6908 81.087L53.269 77.7708L57.1722 71.6885L53.269 65.6061L59.6908 62.29L59.3572 55.0745L66.5797 55.4161L69.899 49.0005L75.9872 52.8915Z" fill="#E6E6E6"/>
<path d="M73.6769 80.9706L66.4461 73.7467C65.6205 72.9219 65.6205 71.5804 66.4461 70.7555C67.2718 69.9307 68.6146 69.9307 69.4402 70.7555L73.6769 74.9882L82.5257 66.1479C83.3513 65.3231 84.6941 65.3231 85.5197 66.1479C86.3454 66.9728 86.3454 68.3143 85.5197 69.1391L73.6769 80.9706Z" fill="#FAFAFA"/>
<path d="M302.151 116.673L306.922 113.615L309.532 118.648L315.195 118.381L314.928 124.039L319.965 126.638L316.905 131.412L319.965 136.178L314.928 138.778L315.195 144.435L309.532 144.169L306.922 149.201L302.151 146.143L297.381 149.201L294.779 144.169L289.116 144.435L289.374 138.778L284.337 136.178L287.398 131.412L284.337 126.638L289.374 124.039L289.116 118.381L294.779 118.648L297.381 113.615L302.151 116.673Z" fill="#E6E6E6"/>
<path d="M300.341 138.686L294.67 133.02C294.02 132.371 294.02 131.321 294.67 130.671C295.321 130.021 296.371 130.021 297.022 130.671L300.341 133.987L307.28 127.055C307.931 126.405 308.982 126.405 309.632 127.055C310.283 127.705 310.283 128.755 309.632 129.404L300.341 138.686Z" fill="#FAFAFA"/>
<path d="M76.5959 196.66L85.895 201.401C87.4629 202.201 89.3728 201.867 90.5821 200.576L97.6961 192.944C98.5384 192.036 98.9137 190.786 98.6969 189.569L94.9939 168.615C94.3851 165.19 91.1158 162.899 87.6881 163.507L75.912 165.582C72.4843 166.19 70.1908 169.456 70.7996 172.881L74.5025 193.835C74.7194 195.052 75.495 196.102 76.5959 196.668V196.66ZM87.1877 195.035C88.2635 194.844 89.2894 195.56 89.4812 196.643C89.673 197.718 88.9558 198.743 87.8716 198.935C86.7957 199.126 85.7699 198.41 85.5781 197.327C85.3862 196.252 86.1035 195.227 87.1877 195.035Z" fill="#E6E6E6"/>
<path d="M77.0518 190.176L95.0471 187.006L94.7039 185.061L76.7086 188.231L77.0518 190.176Z" fill="#FAFAFA"/>
<path d="M74.0042 172.895L91.9995 169.725L91.6563 167.78L73.661 170.95L74.0042 172.895Z" fill="#FAFAFA"/>
<path d="M108.38 60.982L114.776 67.8393C115.861 68.9974 117.579 69.2974 118.988 68.5808L127.353 64.3232C128.346 63.8149 129.046 62.8734 129.238 61.7819L132.566 42.9349C133.108 39.8521 131.048 36.9193 127.97 36.3777L117.378 34.5113C114.293 33.9697 111.357 36.0277 110.815 39.1022L107.487 57.9492C107.295 59.049 107.629 60.1655 108.388 60.982H108.38ZM117.829 62.8651C118.796 63.0317 119.447 63.9566 119.272 64.9231C119.105 65.8896 118.179 66.5395 117.212 66.3645C116.244 66.1979 115.594 65.273 115.769 64.3065C115.936 63.34 116.861 62.6901 117.829 62.8651Z" fill="#F0F0F0"/>
<path d="M110.769 55.6405L126.949 58.4907L127.258 56.743L111.078 53.8927L110.769 55.6405Z" fill="#FAFAFA"/>
<path d="M113.506 40.1058L129.686 42.9561L129.995 41.2083L113.815 38.358L113.506 40.1058Z" fill="#FAFAFA"/>
<path d="M263.387 40.6519C260.918 37.1275 256.048 36.2693 252.52 38.7356L249.217 41.0518L246.899 37.7524C244.43 34.228 239.56 33.3698 236.032 35.836C232.504 38.3023 231.645 43.1682 234.114 46.6926L245.381 62.7733L261.477 51.5168C265.005 49.0506 265.864 44.1847 263.395 40.6602L263.387 40.6519Z" fill="#EBEBEB"/>
<path d="M286.522 42.1517C285.313 40.427 282.927 40.002 281.201 41.2102L279.583 42.3433L278.449 40.7269C277.24 39.0022 274.854 38.5773 273.128 39.7854C271.402 40.9935 270.976 43.3765 272.185 45.1012L277.698 52.9749L285.58 47.4675C287.306 46.2594 287.731 43.8764 286.522 42.1517Z" fill="#EBEBEB"/>
<path d="M39.8581 118.656C28.6492 121.864 22.169 133.553 25.3799 144.751C27.4649 152.025 40.2334 164.223 48.932 171.872C52.8101 175.28 58.9234 173.53 60.3995 168.589C63.7105 157.499 68.0723 140.394 65.979 133.12C62.7681 121.922 51.0671 115.448 39.8581 118.656ZM48.3649 148.293C43.1941 149.776 37.7898 146.784 36.3136 141.619C34.8291 136.453 37.8232 131.054 42.994 129.579C48.1648 128.096 53.5691 131.087 55.0453 136.253C56.5298 141.419 53.5357 146.818 48.3649 148.293Z" fill="#E0E0E0"/>
<path d="M43.1609 117.706C31.9519 120.914 25.4717 132.604 28.6826 143.802C30.7676 151.076 43.5362 163.274 52.2348 170.922C56.1129 174.33 62.2261 172.58 63.7023 167.64C67.0133 156.55 71.3751 139.444 69.2817 132.17C66.0708 120.972 54.3698 114.498 43.1609 117.706ZM51.6677 147.343C46.4969 148.826 41.0925 145.835 39.6164 140.669C38.1318 135.503 41.1259 130.104 46.2967 128.629C51.4675 127.146 56.8718 130.137 58.348 135.303C59.8242 140.469 56.8385 145.868 51.6677 147.343Z" fill="#F5F5F5"/>
<path d="M286.347 65.0564C276.589 62.2569 266.406 67.8976 263.604 77.6544C261.786 83.9867 265.58 98.8759 268.466 108.541C269.75 112.849 275.071 114.373 278.449 111.399C286.022 104.733 297.139 94.1184 298.957 87.7777C301.759 78.0293 296.113 67.8559 286.347 65.0564ZM278.941 90.8606C274.437 89.5691 271.827 84.8782 273.12 80.3706C274.412 75.8713 279.108 73.2634 283.62 74.5549C288.123 75.8463 290.734 80.5372 289.441 85.0448C288.148 89.5524 283.453 92.152 278.941 90.8606Z" fill="#E0E0E0"/>
<path d="M289.224 65.8728C279.466 63.0733 269.283 68.714 266.481 78.4708C264.663 84.8031 268.457 99.6924 271.343 109.357C272.627 113.665 277.948 115.19 281.326 112.215C288.899 105.55 300.016 94.9348 301.834 88.5941C304.636 78.8457 298.99 68.6724 289.224 65.8728ZM281.818 91.677C277.315 90.3855 274.704 85.6946 275.997 81.187C277.29 76.6877 281.985 74.0798 286.497 75.3713C291 76.6627 293.611 81.3536 292.318 85.8613C291.025 90.3605 286.33 92.9684 281.818 91.677Z" fill="#F5F5F5"/>
<path d="M175.5 310C264.807 310 337.204 305.777 337.204 300.568C337.204 295.359 264.807 291.136 175.5 291.136C86.1931 291.136 13.7957 295.359 13.7957 300.568C13.7957 305.777 86.1931 310 175.5 310Z" fill="#F5F5F5"/>
<path d="M124.209 110.749H133.133C135.043 110.749 136.46 112.298 136.285 114.206L134.642 133.012C134.476 134.92 132.791 136.469 130.881 136.469H121.957C120.047 136.469 118.63 134.92 118.805 133.012L120.448 114.206C120.614 112.298 122.299 110.749 124.209 110.749Z" fill="#058DD1"/>
<path opacity="0.2" d="M224.039 106.732H237.984C240.969 106.732 243.179 109.149 242.912 112.132L241.194 131.77C240.936 134.753 238.3 137.169 235.315 137.169H221.37C218.384 137.169 216.174 134.753 216.441 131.77L218.159 112.132C218.418 109.149 221.053 106.732 224.039 106.732Z" fill="black"/>
<path opacity="0.2" d="M221.178 139.361H235.123C238.108 139.361 240.318 141.777 240.052 144.76L238.334 164.398C238.075 167.381 235.44 169.798 232.454 169.798H218.509C215.524 169.798 213.314 167.381 213.58 164.398L215.298 144.76C215.557 141.777 218.192 139.361 221.178 139.361Z" fill="black"/>
<path d="M149.237 69.9136H226.933C237.733 69.9136 245.715 78.6538 244.772 89.4438L228.192 278.722C227.25 289.511 217.725 298.252 206.934 298.252H129.238C118.438 298.252 110.456 289.511 111.399 278.722L127.97 89.4438C128.913 78.6538 138.437 69.9136 149.229 69.9136H149.237Z" fill="#058DD1"/>
<path opacity="0.2" d="M149.237 69.9136H226.933C237.733 69.9136 245.715 78.6538 244.772 89.4438L228.192 278.722C227.25 289.511 217.725 298.252 206.934 298.252H129.238C118.438 298.252 110.456 289.511 111.399 278.722L127.97 89.4438C128.913 78.6538 138.437 69.9136 149.229 69.9136H149.237Z" fill="black"/>
<path d="M146.727 69.9136H224.423C235.223 69.9136 243.204 78.6538 242.262 89.4438L225.69 278.722C224.748 289.511 215.224 298.252 204.432 298.252H126.736C115.936 298.252 107.954 289.511 108.897 278.722L125.477 89.4438C126.419 78.6538 135.943 69.9136 146.735 69.9136H146.727Z" fill="#058DD1"/>
<path d="M239.935 89.4438L223.363 278.713C222.529 288.212 214.148 295.919 204.64 295.919H126.945C117.437 295.919 110.398 288.22 111.232 278.713L127.804 89.4438C128.638 79.9454 137.019 72.2383 146.527 72.2383H224.222C233.73 72.2383 240.769 79.937 239.935 89.4438Z" fill="white"/>
<g opacity="0.1">
<path d="M126.936 295.919H156.393L203.981 72.2466H166.451L119.263 294.027C121.507 295.236 124.109 295.927 126.936 295.927V295.919Z" fill="black"/>
<path d="M221.995 72.2466H214.856L167.26 295.919H174.407L221.995 72.2466Z" fill="black"/>
</g>
<path d="M162.598 71.6885C162.34 74.7297 164.591 77.1876 167.635 77.2043H202.246C205.291 77.1959 207.968 74.7297 208.243 71.6885H162.598Z" fill="#058DD1"/>
<path d="M222.813 78.3374H230.669C231.328 78.3374 231.812 78.8707 231.753 79.5205L231.453 82.945C231.395 83.6032 230.819 84.1281 230.16 84.1281H222.304C221.645 84.1281 221.161 83.5949 221.22 82.945L221.52 79.5205C221.578 78.8623 222.154 78.3374 222.813 78.3374Z" fill="#058DD1"/>
<path d="M138.929 78.3374H149.446C150.188 78.3374 150.73 78.9373 150.672 79.6789L150.397 82.795C150.33 83.5366 149.679 84.1365 148.937 84.1365H138.42C137.678 84.1365 137.136 83.5366 137.194 82.795L137.47 79.6789C137.536 78.9373 138.187 78.3374 138.929 78.3374Z" fill="#058DD1"/>
<path opacity="0.4" d="M138.929 78.3374H149.446C150.188 78.3374 150.73 78.9373 150.672 79.6789L150.397 82.795C150.33 83.5366 149.679 84.1365 148.937 84.1365H138.42C137.678 84.1365 137.136 83.5366 137.194 82.795L137.47 79.6789C137.536 78.9373 138.187 78.3374 138.929 78.3374Z" fill="white"/>
<path d="M220.72 79.3286H221.954C222.196 79.3286 222.371 79.5203 222.354 79.7619L222.096 82.7031C222.071 82.9447 221.862 83.1363 221.62 83.1363H220.386C220.144 83.1363 219.969 82.9447 219.986 82.7031L220.244 79.7619C220.269 79.5203 220.478 79.3286 220.72 79.3286Z" fill="#058DD1"/>
<path d="M229.11 79.3286H230.344C230.586 79.3286 230.761 79.5203 230.744 79.7619L230.486 82.7031C230.461 82.9447 230.252 83.1363 230.01 83.1363H228.776C228.534 83.1363 228.359 82.9447 228.376 82.7031L228.634 79.7619C228.659 79.5203 228.868 79.3286 229.11 79.3286Z" fill="white"/>
<path d="M226.449 79.3286H227.683C227.925 79.3286 228.1 79.5203 228.084 79.7619L227.825 82.7031C227.8 82.9447 227.592 83.1363 227.35 83.1363H226.116C225.874 83.1363 225.699 82.9447 225.715 82.7031L225.974 79.7619C225.999 79.5203 226.207 79.3286 226.449 79.3286Z" fill="white"/>
<path d="M240.41 131.637L238.717 150.992C240.344 150.692 241.686 149.284 241.836 147.601L242.937 135.036C243.087 133.345 241.995 131.945 240.419 131.645L240.41 131.637Z" fill="#058DD1"/>
<path opacity="0.2" d="M240.41 131.637L238.717 150.992C240.344 150.692 241.686 149.284 241.836 147.601L242.937 135.036C243.087 133.345 241.995 131.945 240.419 131.645L240.41 131.637Z" fill="black"/>
<path d="M242.237 110.749L240.544 130.104C242.17 129.804 243.513 128.396 243.663 126.713L244.764 114.148C244.914 112.457 243.821 111.057 242.245 110.757L242.237 110.749Z" fill="#058DD1"/>
<path opacity="0.2" d="M242.237 110.749L240.544 130.104C242.17 129.804 243.513 128.396 243.663 126.713L244.764 114.148C244.914 112.457 243.821 111.057 242.245 110.757L242.237 110.749Z" fill="black"/>
<path d="M195.108 85.5444H169.12C164.775 85.5444 160.939 89.0689 160.555 93.4098L159.212 108.782C158.829 113.123 162.048 116.648 166.393 116.648H173.824L173.298 122.63C173.165 124.113 174.9 124.855 176.042 123.805L183.832 116.648H192.372C196.717 116.648 200.554 113.123 200.937 108.782L202.28 93.4098C202.664 89.0689 199.444 85.5444 195.099 85.5444H195.108Z" fill="#058DD1"/>
<path d="M187.335 92.8847H174.858C174.825 91.8515 174.808 91.3349 174.775 90.3018H167.911C168.003 90.8933 168.053 91.185 168.144 91.7765H173.098C173.123 92.2181 173.14 92.4431 173.173 92.8847C173.315 95.0677 173.382 96.1591 173.524 98.3421C173.565 98.9337 173.582 99.2253 173.615 99.8169C173.757 102 173.824 103.091 173.966 105.274C174.041 106.441 174.082 107.024 174.158 108.191H187.852C188.044 107.599 188.135 107.307 188.319 106.716H175.283C175.267 106.141 175.258 105.849 175.242 105.274H189.42C190.154 103.091 190.512 102 191.246 99.8169C191.446 99.2253 191.538 98.9337 191.738 98.3421C192.472 96.1591 192.831 95.0677 193.565 92.8847H187.326H187.335ZM174.908 94.3594H179.328C179.237 95.9508 179.195 96.7507 179.103 98.3421H175.042C174.992 96.7507 174.967 95.9508 174.916 94.3594H174.908ZM175.208 103.8C175.158 102.208 175.133 101.408 175.083 99.8169H179.02C178.928 101.408 178.886 102.208 178.795 103.8H175.217H175.208ZM183.69 103.8H180.112C180.254 102.208 180.329 101.408 180.471 99.8169H184.407C184.124 101.408 183.982 102.208 183.69 103.8ZM184.666 98.3421H180.596C180.738 96.7507 180.813 95.9508 180.955 94.3594H185.375C185.091 95.9508 184.95 96.7507 184.658 98.3421H184.666ZM188.594 103.8H185.016C185.358 102.208 185.525 101.408 185.859 99.8169H189.795C189.311 101.408 189.078 102.208 188.594 103.8ZM190.237 98.3421H186.175C186.517 96.7507 186.684 95.9508 187.018 94.3594H191.438C190.954 95.9508 190.721 96.7507 190.237 98.3421Z" fill="white"/>
<path d="M174.9 109.574C173.932 109.574 173.082 110.357 172.99 111.323C172.907 112.29 173.624 113.073 174.591 113.073C175.559 113.073 176.409 112.29 176.501 111.323C176.585 110.357 175.867 109.574 174.9 109.574Z" fill="white"/>
<path d="M187.351 109.574C186.384 109.574 185.533 110.357 185.442 111.323C185.358 112.29 186.075 113.073 187.043 113.073C188.01 113.073 188.861 112.29 188.953 111.323C189.036 110.357 188.319 109.574 187.351 109.574Z" fill="white"/>
<path d="M213.781 194.327H184.065V224.014H213.781V194.327Z" fill="#058DD1"/>
<path d="M232.02 194.327H213.772V224.014H232.02V194.327Z" fill="#058DD1"/>
<path d="M208.101 186.878H178.386L184.065 194.327H213.772L208.101 186.878Z" fill="#058DD1"/>
<path opacity="0.3" d="M232.02 194.327H213.772V224.014H232.02V194.327Z" fill="white"/>
<path opacity="0.4" d="M208.101 186.878H178.386L184.065 194.327H213.772L208.101 186.878Z" fill="white"/>
<path d="M219.152 186.878H237.4L232.029 194.327H213.772L219.152 186.878Z" fill="#058DD1"/>
<path opacity="0.6" d="M213.781 194.327H184.065V224.014H213.781V194.327Z" fill="white"/>
<path opacity="0.2" d="M219.152 186.878H237.4L232.029 194.327H213.772L219.152 186.878Z" fill="white"/>
<path d="M297.389 223.272H222.496V298.094H297.389V223.272Z" fill="#058DD1"/>
<path opacity="0.4" d="M297.389 223.272H222.496V298.094H297.389V223.272Z" fill="white"/>
<path d="M222.479 223.272H176.476V298.094H222.479V223.272Z" fill="#058DD1"/>
<path opacity="0.6" d="M222.479 223.272H176.476V298.094H222.479V223.272Z" fill="white"/>
<path opacity="0.5" d="M190.687 223.272V243.369L192.514 244.336L194.09 243.019L196.584 244.336L198.952 243.019L200.787 244.336L202.889 243.019L204.081 244.094V223.272H190.687Z" fill="white"/>
<path opacity="0.5" d="M204.081 298.094V277.997L202.255 277.039L200.679 278.347L198.185 277.039L195.816 278.347L193.982 277.039L191.88 278.347L190.687 277.272V298.094H204.081Z" fill="white"/>
<path d="M253.045 253.784C253.471 255.492 253.679 256.351 254.105 258.059C254.221 258.525 254.28 258.75 254.388 259.217C254.814 260.925 255.022 261.783 255.447 263.491H266.556C266.506 263.941 266.473 264.166 266.423 264.616H256.206C256.315 265.074 256.365 265.308 256.473 265.774H267.207C267.349 264.858 267.415 264.399 267.557 263.491C267.816 261.783 267.949 260.925 268.208 259.217C268.274 258.759 268.316 258.525 268.383 258.059C268.641 256.351 268.775 255.492 269.033 253.784C269.083 253.434 269.108 253.268 269.167 252.918H273.045C273.162 252.46 273.22 252.226 273.328 251.76H267.949C267.849 252.568 267.807 252.976 267.707 253.784H253.037H253.045ZM267.207 258.059H264.021C264.063 256.809 264.079 256.184 264.113 254.943H267.574C267.424 256.192 267.349 256.817 267.198 258.059H267.207ZM263.887 262.333C263.929 261.083 263.946 260.458 263.979 259.209H267.065C266.915 260.458 266.84 261.083 266.69 262.333H263.887ZM259.759 259.209H262.845C262.845 260.458 262.845 261.083 262.853 262.333H260.051C259.934 261.083 259.876 260.458 259.767 259.209H259.759ZM259.367 254.934H262.837C262.837 256.184 262.837 256.809 262.845 258.05H259.659C259.542 256.801 259.484 256.176 259.376 254.934H259.367ZM255.531 259.209H258.617C258.775 260.458 258.85 261.083 259.009 262.333H256.206C255.939 261.083 255.806 260.458 255.539 259.209H255.531ZM254.613 254.934H258.074C258.233 256.184 258.308 256.809 258.466 258.05H255.281C255.014 256.801 254.88 256.176 254.613 254.934Z" fill="white"/>
<path d="M266.54 269.615C267.3 269.615 267.916 269 267.916 268.24C267.916 267.481 267.3 266.866 266.54 266.866C265.78 266.866 265.164 267.481 265.164 268.24C265.164 269 265.78 269.615 266.54 269.615Z" fill="white"/>
<path d="M256.773 269.615C257.533 269.615 258.149 269 258.149 268.24C258.149 267.481 257.533 266.866 256.773 266.866C256.013 266.866 255.397 267.481 255.397 268.24C255.397 269 256.013 269.615 256.773 269.615Z" fill="white"/>
<g opacity="0.5">
<path d="M189.336 253.784C189.761 255.492 189.97 256.351 190.395 258.059C190.512 258.525 190.57 258.75 190.679 259.217C191.104 260.925 191.313 261.783 191.738 263.491H202.847C202.797 263.941 202.763 264.166 202.713 264.616H192.497C192.605 265.074 192.655 265.308 192.764 265.774H203.497C203.639 264.858 203.706 264.399 203.848 263.491C204.106 261.783 204.24 260.925 204.498 259.217C204.565 258.759 204.607 258.525 204.673 258.059C204.932 256.351 205.065 255.492 205.324 253.784C205.374 253.434 205.399 253.268 205.457 252.918H209.335C209.452 252.46 209.51 252.226 209.619 251.76H204.24C204.139 252.568 204.098 252.976 203.998 253.784H189.328H189.336ZM203.497 258.059H200.311L200.403 254.943H203.864C203.714 256.192 203.639 256.817 203.489 258.059H203.497ZM200.178 262.333C200.22 261.083 200.236 260.458 200.27 259.209H203.356C203.205 260.458 203.13 261.083 202.98 262.333H200.178ZM196.05 259.209H199.135C199.135 260.458 199.135 261.083 199.144 262.333H196.342C196.225 261.083 196.166 260.458 196.058 259.209H196.05ZM195.658 254.934H199.127C199.127 256.184 199.127 256.809 199.135 258.05H195.95C195.833 256.801 195.774 256.176 195.666 254.934H195.658ZM191.821 259.209H194.907C195.066 260.458 195.141 261.083 195.299 262.333H192.497C192.23 261.083 192.097 260.458 191.83 259.209H191.821ZM190.904 254.934H194.365C194.523 256.184 194.599 256.809 194.757 258.05H191.571C191.304 256.801 191.171 256.176 190.904 254.934Z" fill="white"/>
<path d="M202.83 269.615C203.59 269.615 204.206 269 204.206 268.24C204.206 267.481 203.59 266.866 202.83 266.866C202.07 266.866 201.454 267.481 201.454 268.24C201.454 269 202.07 269.615 202.83 269.615Z" fill="white"/>
<path d="M193.064 269.615C193.824 269.615 194.44 269 194.44 268.24C194.44 267.481 193.824 266.866 193.064 266.866C192.304 266.866 191.688 267.481 191.688 268.24C191.688 269 192.304 269.615 193.064 269.615Z" fill="white"/>
</g>
<path d="M270.042 163.74C270.042 163.74 272.636 182.396 274.971 185.612C277.306 188.828 287.798 197.726 287.798 197.726L294.428 196.76L298.874 200.959L295.654 203.184L292.11 201.592C292.11 201.592 289.466 201.951 286.088 201.734C282.702 201.526 269.483 192.602 267.04 187.895C264.604 183.195 261.852 165.915 261.852 165.915L270.034 163.732L270.042 163.74Z" fill="#CE7A63"/>
<path d="M272.269 169.131L271.61 169.248C271.151 164.865 269.317 151.542 264.288 154.967C259.459 158.258 260.81 167.59 261.519 171.081L260.718 171.222L261.452 173.522L272.569 171.389L272.269 169.114V169.131Z" fill="#058DD1"/>
<path opacity="0.2" d="M268.074 160.316L266.848 157.691L262.995 161.549C262.995 161.549 261.902 163.191 260.793 164.882C260.852 167.373 261.227 169.698 261.502 171.081L260.701 171.223L261.435 173.522L267.707 172.322C268.85 165.807 268.066 160.308 268.066 160.308L268.074 160.316Z" fill="black"/>
<path d="M268.458 126.846C268.458 126.846 281.718 129.704 274.671 136.003L268.85 130.912L268.458 126.855V126.846Z" fill="#263238"/>
<path d="M286.864 266.732L278.424 287.387L272.569 285.113L277.29 264.583L286.864 266.732Z" fill="#CE7A63"/>
<path opacity="0.2" d="M277.707 263.125L274.379 277.597L281.593 279.205L287.281 265.266L277.707 263.125Z" fill="black"/>
<path d="M279.775 286.904C280.851 289.337 281.577 291.353 285.972 293.953C286.931 294.503 285.313 297.036 282.919 295.961C278.966 294.178 280 294.144 276.606 292.678C273.762 291.428 271.652 290.662 269.325 289.703C269.267 289.678 269.208 289.645 269.158 289.603C269.158 289.603 269.15 289.603 269.142 289.595C268.733 289.287 268.65 288.704 268.958 288.295L272.378 283.621C272.528 283.404 272.811 283.329 273.053 283.429L278.591 285.812C279.1 286.021 279.517 286.404 279.767 286.895L279.775 286.904Z" fill="#263238"/>
<path d="M305.754 218.19C304.678 231.53 285.513 275.589 285.513 275.589L274.137 272.423C274.137 272.423 282.827 230.088 288.499 223.081C288.499 223.081 286.647 223.114 283.67 223.139C273.303 223.231 249.276 223.214 242.345 221.373C237.399 220.056 227.066 217.415 229.793 200.884L242.604 200.443L257.524 199.926C257.524 199.926 307.23 199.968 305.754 218.19Z" fill="#263238"/>
<path opacity="0.2" d="M283.67 223.139C273.303 223.231 249.276 223.214 242.345 221.373C237.399 220.056 227.066 217.415 229.793 200.884L242.604 200.443C252.687 201.634 265.864 203.626 274.846 207.483C279.216 209.358 282.252 212.741 283.144 216.724C283.403 217.89 283.595 220.698 283.67 223.139Z" fill="black"/>
<path d="M267.082 265.999L262.862 287.054L256.515 286.754L257.265 265.699L267.082 265.999Z" fill="#CE7A63"/>
<path opacity="0.2" d="M267.082 265.999L257.265 265.699L256.832 278.297L264.563 278.563L267.082 265.999Z" fill="black"/>
<path d="M263.829 287.554C264.863 290.078 265.539 292.153 269.942 294.936C270.893 295.553 269.167 298.094 266.773 296.911C262.803 294.969 263.854 294.978 260.451 293.37C257.574 292.011 255.447 291.162 253.12 290.112L252.937 290.02C252.52 289.695 252.445 289.095 252.77 288.679L256.398 284.004C256.565 283.796 256.848 283.721 257.09 283.838L262.645 286.429C263.162 286.637 263.587 287.037 263.829 287.545V287.554Z" fill="#263238"/>
<path d="M222.346 200.868C222.346 200.868 218.726 213.891 224.714 219.031C233.096 226.23 263.379 224.039 263.379 224.039C258.149 240.77 255.814 273.989 255.814 273.989H267.165C267.165 273.989 282.627 228.547 280.342 216.79C278.057 205.042 237.491 200.884 237.491 200.884L222.338 200.868H222.346Z" fill="#263238"/>
<path d="M273.128 273.739L286.005 276.98L288.632 271.473L274.488 267.465L273.128 273.739Z" fill="#058DD1"/>
<path d="M254.688 275.564L267.824 276.239L269.183 270.465L254.688 269.79V275.564Z" fill="#058DD1"/>
<path d="M260.71 182.837C264.012 173.014 268.224 165.54 268.691 157.167C257.274 140.703 234.947 150.434 234.947 150.434C221.437 175.755 222.337 200.868 222.337 200.868C253.037 200.868 254.797 200.343 254.797 200.343C254.797 200.343 254.913 196.002 260.71 182.837Z" fill="#058DD1"/>
<path opacity="0.2" d="M250.402 149.951C250.894 152.842 251.919 158.083 253.137 158.841C254.83 159.858 257.324 158.433 257.324 158.433C257.324 158.433 259.35 161.174 261.51 159.35C262.711 158.2 263.654 156.8 264.263 155.25C263.629 156.325 262.837 157.292 261.902 158.117C259.734 159.933 257.707 157.208 257.707 157.208C257.707 157.208 255.205 158.616 253.521 157.617C252.428 156.958 251.144 152.809 250.402 149.959V149.951Z" fill="black"/>
<path d="M253.154 145.952L256.206 146.993L253.813 149.076L253.154 145.952Z" fill="#058DD1"/>
<path opacity="0.2" d="M253.154 145.952L256.206 146.993L253.813 149.076L253.154 145.952Z" fill="black"/>
<path d="M262.828 149.084L263.671 151.542C263.671 151.542 259.317 156.092 258.066 156.142C256.815 156.192 253.146 147.585 253.146 147.585C257.991 145.393 257.541 142.985 257.541 142.985L262.82 149.084H262.828Z" fill="#CE7A63"/>
<path opacity="0.2" d="M261.244 153.909C262.528 152.734 263.671 151.542 263.671 151.542L262.828 149.084L258.116 143.644C257.516 146.01 256.915 150.967 261.244 153.909Z" fill="black"/>
<path d="M265.314 153.309C264.53 155.142 263.362 156.792 261.902 158.15C259.734 159.966 257.707 157.242 257.707 157.242C257.707 157.242 255.214 158.65 253.529 157.65C251.844 156.65 249.726 147.426 249.726 147.426L253.154 145.952L257.874 155.917L264.238 150.659L265.314 153.317V153.309Z" fill="#058DD1"/>
<path d="M257.365 134.579C257.365 133.104 257.741 131.646 258.475 130.363C260.785 126.313 265.939 124.897 269.992 127.205C276.039 130.471 276.205 139.986 274.412 145.56C273.929 147.185 272.953 148.618 271.627 149.676C268.024 152.551 262.77 151.967 259.892 148.368C256.915 144.719 257.307 140.978 257.382 134.554L257.365 134.57V134.579Z" fill="#CE7A63"/>
<path d="M268.641 138.561C268.992 138.586 269.2 139.069 269.117 139.577C269.033 140.086 268.716 140.436 268.374 140.394C268.032 140.361 267.816 139.886 267.899 139.377C267.974 138.861 268.291 138.528 268.641 138.561Z" fill="#263238"/>
<path d="M274.421 139.644C274.771 139.678 274.988 140.136 274.905 140.661C274.821 141.178 274.504 141.519 274.154 141.478C273.804 141.444 273.603 140.978 273.679 140.461C273.762 139.953 274.07 139.603 274.421 139.644Z" fill="#263238"/>
<path d="M267.09 137.345C267.69 136.878 268.491 136.728 269.217 136.945C269.217 136.945 269.217 136.945 269.225 136.945C269.383 136.995 269.55 136.911 269.6 136.761C269.65 136.603 269.567 136.436 269.417 136.378C268.474 136.086 267.449 136.286 266.673 136.911C266.548 137.02 266.531 137.203 266.631 137.328C266.673 137.361 266.715 137.378 266.765 137.395C266.873 137.445 266.99 137.428 267.073 137.345H267.09Z" fill="#263238"/>
<path d="M275.88 138.969C276.022 138.878 276.064 138.694 275.98 138.553C275.505 137.686 274.638 137.103 273.654 136.97C273.52 136.97 273.412 137.07 273.378 137.195C273.337 137.361 273.445 137.528 273.604 137.561C274.396 137.686 275.088 138.17 275.463 138.878C275.513 138.961 275.605 139.019 275.705 139.028C275.772 139.028 275.83 138.994 275.872 138.953L275.88 138.969Z" fill="#263238"/>
<path d="M270.993 145.327C271.794 145.694 272.711 145.694 273.512 145.327C272.736 143.777 272.177 142.127 271.827 140.436L270.985 145.335L270.993 145.327Z" fill="#BA4D3C"/>
<path d="M256.965 138.736C254.472 129.646 258.508 127.28 262.878 125.655C267.248 124.03 269.667 125.588 271.068 127.121C271.502 127.596 272.369 129.054 269.567 129.246C267.866 129.313 266.164 129.179 264.496 128.854C263.821 128.729 263.128 129.004 262.72 129.554C261.752 130.812 260.184 133.179 260.201 135.253C260.326 136.845 259.734 138.411 258.583 139.519L256.957 138.736H256.965Z" fill="#263238"/>
<path d="M253.813 184.379H253.821C254.43 184.379 254.922 184.879 254.914 185.487C254.905 186.095 254.413 186.587 253.804 186.579C253.196 186.579 252.703 186.079 252.712 185.47C252.712 184.862 253.212 184.379 253.813 184.379Z" fill="#058DD1"/>
<path d="M251.411 196.002H251.427C252.036 196.002 252.528 196.502 252.52 197.11C252.52 197.718 252.02 198.21 251.411 198.202C250.802 198.202 250.31 197.702 250.318 197.093C250.318 196.494 250.81 196.002 251.411 196.002Z" fill="#058DD1"/>
<path d="M257.032 136.662C258.792 136.987 259.642 139.478 259.659 141.111C259.676 142.869 258.408 144.185 256.848 143.136C255.664 142.319 254.83 141.094 254.521 139.686C254.18 137.953 255.272 136.337 257.032 136.662Z" fill="#CE7A63"/>
<path d="M265.105 145.235C265.105 145.235 266.673 145.56 270.651 147.393C269.634 148.376 268.316 148.951 266.281 147.993C264.254 147.035 265.105 145.235 265.105 145.235Z" fill="#263238"/>
<path d="M267.665 147.485C266.689 147.018 265.872 146.918 265.18 147.043C265.372 147.385 265.722 147.718 266.289 147.993C267.265 148.451 268.074 148.559 268.774 148.434C268.583 148.093 268.241 147.76 267.674 147.493L267.665 147.485Z" fill="#A02724"/>
<path d="M265.305 145.276C265.305 145.585 265.297 145.893 265.655 146.16C266.456 146.601 268.691 147.343 269.316 147.484C269.708 147.593 270.075 147.609 270.484 147.309C267.415 145.901 265.822 145.418 265.305 145.276Z" fill="white"/>
<path d="M271.686 206.408L286.781 206.49L286.794 204.065L271.699 203.984L271.686 206.408Z" fill="#263238"/>
<path d="M272.936 206.41L253.729 206.306C253.104 206.302 252.598 205.791 252.601 205.167L252.608 203.883L272.949 203.993L272.936 206.418L272.936 206.41Z" fill="#263238"/>
<path opacity="0.3" d="M272.936 206.41L253.729 206.306C253.104 206.302 252.598 205.791 252.601 205.167L252.608 203.883L272.949 203.993L272.936 206.418L272.936 206.41Z" fill="white"/>
<path d="M267.461 205.608L269.888 205.621L269.893 204.763L267.466 204.75L267.461 205.608Z" fill="#263238"/>
<path d="M263.674 205.595L266.101 205.608L266.106 204.75L263.679 204.737L263.674 205.595Z" fill="#263238"/>
<path d="M275.813 204.026L274.204 204.017L280.626 182.163L282.235 182.171L275.813 204.026Z" fill="#263238"/>
<path opacity="0.3" d="M275.813 204.026L274.204 204.017L280.626 182.163L282.235 182.171L275.813 204.026Z" fill="white"/>
<path d="M275.221 204.026L303.552 204.176L309.974 182.321L281.643 182.171L275.221 204.026Z" fill="#263238"/>
<path opacity="0.6" d="M275.221 204.026L303.552 204.176L309.974 182.321L281.643 182.171L275.221 204.026Z" fill="white"/>
<path d="M273.837 204.018C274.145 204.018 303.019 204.176 303.327 204.176C303.828 204.176 304.228 204.726 304.22 205.392C304.22 206.059 303.811 206.6 303.31 206.6C302.81 206.6 274.312 206.442 273.82 206.442C273.32 206.442 272.92 205.892 272.928 205.226C272.928 204.559 273.337 204.018 273.837 204.018Z" fill="#263238"/>
<path opacity="0.5" d="M273.837 204.018C274.145 204.018 303.019 204.176 303.327 204.176C303.828 204.176 304.228 204.726 304.22 205.392C304.22 206.059 303.811 206.6 303.31 206.6C302.81 206.6 274.312 206.442 273.82 206.442C273.32 206.442 272.92 205.892 272.928 205.226C272.928 204.559 273.337 204.018 273.837 204.018Z" fill="white"/>
<path d="M272.928 205.226C272.928 205.892 273.328 206.442 273.82 206.442C274.321 206.442 274.721 205.909 274.729 205.234C274.729 204.567 274.329 204.018 273.837 204.018C273.337 204.018 272.936 204.551 272.928 205.226Z" fill="#263238"/>
<path opacity="0.3" d="M272.928 205.226C272.928 205.892 273.328 206.442 273.82 206.442C274.321 206.442 274.721 205.909 274.729 205.234C274.729 204.567 274.329 204.018 273.837 204.018C273.337 204.018 272.936 204.551 272.928 205.226Z" fill="white"/>
<path opacity="0.2" d="M245.081 183.787C243.721 181.913 242.278 175.005 241.269 169.29L242.579 169.04L242.27 166.673L241.586 166.798C241.119 162.324 239.268 148.901 234.247 151.809C232.787 154.65 231.511 157.492 230.386 160.308C230.21 163.591 230.736 166.898 231.103 168.698L230.277 168.848L231.044 171.239L232.812 170.898C233.88 176.414 235.415 183.387 236.857 186.162C238.742 189.795 246.84 195.86 252.303 198.818C258.416 197.735 259.826 196.969 259.826 196.969C259.826 196.969 259.626 196.727 259.409 196.219L258.425 196.36C258.425 196.36 247.524 187.112 245.097 183.779L245.081 183.787Z" fill="black"/>
<path d="M243.588 161.158C243.588 161.158 245.373 180.638 247.641 184.079C249.91 187.528 260.36 197.269 260.36 197.269L267.282 196.594L271.685 201.168L268.241 203.318L264.638 201.493C264.638 201.493 261.877 201.735 258.383 201.351C254.889 200.968 241.603 191.07 239.301 186.07C236.999 181.071 234.989 163.016 234.989 163.016L243.588 161.149V161.158Z" fill="#CE7A63"/>
<path d="M245.139 165.365L244.455 165.49C243.98 160.941 242.07 147.102 236.849 150.659C231.837 154.075 233.238 163.774 233.972 167.398L233.146 167.548L233.905 169.939L245.448 167.732L245.139 165.365Z" fill="#058DD1"/>
<path d="M305.012 154.917H288.632C285.888 154.917 283.67 157.133 283.67 159.875V169.565C283.67 172.306 285.888 174.522 288.632 174.522H293.319V178.288C293.319 179.221 294.454 179.696 295.112 179.03L299.633 174.514H305.012C307.756 174.514 309.974 172.298 309.974 169.556V159.866C309.974 157.125 307.756 154.909 305.012 154.909V154.917Z" fill="#058DD1"/>
<path d="M301.05 159.541H293.186C293.111 158.891 293.069 158.566 292.994 157.917H288.666C288.757 158.291 288.807 158.475 288.899 158.85H292.018C292.06 159.125 292.085 159.266 292.127 159.55C292.335 160.924 292.444 161.616 292.652 162.991C292.71 163.366 292.735 163.549 292.794 163.924C293.002 165.299 293.111 165.99 293.319 167.365C293.428 168.098 293.486 168.465 293.603 169.198H302.235C302.318 168.823 302.36 168.64 302.452 168.265H294.237C294.195 167.898 294.17 167.723 294.128 167.357H303.06C303.402 165.982 303.569 165.29 303.911 163.916C304.003 163.541 304.053 163.357 304.145 162.982C304.487 161.608 304.653 160.916 304.995 159.541H301.067H301.05ZM293.303 160.474H296.088C296.121 161.474 296.13 161.983 296.163 162.982H293.603C293.486 161.983 293.419 161.474 293.303 160.474ZM294.011 166.423C293.895 165.424 293.828 164.915 293.711 163.916H296.188C296.222 164.915 296.23 165.424 296.263 166.423H294.011ZM299.357 166.423H297.106C297.106 165.424 297.106 164.915 297.106 163.916H299.583C299.491 164.915 299.441 165.424 299.349 166.423H299.357ZM299.674 162.982H297.114C297.114 161.983 297.114 161.474 297.114 160.474H299.9C299.808 161.474 299.758 161.983 299.666 162.982H299.674ZM302.452 166.423H300.2C300.325 165.424 300.392 164.915 300.517 163.916H302.994C302.777 164.915 302.668 165.424 302.46 166.423H302.452ZM303.185 162.982H300.625C300.75 161.983 300.817 161.474 300.942 160.474H303.728C303.511 161.474 303.402 161.983 303.194 162.982H303.185Z" fill="white"/>
<path d="M294.128 170.056C293.519 170.056 293.027 170.548 293.027 171.156C293.027 171.764 293.519 172.256 294.128 172.256C294.737 172.256 295.229 171.764 295.229 171.156C295.229 170.548 294.737 170.056 294.128 170.056Z" fill="white"/>
<path d="M301.985 172.264C302.593 172.264 303.085 171.772 303.085 171.164C303.085 170.557 302.593 170.064 301.985 170.064C301.377 170.064 300.884 170.557 300.884 171.164C300.884 171.772 301.377 172.264 301.985 172.264Z" fill="white"/>
<path d="M76.4374 232.129L74.4441 232.021L74.9195 222.989C75.2447 216.84 80.5073 211.841 86.6622 211.841C89.6646 211.841 92.4251 213.007 94.4434 215.132C96.4617 217.257 97.4875 220.089 97.3374 223.089L96.862 232.121L94.8688 232.013L95.3441 222.981C95.4692 220.531 94.6436 218.231 93.0006 216.507C91.366 214.782 89.1142 213.832 86.6705 213.832C81.5665 213.832 77.188 217.981 76.9211 223.089L76.4457 232.121L76.4374 232.129Z" fill="#263238"/>
<path d="M119.196 228.113H60.2577L58.2561 297.977L66.9964 295.986L75.7367 297.977H121.198L119.196 228.113Z" fill="#058DD1"/>
<path opacity="0.6" d="M119.196 228.113H60.2577L58.2561 297.977L66.9964 295.986L75.7367 297.977H121.198L119.196 228.113Z" fill="white"/>
<path d="M75.7367 297.977L66.9964 295.986L58.2561 297.977L60.2577 228.113H73.7435L75.7367 297.977Z" fill="#058DD1"/>
<path opacity="0.3" d="M75.7367 297.977L66.9964 295.986L58.2561 297.977L60.2577 228.113H73.7435L75.7367 297.977Z" fill="white"/>
<path d="M106.72 232.129L106.245 223.097C105.978 217.998 101.608 213.84 96.4951 213.84C94.0515 213.84 91.7997 214.79 90.165 216.515C88.522 218.24 87.6964 220.539 87.8215 222.989L88.2969 232.021L86.3036 232.129L85.8282 223.097C85.6698 220.098 86.6956 217.265 88.7222 215.14C90.7405 213.016 93.501 211.849 96.5034 211.849C102.658 211.849 107.921 216.848 108.246 222.997L108.722 232.029L106.728 232.138L106.72 232.129Z" fill="#263238"/>
<g opacity="0.2">
<path d="M106.72 232.129L106.245 223.097C105.978 217.998 101.608 213.84 96.4951 213.84C94.0515 213.84 91.7997 214.79 90.165 216.515C88.522 218.24 87.6964 220.539 87.8215 222.989L88.2969 232.021L86.3036 232.129L85.8282 223.097C85.6698 220.098 86.6956 217.265 88.7222 215.14C90.7405 213.016 93.501 211.849 96.5034 211.849C102.658 211.849 107.921 216.848 108.246 222.997L108.722 232.029L106.728 232.138L106.72 232.129Z" fill="white"/>
</g>
<path d="M83.8348 253.634H111.232C111.849 253.634 112.349 254.134 112.349 254.751V259.167C112.349 259.783 111.849 260.283 111.232 260.283H83.8348C83.2177 260.283 82.7173 259.783 82.7173 259.167V254.751C82.7173 254.134 83.2177 253.634 83.8348 253.634Z" fill="white"/>
<path d="M49.349 253.842L48.0146 253.776L48.3316 247.718C48.5484 243.602 52.0762 240.245 56.2045 240.245C58.2145 240.245 60.0659 241.028 61.417 242.453C62.7681 243.877 63.4603 245.777 63.3519 247.785L63.035 253.842L61.7006 253.776L62.0175 247.718C62.1009 246.077 61.5421 244.536 60.4496 243.377C59.3487 242.219 57.8475 241.586 56.2045 241.586C52.7851 241.586 49.8494 244.369 49.6743 247.793L49.3574 253.851L49.349 253.842Z" fill="#263238"/>
<path d="M78.0137 251.143H38.4987L37.156 297.977L43.019 296.644L48.882 297.977H79.3564L78.0137 251.143Z" fill="#058DD1"/>
<path d="M48.882 297.977L43.019 296.644L37.156 297.977L38.4987 251.143H47.5393L48.882 297.977Z" fill="#058DD1"/>
<path opacity="0.2" d="M48.882 297.977L43.019 296.644L37.156 297.977L38.4987 251.143H47.5393L48.882 297.977Z" fill="black"/>
<path d="M69.6486 253.842L69.3317 247.785C69.1566 244.361 66.2209 241.578 62.8015 241.578C61.1585 241.578 59.6573 242.211 58.5564 243.369C57.4556 244.527 56.8968 246.069 56.9885 247.71L57.3054 253.767L55.971 253.834L55.6541 247.777C55.5457 245.76 56.2379 243.869 57.589 242.444C58.9401 241.02 60.7916 240.236 62.8015 240.236C66.9298 240.236 70.4576 243.586 70.6745 247.71L70.9914 253.767L69.657 253.834L69.6486 253.842Z" fill="#263238"/>
<g opacity="0.2">
<path d="M69.6486 253.842L69.3317 247.785C69.1566 244.361 66.2209 241.578 62.8015 241.578C61.1585 241.578 59.6573 242.211 58.5564 243.369C57.4556 244.527 56.8968 246.069 56.9885 247.71L57.3054 253.767L55.971 253.834L55.6541 247.777C55.5457 245.76 56.2379 243.869 57.589 242.444C58.9401 241.02 60.7916 240.236 62.8015 240.236C66.9298 240.236 70.4576 243.586 70.6745 247.71L70.9914 253.767L69.657 253.834L69.6486 253.842Z" fill="white"/>
</g>
<path d="M72.3008 268.257H54.6701C54.0528 268.257 53.5525 268.757 53.5525 269.373V271.598C53.5525 272.215 54.0528 272.714 54.6701 272.714H72.3008C72.918 272.714 73.4184 272.215 73.4184 271.598V269.373C73.4184 268.757 72.918 268.257 72.3008 268.257Z" fill="white"/>
<path d="M110.181 293.411L103.834 292.744L104.151 277.938L110.498 278.597L110.181 293.411Z" fill="#B55B52"/>
<path d="M163.874 272.156L158.194 275.056L149.654 262.824L155.342 259.933L163.874 272.156Z" fill="#B55B52"/>
<path d="M157.01 274.264L162.848 270.107C163.057 269.957 163.34 269.982 163.516 270.165L167.477 274.306C167.886 274.739 167.802 275.481 167.302 275.822C165.242 277.239 164.174 277.814 161.606 279.647C160.029 280.772 157.836 282.58 155.659 284.138C153.524 285.654 151.823 283.621 152.59 282.78C156.035 279.005 155.818 277.339 156.368 275.214C156.468 274.831 156.702 274.498 157.01 274.273V274.264Z" fill="#263238"/>
<path d="M103.292 291.945L110.423 292.686C110.682 292.711 110.873 292.911 110.882 293.17L111.107 298.894C111.132 299.485 110.565 299.985 109.973 299.919C107.487 299.619 106.311 299.344 103.176 299.019C101.249 298.819 95.6863 298.435 93.0175 298.16C90.4154 297.886 90.4905 295.236 91.6247 295.111C96.7121 294.561 100.373 293.453 102.192 292.22C102.517 291.995 102.917 291.903 103.292 291.945Z" fill="#263238"/>
<g opacity="0.2">
<path d="M104.151 277.938L103.985 285.571L110.331 286.237L110.498 278.605L104.151 277.938Z" fill="black"/>
<path d="M155.342 259.933L149.655 262.833L154.058 269.132L159.746 266.232L155.342 259.933Z" fill="black"/>
</g>
<path d="M107.187 149.959C107.187 149.959 100.607 198.885 100.407 218.332C100.206 238.562 102.775 283.963 102.775 283.963L111.357 284.863C111.357 284.863 114.835 240.203 116.228 220.373C117.745 198.76 126.152 150.551 126.152 150.551L107.179 149.951L107.187 149.959Z" fill="#263238"/>
<path d="M112.074 285.246L102 284.196L101.599 280.913L112.917 281.696L112.074 285.246Z" fill="#058DD1"/>
<path opacity="0.6" d="M117.979 162.524C111.215 175.114 115.56 198.601 117.537 207.35C119.105 194.352 121.548 178.48 123.433 166.832C122.674 160.183 121.098 156.725 117.979 162.532V162.524Z" fill="black"/>
<path d="M114.026 150.176C114.026 150.176 118.279 201.393 122.199 217.915C126.844 237.528 152.015 268.515 152.015 268.515L159.771 264.566C159.771 264.566 142.715 230.138 139.021 219.765C131.123 197.626 139.505 165.265 133.091 150.776L114.026 150.176Z" fill="#263238"/>
<path d="M160.872 264.524L151.247 269.415L148.687 266.916L159.746 260.65L160.872 264.524Z" fill="#058DD1"/>
<path d="M154.767 276.88C154.767 276.88 154.717 276.88 154.692 276.88C154.408 276.847 154.183 276.672 154.025 276.372C153.908 276.147 153.958 275.964 154.025 275.856C154.433 275.156 156.735 275.047 157.002 275.031C157.069 275.031 157.119 275.064 157.144 275.114C157.169 275.172 157.16 275.231 157.119 275.281C156.577 275.897 155.568 276.914 154.775 276.889L154.767 276.88ZM156.635 275.347C155.718 275.414 154.492 275.631 154.275 275.997C154.25 276.047 154.225 276.114 154.283 276.222C154.392 276.431 154.533 276.547 154.725 276.572C155.159 276.622 155.859 276.172 156.635 275.347Z" fill="#058DD1"/>
<path d="M156.785 275.331C155.993 275.306 154.55 274.881 154.283 274.281C154.225 274.156 154.175 273.897 154.45 273.639C154.625 273.473 154.842 273.406 155.084 273.431C156.009 273.531 157.077 275.014 157.127 275.081C157.16 275.122 157.16 275.181 157.144 275.231C157.119 275.281 157.077 275.314 157.019 275.322C156.952 275.322 156.868 275.331 156.785 275.322V275.331ZM155.009 273.731C154.875 273.731 154.758 273.772 154.65 273.864C154.508 273.997 154.525 274.089 154.55 274.156C154.733 274.564 155.926 274.981 156.702 275.022C156.318 274.547 155.601 273.789 155.05 273.731C155.034 273.731 155.017 273.731 155 273.731H155.009Z" fill="#058DD1"/>
<path d="M100.799 292.811C100.165 292.745 99.5977 292.586 99.2975 292.261C99.1056 292.053 99.0472 291.795 99.1056 291.503C99.139 291.328 99.2391 291.195 99.4059 291.128C100.232 290.786 102.625 292.336 102.892 292.52C102.942 292.553 102.967 292.62 102.959 292.686C102.942 292.745 102.892 292.795 102.825 292.803C102.275 292.853 101.499 292.894 100.807 292.82L100.799 292.811ZM99.8062 291.378C99.6894 291.37 99.5893 291.378 99.5226 291.403C99.4559 291.428 99.4225 291.478 99.4059 291.553C99.3642 291.753 99.4059 291.92 99.531 292.053C99.8812 292.436 100.915 292.611 102.35 292.52C101.524 292.011 100.415 291.436 99.8145 291.378H99.8062Z" fill="#058DD1"/>
<path d="M102.784 292.786C102.784 292.786 102.742 292.778 102.725 292.77C102.008 292.353 100.649 290.828 100.84 290.12C100.882 289.953 101.032 289.753 101.449 289.753C101.758 289.753 102.033 289.87 102.258 290.103C102.984 290.853 102.959 292.57 102.95 292.645C102.95 292.695 102.917 292.745 102.875 292.77C102.85 292.786 102.817 292.795 102.784 292.786ZM101.541 290.062C101.541 290.062 101.483 290.062 101.449 290.062C101.174 290.062 101.141 290.17 101.132 290.203C101.016 290.628 101.916 291.811 102.642 292.353C102.617 291.845 102.517 290.803 102.041 290.312C101.9 290.162 101.733 290.078 101.541 290.062Z" fill="#058DD1"/>
<path d="M104.452 123.939C102.041 127.122 99.5144 129.963 96.5453 132.687C95.0608 134.045 93.4845 135.345 91.558 136.495C90.5906 137.062 89.5314 137.62 88.1803 137.995C87.5048 138.178 86.7375 138.32 85.8534 138.311C85.4198 138.311 84.9444 138.253 84.469 138.153C84.2271 138.095 83.9853 138.028 83.7518 137.945C83.5016 137.845 83.3264 137.786 82.9595 137.586C82.3173 137.237 81.7919 136.745 81.4499 136.295C81.0996 135.845 80.8578 135.395 80.691 135.004C80.349 134.204 80.2156 133.529 80.1155 132.904C79.9404 131.654 79.9487 130.579 79.9904 129.529C80.0905 127.446 80.4241 125.513 80.7911 123.597C81.5583 119.789 82.6259 116.157 83.9269 112.541L87.3797 113.432C86.8793 117.056 86.4289 120.756 86.1537 124.339C86.0119 126.13 85.9452 127.913 86.0202 129.563C86.0536 130.379 86.1453 131.171 86.2955 131.771C86.3705 132.062 86.4623 132.304 86.5123 132.354C86.554 132.437 86.5206 132.179 86.0202 131.862C85.8534 131.779 85.9035 131.796 85.8701 131.779C85.8534 131.771 85.8368 131.762 85.8284 131.754C85.8117 131.737 85.8034 131.737 85.8284 131.721C85.8785 131.704 86.0369 131.671 86.2621 131.587C86.6958 131.421 87.3129 131.096 87.9218 130.679C89.1561 129.838 90.4404 128.705 91.6831 127.513C92.9258 126.313 94.1184 124.997 95.3027 123.664C96.4869 122.347 97.6545 120.914 98.7221 119.598L104.46 123.947L104.452 123.939Z" fill="#B55B52"/>
<path d="M103.059 114.773C100.44 114.057 92.6921 123.939 92.6921 123.939L100.098 132.196C100.098 132.196 108.788 124.364 108.455 120.856C108.113 117.198 106.87 115.832 103.05 114.782L103.059 114.773Z" fill="#058DD1"/>
<path d="M87.4629 112.507L87.171 107.316L82.1587 111.441C82.1587 111.441 82.9176 115.465 85.4447 116.265L87.0042 114.074C87.3295 113.615 87.4879 113.065 87.4546 112.516L87.4629 112.507Z" fill="#B55B52"/>
<path d="M83.9102 103.05L79.907 106.725L82.1588 111.432L87.1711 107.308L83.9102 103.05Z" fill="#B55B52"/>
<path d="M81.8753 113.09L80.7243 112.673C80.0738 112.44 79.6902 111.765 79.8153 111.082L81.575 101.733L84.7359 102.883L83.7684 111.915C83.6684 112.823 82.7426 113.407 81.8836 113.09H81.8753Z" fill="#263238"/>
<path d="M90.2069 101.209C90.407 100.667 90.5905 100.134 90.774 99.6006C90.2819 98.6757 89.2978 97.6842 87.9801 96.7344C87.5631 97.7592 87.1461 98.834 86.7374 99.9422C86.3288 101.05 85.9618 102.142 85.6199 103.2C87.2378 103.317 88.6306 103.192 89.6064 102.8C89.8066 102.275 90.0067 101.75 90.2069 101.209Z" fill="#263238"/>
<path d="M88.1134 100.451C88.6639 98.9341 89.0308 97.5094 89.1726 96.4345L78.806 92.6602L75.9871 100.401L86.362 104.175C86.9375 103.258 87.5713 101.95 88.1218 100.451H88.1134Z" fill="#058DD1"/>
<path opacity="0.6" d="M88.1134 100.451C88.6639 98.9341 89.0308 97.5094 89.1726 96.4345L78.806 92.6602L75.9871 100.401L86.362 104.175C86.9375 103.258 87.5713 101.95 88.1218 100.451H88.1134Z" fill="white"/>
<path d="M81.4999 92.9267C81.0245 92.7517 69.8489 81.2369 68.5729 80.7703C67.2135 80.2704 64.2945 84.8446 62.0594 90.977C59.8242 97.1093 59.1153 102.475 60.4831 102.975C61.7674 103.442 77.7302 101.8 78.2056 101.975C78.7644 102.175 79.9487 100.317 80.8577 97.8175C81.7668 95.3179 82.0587 93.135 81.4999 92.9267Z" fill="#058DD1"/>
<path opacity="0.4" d="M81.4999 92.9267C81.0245 92.7517 69.8489 81.2369 68.5729 80.7703C67.2135 80.2704 64.2945 84.8446 62.0594 90.977C59.8242 97.1093 59.1153 102.475 60.4831 102.975C61.7674 103.442 77.7302 101.8 78.2056 101.975C78.7644 102.175 79.9487 100.317 80.8577 97.8175C81.7668 95.3179 82.0587 93.135 81.4999 92.9267Z" fill="white"/>
<path d="M66.9963 92.7682C64.7612 98.9005 61.8422 103.466 60.4828 102.975C59.1234 102.483 59.8239 97.1092 62.0591 90.9768C64.2942 84.8445 67.2132 80.2785 68.5726 80.7701C69.932 81.2701 69.2315 86.6358 66.9963 92.7682Z" fill="#058DD1"/>
<path d="M63.7024 91.5686C63.5523 91.9769 63.4105 92.3768 63.2771 92.7768C63.7942 93.5267 64.77 94.3515 66.0543 95.1764C66.3796 94.4099 66.6965 93.61 66.9967 92.7684C67.297 91.9352 67.5722 91.1187 67.8224 90.3188C66.3129 90.1272 65.0285 90.1355 64.1528 90.3772C64.0027 90.7688 63.8442 91.1687 63.7024 91.5686Z" fill="#263238"/>
<path opacity="0.7" d="M63.7024 91.5686C63.5523 91.9769 63.4105 92.3768 63.2771 92.7768C63.7942 93.5267 64.77 94.3515 66.0543 95.1764C66.3796 94.4099 66.6965 93.61 66.9967 92.7684C67.297 91.9352 67.5722 91.1187 67.8224 90.3188C66.3129 90.1272 65.0285 90.1355 64.1528 90.3772C64.0027 90.7688 63.8442 91.1687 63.7024 91.5686Z" fill="white"/>
<path opacity="0.2" d="M100.874 120.581C101.257 126.122 99.9564 129.421 99.0474 131.013L100.098 132.187C100.098 132.187 105.002 127.771 107.296 124.089C104.71 120.264 100.465 114.765 100.865 120.589L100.874 120.581Z" fill="black"/>
<path d="M130.03 89.0691C133.508 89.0691 136.327 86.2527 136.327 82.7784C136.327 79.3042 133.508 76.4878 130.03 76.4878C126.553 76.4878 123.734 79.3042 123.734 82.7784C123.734 86.2527 126.553 89.0691 130.03 89.0691Z" fill="#263238"/>
<path d="M129.355 85.6447C129.355 87.8277 127.587 89.594 125.402 89.594C123.217 89.594 121.448 87.8277 121.448 85.6447C121.448 83.4617 123.217 81.6953 125.402 81.6953C127.587 81.6953 129.355 83.4617 129.355 85.6447Z" fill="#058DD1"/>
<path d="M112.817 80.7369C112.817 80.7369 104.452 80.0537 104.46 94.3847C104.468 104.2 109.23 108.741 115.077 105.441C115.077 105.441 127.97 104.383 129.455 92.5933C130.939 80.8035 121.824 76.4126 112.808 80.7286L112.817 80.7369Z" fill="#263238"/>
<path d="M101.358 115.148C101.358 115.148 98.4052 116.431 107.196 153.309C117.454 152.567 128.054 151.792 133.05 151.434C131.849 140.952 131.365 134.478 134.826 112.54C134.826 112.54 129.322 111.757 123.742 111.89C119.38 111.999 115.802 112.115 112.008 112.74C106.995 113.565 101.366 115.148 101.366 115.148H101.358Z" fill="#058DD1"/>
<path d="M121.607 98.7676C121.14 102.592 120.906 109.557 123.734 111.89C123.734 111.89 122.983 115.79 115.961 116.306C108.246 116.865 111.991 112.749 111.991 112.749C116.128 111.441 115.794 108.324 114.843 105.442L121.599 98.7676H121.607Z" fill="#B55B52"/>
<path opacity="0.2" d="M118.855 101.492L114.852 105.433C115.077 106.116 115.269 106.808 115.369 107.491C116.962 107.141 119.047 105.217 119.088 103.525C119.113 102.684 119.022 101.875 118.855 101.492Z" fill="black"/>
<path d="M125.927 92.4018C124.484 98.5592 124.001 101.2 120.306 103.858C114.752 107.858 107.496 104.733 107.07 98.2675C106.687 92.4435 109.114 83.3533 115.644 81.9118C122.074 80.4954 127.378 86.2445 125.935 92.4018H125.927Z" fill="#B55B52"/>
<path d="M115.294 92.36C115.21 92.8683 114.868 93.2349 114.535 93.1765C114.201 93.1182 114.001 92.66 114.093 92.16C114.176 91.6518 114.518 91.2852 114.852 91.3435C115.185 91.4018 115.385 91.8601 115.294 92.36Z" fill="#263238"/>
<path d="M109.564 91.3771C109.481 91.8853 109.139 92.252 108.805 92.1936C108.472 92.1353 108.271 91.677 108.363 91.1771C108.447 90.6689 108.788 90.3023 109.122 90.3606C109.456 90.4189 109.656 90.8772 109.564 91.3771Z" fill="#263238"/>
<path d="M109.264 90.4108L108.104 89.8525C108.104 89.8525 108.563 90.9107 109.264 90.4108Z" fill="#263238"/>
<path d="M111.582 92.5938C111.582 92.5938 110.348 94.6268 109.222 95.5183C109.789 96.2598 110.974 96.1682 110.974 96.1682L111.582 92.5938Z" fill="#A02724"/>
<path d="M126.644 98.3924C125.994 99.5339 124.876 100.267 123.834 100.534C122.257 100.934 121.507 99.5255 121.974 98.0591C122.391 96.7427 123.717 94.9429 125.285 95.1929C126.828 95.4345 127.395 97.0926 126.644 98.4007V98.3924Z" fill="#B55B52"/>
<path d="M117.796 91.5851C117.67 91.5851 117.554 91.5018 117.512 91.3685C117.103 90.0354 115.394 89.4605 115.377 89.4605C115.219 89.4105 115.135 89.2355 115.185 89.0772C115.235 88.9189 115.41 88.8356 115.569 88.8856C115.652 88.9106 117.595 89.5605 118.096 91.1935C118.146 91.3518 118.054 91.5185 117.896 91.5685C117.862 91.5768 117.829 91.5851 117.804 91.5851H117.796Z" fill="#263238"/>
<path d="M108.288 88.4357C108.188 88.4357 108.088 88.3774 108.029 88.2857C107.946 88.1441 107.996 87.9525 108.138 87.8775C109.589 87.0443 110.84 87.6692 110.89 87.6942C111.04 87.7692 111.099 87.9525 111.024 88.1024C110.948 88.2524 110.765 88.3107 110.615 88.2358C110.615 88.2358 109.597 87.7442 108.438 88.4024C108.388 88.4274 108.338 88.4441 108.28 88.4441L108.288 88.4357Z" fill="#263238"/>
<path d="M114.993 91.3937L113.834 90.8354C113.834 90.8354 114.293 91.8936 114.993 91.3937Z" fill="#263238"/>
<path d="M111.474 97.7429C111.474 97.7429 113.15 97.2679 117.912 97.043C117.42 98.5011 116.436 99.7175 114.001 99.8092C111.557 99.9008 111.474 97.7429 111.474 97.7429Z" fill="#263238"/>
<path d="M115.077 98.6262C113.901 98.6679 113.059 98.9845 112.45 99.4428C112.808 99.6761 113.309 99.8261 113.993 99.8011C115.169 99.7594 116.003 99.4511 116.611 98.9845C116.253 98.7512 115.752 98.6013 115.077 98.6262Z" fill="#A02724"/>
<path d="M111.691 97.6845C111.841 97.9844 111.991 98.2844 112.475 98.3594C113.467 98.3761 115.994 97.9761 116.67 97.8011C117.103 97.7095 117.47 97.5429 117.712 97.0513C114.043 97.2346 112.266 97.5679 111.691 97.6928V97.6845Z" fill="white"/>
<path d="M108.146 87.8776C108.146 87.8776 111.349 86.5778 112.933 84.1365C112.933 84.1365 112.967 88.5692 114.743 88.2275C116.528 87.8859 113.834 84.1282 113.834 84.1282C113.834 84.1282 118.012 85.9779 119.43 89.594C120.848 93.2184 122.483 97.1511 125.694 96.1763C128.913 95.1931 128.196 84.9447 123.458 82.3868L116.753 81.187L114.785 81.4703C113.776 81.6203 112.808 81.9702 111.941 82.5035C110.623 83.3117 109.589 84.5115 108.98 85.9279L108.146 87.8776Z" fill="#263238"/>
<path d="M123.717 88.4111C123.408 87.7612 121.932 87.8112 120.414 88.5277C118.896 89.2443 118.838 89.9192 119.147 90.5691C119.455 91.219 120.014 91.6022 121.532 90.8857C123.05 90.1691 124.025 89.061 123.717 88.4111ZM120.139 90.1025C119.922 89.6359 119.964 89.1526 121.048 88.6444C122.132 88.1361 123.191 88.0945 123.408 88.5611C123.625 89.0276 122.925 89.8192 121.849 90.3274C120.765 90.8357 120.364 90.5691 120.147 90.1025H120.139Z" fill="#058DD1"/>
<path opacity="0.2" d="M131.965 121.089L130.005 119.406L128.554 120.056C128.554 120.056 127.378 127.263 132.249 134.595C132.374 131.82 132.641 128.696 133.074 124.963C132.466 122.73 131.965 121.089 131.965 121.089Z" fill="black"/>
<path d="M158.386 141.394L157.327 141.502L156.827 136.728C156.485 133.479 158.837 130.412 162.064 129.904C163.641 129.654 165.183 130.037 166.418 130.987C167.652 131.937 168.428 133.337 168.594 134.92L169.095 139.694L168.036 139.803L167.535 135.028C167.402 133.728 166.768 132.595 165.767 131.82C164.766 131.054 163.507 130.737 162.223 130.946C159.546 131.371 157.594 133.912 157.878 136.611L158.378 141.386L158.386 141.394Z" fill="#263238"/>
<path d="M138.729 119.981C138.871 120.698 139.079 121.581 139.263 122.397C139.463 123.222 139.68 124.055 139.913 124.872C140.38 126.513 140.872 128.146 141.465 129.721C142.649 132.862 144.083 135.887 145.96 138.303L146.135 138.528L146.227 138.645C146.227 138.645 146.16 138.578 146.127 138.545C145.985 138.411 145.785 138.328 145.668 138.286C145.418 138.211 145.426 138.286 145.585 138.286C145.918 138.311 146.627 138.161 147.311 137.92C148.72 137.428 150.28 136.687 151.781 135.862C154.809 134.212 157.869 132.296 160.83 130.363L163.132 133.079C160.513 135.77 157.778 138.22 154.692 140.461C153.132 141.561 151.531 142.644 149.588 143.527C148.595 143.96 147.561 144.394 146.085 144.577C145.351 144.652 144.425 144.669 143.324 144.277C142.782 144.085 142.198 143.744 141.715 143.311C141.598 143.202 141.473 143.086 141.373 142.977L141.239 142.836L140.973 142.544C139.555 140.994 138.387 139.311 137.395 137.595C136.377 135.878 135.552 134.104 134.818 132.304C134.092 130.504 133.441 128.696 132.916 126.855C132.658 125.93 132.416 125.005 132.19 124.072C131.965 123.122 131.782 122.239 131.607 121.172L138.712 119.981H138.729Z" fill="#B55B52"/>
<path d="M134.818 112.541C137.461 113.14 142.098 122.689 142.098 122.689L131.698 129.721C131.698 129.721 127.495 122.547 128.337 119.123C129.221 115.557 131.799 111.849 134.818 112.532V112.541Z" fill="#058DD1"/>
<path d="M160.405 130.387L166.443 127.063L165.175 133.42C165.175 133.42 161.272 134.653 159.37 132.812L160.405 130.396V130.387Z" fill="#B55B52"/>
<path d="M171.739 127.913L170.388 133.179L165.175 133.42L166.443 127.063L171.739 127.913Z" fill="#B55B52"/>
<path d="M174.274 138.878L173.273 134.178C172.706 131.521 170.071 129.704 167.394 130.129C166.109 130.329 165.008 131.021 164.291 132.054C163.574 133.095 163.332 134.37 163.599 135.645L164.6 140.344L163.557 140.569L162.556 135.87C162.223 134.303 162.531 132.737 163.407 131.454C164.291 130.171 165.642 129.329 167.218 129.079C170.446 128.571 173.624 130.754 174.307 133.954L175.308 138.653L174.266 138.878H174.274Z" fill="#263238"/>
<g opacity="0.3">
<path d="M174.274 138.878L173.273 134.178C172.706 131.521 170.071 129.704 167.394 130.129C166.109 130.329 165.008 131.021 164.291 132.054C163.574 133.095 163.332 134.37 163.599 135.645L164.6 140.344L163.557 140.569L162.556 135.87C162.223 134.303 162.531 132.737 163.407 131.454C164.291 130.171 165.642 129.329 167.218 129.079C170.446 128.571 173.624 130.754 174.307 133.954L175.308 138.653L174.266 138.878H174.274Z" fill="white"/>
</g>
<path d="M180.496 135.736L149.562 140.627L154.325 177.455L158.745 175.68L163.499 175.996L187.351 172.222L180.496 135.736Z" fill="#058DD1"/>
<path opacity="0.6" d="M180.496 135.736L149.562 140.627L154.325 177.455L158.745 175.68L163.499 175.996L187.351 172.222L180.496 135.736Z" fill="white"/>
<path d="M163.499 175.997L158.745 175.68L154.325 177.455L149.562 140.627L156.643 139.511L163.499 175.997Z" fill="#058DD1"/>
<path opacity="0.3" d="M163.499 175.997L158.745 175.68L154.325 177.455L149.562 140.627L156.643 139.511L163.499 175.997Z" fill="white"/>
<path d="M177.46 151.605L164.667 153.629C163.98 153.738 163.512 154.383 163.62 155.069L163.639 155.184C163.747 155.87 164.393 156.339 165.079 156.23L177.872 154.206C178.559 154.097 179.028 153.452 178.919 152.766L178.901 152.651C178.792 151.965 178.147 151.496 177.46 151.605Z" fill="white"/>
</g>
<defs>
<clipPath id="clip0_119_820">
<rect width="417" height="310" fill="white" transform="translate(-33)"/>
</clipPath>
</defs>
</svg>
