<svg width="320" height="299" viewBox="0 0 320 299" fill="none" xmlns="http://www.w3.org/2000/svg">
<g clip-path="url(#clip0_119_1074)">
<path d="M361 262.762H-41V262.962H361V262.762Z" fill="#EBEBEB"/>
<path d="M320.72 275.673H294.091V275.873H320.72V275.673Z" fill="#EBEBEB"/>
<path d="M225.301 277.855H218.314V278.056H225.301V277.855Z" fill="#EBEBEB"/>
<path d="M293.287 268.226H277.858V268.427H293.287V268.226Z" fill="#EBEBEB"/>
<path d="M35.9026 269.574H1.17786V269.775H35.9026V269.574Z" fill="#EBEBEB"/>
<path d="M48.1556 269.574H43.0663V269.775H48.1556V269.574Z" fill="#EBEBEB"/>
<path d="M140.021 272.96H64.7019V273.161H140.021V272.96Z" fill="#EBEBEB"/>
<path d="M149.556 226.972H-5.69639C-8.22899 226.972 -10.2872 224.918 -10.2872 222.39V4.58198C-10.2872 2.05427 -8.22899 0 -5.69639 0H149.556C152.089 0 154.147 2.05427 154.147 4.58198V222.39C154.147 224.918 152.089 226.972 149.556 226.972ZM-5.69639 0.200612C-8.11643 0.200612 -10.0862 2.16661 -10.0862 4.58198V222.39C-10.0862 224.806 -8.11643 226.772 -5.69639 226.772H149.556C151.976 226.772 153.946 224.806 153.946 222.39V4.58198C153.946 2.16661 151.976 0.200612 149.556 0.200612H-5.69639Z" fill="#EBEBEB"/>
<path d="M323.461 226.972H168.209C165.676 226.972 163.618 224.918 163.618 222.39V4.58198C163.618 2.05427 165.676 0 168.209 0H323.461C325.994 0 328.052 2.05427 328.052 4.58198V222.39C328.052 224.918 325.994 226.972 323.461 226.972ZM168.209 0.200612C165.789 0.200612 163.819 2.16661 163.819 4.58198V222.39C163.819 224.806 165.789 226.772 168.209 226.772H323.461C325.881 226.772 327.851 224.806 327.851 222.39V4.58198C327.851 2.16661 325.881 0.200612 323.461 0.200612H168.209Z" fill="#EBEBEB"/>
<path d="M244.356 132.492H223.886V141.183H244.356V132.492Z" fill="#FAFAFA"/>
<path d="M219.593 132.492H199.123V141.183H219.593V132.492Z" fill="#FAFAFA"/>
<path d="M194.821 132.492H174.351V141.183H194.821V132.492Z" fill="#FAFAFA"/>
<path d="M256.745 144.593H236.276V153.283H256.745V144.593Z" fill="#FAFAFA"/>
<path d="M231.974 144.593H211.504V153.283H231.974V144.593Z" fill="#FAFAFA"/>
<path d="M207.203 144.593H186.733V153.283H207.203V144.593Z" fill="#FAFAFA"/>
<path d="M182.432 144.593H161.962V153.283H182.432V144.593Z" fill="#FAFAFA"/>
<path d="M269.127 156.694H248.657V165.384H269.127V156.694Z" fill="#FAFAFA"/>
<path d="M295.112 181.698H274.642V190.389H295.112V181.698Z" fill="#FAFAFA"/>
<path d="M244.356 156.694H223.886V165.384H244.356V156.694Z" fill="#FAFAFA"/>
<path d="M219.593 156.694H199.123V165.384H219.593V156.694Z" fill="#FAFAFA"/>
<path d="M194.821 156.694H174.351V165.384H194.821V156.694Z" fill="#FAFAFA"/>
<path d="M170.05 156.694H149.58V165.384H170.05V156.694Z" fill="#FAFAFA"/>
<path d="M256.745 168.795H236.276V177.485H256.745V168.795Z" fill="#FAFAFA"/>
<path d="M231.974 168.795H211.504V177.485H231.974V168.795Z" fill="#FAFAFA"/>
<path d="M207.203 168.795H186.733V177.485H207.203V168.795Z" fill="#FAFAFA"/>
<path d="M182.432 168.795H161.962V177.485H182.432V168.795Z" fill="#FAFAFA"/>
<path d="M109.935 9.21191H89.4651V17.9024H109.935V9.21191Z" fill="#FAFAFA"/>
<path d="M85.1717 9.21191H64.7019V17.9024H85.1717V9.21191Z" fill="#FAFAFA"/>
<path d="M122.325 21.313H101.855V30.0035H122.325V21.313Z" fill="#FAFAFA"/>
<path d="M97.5533 21.313H77.0835V30.0035H97.5533V21.313Z" fill="#FAFAFA"/>
<path d="M48.0189 21.313H27.5491V30.0035H48.0189V21.313Z" fill="#FAFAFA"/>
<path d="M23.2477 21.313H2.77783V30.0035H23.2477V21.313Z" fill="#FAFAFA"/>
<path d="M109.935 33.4136H89.4651V42.1041H109.935V33.4136Z" fill="#FAFAFA"/>
<path d="M85.1717 33.4136H64.7019V42.1041H85.1717V33.4136Z" fill="#FAFAFA"/>
<path d="M35.6293 33.4136H15.1594V42.1041H35.6293V33.4136Z" fill="#FAFAFA"/>
<path d="M21.7441 74.0977H1.27429V82.7882H21.7441V74.0977Z" fill="#FAFAFA"/>
<path d="M46.5154 74.0977H26.0455V82.7882H46.5154V74.0977Z" fill="#FAFAFA"/>
<path d="M34.1338 61.9971H13.6639V70.6876H34.1338V61.9971Z" fill="#FAFAFA"/>
<path d="M130.196 60.2236H109.726V68.9141H130.196V60.2236Z" fill="#FAFAFA"/>
<path d="M105.432 60.2236H84.9626V68.9141H105.432V60.2236Z" fill="#FAFAFA"/>
<path d="M117.814 72.3242H97.3444V81.0147H117.814V72.3242Z" fill="#FAFAFA"/>
<path d="M214.688 9.7334H194.218V18.4239H214.688V9.7334Z" fill="#FAFAFA"/>
<path d="M189.925 9.7334H169.455V18.4239H189.925V9.7334Z" fill="#FAFAFA"/>
<path d="M227.078 21.8345H206.608V30.525H227.078V21.8345Z" fill="#FAFAFA"/>
<path d="M202.307 21.8345H181.837V30.525H202.307V21.8345Z" fill="#FAFAFA"/>
<path d="M290.304 14.6846H269.834V23.3751H290.304V14.6846Z" fill="#FAFAFA"/>
<path d="M302.686 26.7856H282.216V35.4762H302.686V26.7856Z" fill="#FAFAFA"/>
<path d="M297.806 130.807H277.336V139.497H297.806V130.807Z" fill="#FAFAFA"/>
<path d="M277.915 26.7856H257.445V35.4762H277.915V26.7856Z" fill="#FAFAFA"/>
<path d="M177.535 21.8345H157.065V30.525H177.535V21.8345Z" fill="#FAFAFA"/>
<path d="M239.459 33.9355H218.99V42.6261H239.459V33.9355Z" fill="#FAFAFA"/>
<path d="M214.688 33.9355H194.218V42.6261H214.688V33.9355Z" fill="#FAFAFA"/>
<path d="M189.925 33.9355H169.455V42.6261H189.925V33.9355Z" fill="#FAFAFA"/>
<path d="M227.078 46.0283H206.608V54.7188H227.078V46.0283Z" fill="#FAFAFA"/>
<path d="M202.307 46.0283H181.837V54.7188H202.307V46.0283Z" fill="#FAFAFA"/>
<path d="M45.6551 118.216H25.1853V126.907H45.6551V118.216Z" fill="#FAFAFA"/>
<path d="M20.8839 118.216H0.414062V126.907H20.8839V118.216Z" fill="#FAFAFA"/>
<path d="M107.579 130.317H87.1094V139.008H107.579V130.317Z" fill="#FAFAFA"/>
<path d="M58.0367 130.317H37.5669V139.008H58.0367V130.317Z" fill="#FAFAFA"/>
<path d="M33.2736 130.317H12.8037V139.008H33.2736V130.317Z" fill="#FAFAFA"/>
<path d="M119.961 142.41H99.491V151.101H119.961V142.41Z" fill="#FAFAFA"/>
<path d="M95.1976 142.41H74.7278V151.101H95.1976V142.41Z" fill="#FAFAFA"/>
<path d="M45.6551 142.41H25.1853V151.101H45.6551V142.41Z" fill="#FAFAFA"/>
<path d="M20.8839 142.41H0.414062V151.101H20.8839V142.41Z" fill="#FAFAFA"/>
<path d="M58.0367 154.511H37.5669V163.202H58.0367V154.511Z" fill="#FAFAFA"/>
<path d="M33.2736 154.511H12.8037V163.202H33.2736V154.511Z" fill="#FAFAFA"/>
<path d="M105.119 178.577H84.6492V187.267H105.119V178.577Z" fill="#FAFAFA"/>
<path d="M80.3478 178.577H59.8779V187.267H80.3478V178.577Z" fill="#FAFAFA"/>
<path d="M49.9244 198.983H29.4546V207.673H49.9244V198.983Z" fill="#FAFAFA"/>
<path d="M25.1532 198.983H4.68335V207.673H25.1532V198.983Z" fill="#FAFAFA"/>
<path d="M111.849 211.083H91.3787V219.774H111.849V211.083Z" fill="#FAFAFA"/>
<path d="M92.7374 190.677H72.2676V199.368H92.7374V190.677Z" fill="#FAFAFA"/>
<path d="M37.5348 211.083H17.0649V219.774H37.5348V211.083Z" fill="#FAFAFA"/>
<path d="M124.23 223.185H103.76V231.875H124.23V223.185Z" fill="#FAFAFA"/>
<path d="M99.4588 223.185H78.989V231.875H99.4588V223.185Z" fill="#FAFAFA"/>
<path d="M74.6876 223.185H54.2178V231.875H74.6876V223.185Z" fill="#FAFAFA"/>
<path d="M111.849 235.286H91.3787V243.976H111.849V235.286Z" fill="#FAFAFA"/>
<path d="M87.0773 235.286H66.6074V243.976H87.0773V235.286Z" fill="#FAFAFA"/>
<path d="M62.306 235.286H41.8362V243.976H62.306V235.286Z" fill="#FAFAFA"/>
<path d="M239.491 198.429H219.022V207.12H239.491V198.429Z" fill="#FAFAFA"/>
<path d="M214.72 198.429H194.25V207.12H214.72V198.429Z" fill="#FAFAFA"/>
<path d="M189.949 198.429H169.479V207.12H189.949V198.429Z" fill="#FAFAFA"/>
<path d="M251.873 210.53H231.403V219.22H251.873V210.53Z" fill="#FAFAFA"/>
<path d="M227.102 210.53H206.632V219.22H227.102V210.53Z" fill="#FAFAFA"/>
<path d="M202.339 210.53H181.869V219.22H202.339V210.53Z" fill="#FAFAFA"/>
<path d="M177.567 210.53H157.098V219.22H177.567V210.53Z" fill="#FAFAFA"/>
<path d="M214.72 222.623H194.25V231.314H214.72V222.623Z" fill="#FAFAFA"/>
<path d="M189.949 222.623H169.479V231.314H189.949V222.623Z" fill="#FAFAFA"/>
<path d="M227.102 234.724H206.632V243.414H227.102V234.724Z" fill="#FAFAFA"/>
<path d="M202.339 234.724H181.869V243.414H202.339V234.724Z" fill="#FAFAFA"/>
<path d="M177.567 234.724H157.098V243.414H177.567V234.724Z" fill="#FAFAFA"/>
<path d="M250.957 113.514H307.405V43.2674H250.957V113.514Z" fill="#F5F5F5"/>
<path d="M297.066 104.35C289.959 109.437 289.943 112.222 284.845 106.525C279.748 100.827 276.21 93.9341 266.964 97.5291C257.718 101.124 252.573 91.8157 258.49 83.2616C264.407 74.7075 262.237 63.0078 258.49 57.4067C254.743 51.8056 256.488 44.2707 262.462 48.4835C268.436 52.6964 276.524 52.6964 282.305 49.7273C288.085 46.7583 294.855 39.3918 294.332 52.255C293.81 65.1183 300.443 61.0819 302.155 67.5898C303.86 74.0896 295.627 69.965 297.066 84.2085C298.505 98.4519 303.369 99.8402 297.066 104.342V104.35Z" fill="#E0E0E0"/>
<path d="M262.293 106.525C270.936 110.344 274.602 112.23 278.646 103.708C282.69 95.186 290.851 83.8474 296.744 86.985C302.638 90.1306 300.853 75.8149 289.541 79.4099C278.228 83.0048 275.511 81.1833 271.515 72.5891C267.519 63.9868 268.484 59.2042 263.684 62.3418C258.884 65.4794 265.501 75.1328 262.791 82.9326C260.074 90.7324 254.534 103.098 262.301 106.525H262.293Z" fill="#EBEBEB"/>
<path d="M292.588 63.0239C289.098 69.6923 293.81 80.3648 284.716 75.8872C275.623 71.4175 279.418 54.197 271.587 58.2654C263.756 62.3338 269.055 74.1138 262.365 74.6915C255.676 75.2693 256.4 49.0132 266.16 48.4755C275.921 47.9379 284.331 56.5883 287.273 53.6032C290.208 50.6101 298.409 43.7893 300.113 52.2471C301.818 60.7129 295.273 57.8883 292.588 63.0159V63.0239Z" fill="#EBEBEB"/>
<path d="M236.066 62.1011H186.122V128.953H236.066V62.1011Z" fill="#F5F5F5"/>
<path d="M229.015 122.237C227.568 124.909 191.838 111.468 192.795 108.563C193.76 105.658 220.718 103.243 223.09 99.3107C225.462 95.3787 194.532 90.1387 195.095 87.4826C195.657 84.8265 224.923 87.1696 225.462 84.5135C226 81.8574 194.628 77.2434 196.727 73.2472C198.825 69.251 224.883 72.1157 227.745 78.8803C230.607 85.645 214.833 85.1876 214.383 89.6733C213.932 94.159 231.194 95.0336 229.007 102.24C226.812 109.446 204.132 104.246 206.246 110.537C208.361 116.828 231.741 117.181 229.007 122.237H229.015Z" fill="#E6E6E6"/>
<path d="M201.679 121.883C197.016 122.975 191.629 114.653 197.169 116.515C202.708 118.377 206.351 120.792 201.679 121.883Z" fill="#EBEBEB"/>
<path d="M222.728 111.355C222.495 113.674 229.377 113.265 229.45 111.355C229.53 109.445 222.969 108.932 222.728 111.355Z" fill="#EBEBEB"/>
<path d="M196.727 97.3926C199.243 101.541 206.656 99.7437 206.576 97.8339C206.495 95.9241 194.001 92.9149 196.727 97.3926Z" fill="#EBEBEB"/>
<path d="M282.706 235.518C282.827 234.7 285.641 215.32 280.005 208.628C278.759 207.143 277.183 206.373 275.326 206.325C263.949 206.06 262.389 215.184 262.373 215.272L263.716 215.481C263.764 215.152 265.115 207.432 275.294 207.681C276.765 207.713 277.971 208.315 278.968 209.495C284.218 215.722 281.396 235.117 281.364 235.309L282.706 235.51V235.518Z" fill="#EBEBEB"/>
<path d="M283.398 234.635L284.757 234.595C284.757 234.419 284.306 216.741 293.03 213.09C301.584 209.511 305.427 216.869 305.588 217.182L306.802 216.572C306.754 216.484 302.244 207.761 292.507 211.838C282.924 215.85 283.374 233.873 283.398 234.635Z" fill="#EBEBEB"/>
<path d="M283.358 236.024C283.358 235.743 283.438 207.786 288.897 199.609C294.139 191.761 302.597 195.452 302.959 195.612L303.522 194.377C303.426 194.329 293.665 190.035 287.772 198.854C282.087 207.368 281.999 234.852 281.999 236.016H283.358V236.024Z" fill="#EBEBEB"/>
<path d="M273.702 206.999C273.702 206.999 278.67 208.829 277.191 213.146C275.712 217.463 260.001 224.565 260.001 224.565C260.001 224.565 253.425 218.546 259.463 208.757C265.509 198.967 273.565 203.918 273.694 206.999H273.702Z" fill="#E0E0E0"/>
<path d="M289.147 198.14C289.147 198.14 285.617 197.763 285.906 195.62C286.196 193.478 299.615 187.957 307.542 196.88C307.542 196.88 302.469 205.579 295.136 205.691C287.804 205.804 289.155 198.14 289.155 198.14H289.147Z" fill="#E0E0E0"/>
<path d="M292.765 212.464C292.765 212.464 290.328 210.506 292.958 209.543C295.587 208.588 308.475 208.861 308.611 221.604C308.611 221.604 293.601 224.091 291.743 219.236C289.886 214.382 292.773 212.464 292.773 212.464H292.765Z" fill="#E0E0E0"/>
<path d="M271.032 261.486H294.324L296.841 236.024H268.516L271.032 261.486Z" fill="#EBEBEB"/>
<path d="M267.278 238.833H298.087V233.215H267.278V238.833Z" fill="#E0E0E0"/>
<path d="M160 299C246.094 299 315.888 294.933 315.888 289.916C315.888 284.899 246.094 280.833 160 280.833C73.9057 280.833 4.11243 284.899 4.11243 289.916C4.11243 294.933 73.9057 299 160 299Z" fill="#F5F5F5"/>
<path d="M36.2001 38.6221H159.051C163.666 38.6221 167.413 42.3615 167.413 46.9675V280.841C167.413 285.447 163.666 289.186 159.051 289.186H36.2001C31.5851 289.186 27.8385 285.447 27.8385 280.841V46.9675C27.8385 42.3615 31.5851 38.6221 36.2001 38.6221Z" fill="#263238"/>
<path d="M162.701 47.0157V280.343C162.701 282.261 161.158 283.754 159.236 283.754H35.6453C33.8765 283.754 32.5499 282.39 32.5499 280.624V46.7349C32.5499 45.2102 33.6755 43.8701 35.2031 43.8701H66.1008C66.9772 43.8701 67.7651 44.4399 68.0867 45.2584L69.3651 48.4039C69.6867 49.2144 70.4826 49.7761 71.351 49.7761H123.957C124.833 49.7761 125.621 49.2385 125.943 48.428L127.221 45.2664C127.543 44.4479 128.338 43.8701 129.207 43.8701H159.662C161.351 43.8701 162.693 45.3306 162.693 47.0157H162.701Z" fill="#058DD1"/>
<path opacity="0.5" d="M162.709 58.4507H32.5499V270.634H162.709V58.4507Z" fill="white"/>
<path opacity="0.6" d="M46.8932 53.2744H48.5012V51.1319H46.8932V53.2744Z" fill="white"/>
<path opacity="0.6" d="M44.2722 53.2744H45.8802V50.4177H44.2722V53.2744Z" fill="white"/>
<path opacity="0.6" d="M41.6512 53.2744H43.2592V49.7115H41.6512V53.2744Z" fill="white"/>
<path opacity="0.6" d="M39.0302 53.2744H40.6382V48.9974H39.0302V53.2744Z" fill="white"/>
<path opacity="0.6" d="M147.98 50.3535H147.023V52.496H147.98V50.3535Z" fill="white"/>
<path opacity="0.6" d="M148.631 53.2744H156.221V49.5751H148.631V53.2744Z" fill="white"/>
<path opacity="0.6" d="M97.6016 44.1828C97.6016 45.1698 96.8057 45.9642 95.8167 45.9642C94.8278 45.9642 94.0319 45.1698 94.0319 44.1828C94.0319 43.1958 94.8278 42.4014 95.8167 42.4014C96.8057 42.4014 97.6016 43.1958 97.6016 44.1828Z" fill="white"/>
<path opacity="0.6" d="M101.22 44.1829C101.22 44.8169 100.705 45.3224 100.078 45.3224C99.4508 45.3224 98.9363 44.8088 98.9363 44.1829C98.9363 43.557 99.4508 43.0435 100.078 43.0435C100.705 43.0435 101.22 43.557 101.22 44.1829Z" fill="white"/>
<path d="M133.452 70.6157H45.2129C41.7983 70.6157 39.0302 73.3785 39.0302 76.7865C39.0302 80.1946 41.7983 82.9574 45.2129 82.9574H133.452C136.867 82.9574 139.635 80.1946 139.635 76.7865C139.635 73.3785 136.867 70.6157 133.452 70.6157Z" fill="white"/>
<path d="M132.953 74.2747C134.007 75.3259 134.007 77.0352 132.953 78.0944C131.9 79.1536 130.188 79.1456 129.126 78.0944C128.073 77.0432 128.073 75.334 129.126 74.2747C130.18 73.2235 131.892 73.2235 132.953 74.2747Z" stroke="#058DD1" stroke-linecap="round" stroke-linejoin="round"/>
<path d="M132.953 78.0942L134.963 80.0923" stroke="#058DD1" stroke-linecap="round" stroke-linejoin="round"/>
<path opacity="0.2" d="M153.994 70.6157H145.279C144.271 70.6157 143.454 71.4313 143.454 72.4373V81.1358C143.454 82.1418 144.271 82.9574 145.279 82.9574H153.994C155.002 82.9574 155.819 82.1418 155.819 81.1358V72.4373C155.819 71.4313 155.002 70.6157 153.994 70.6157Z" fill="black"/>
<path d="M147.53 73.8175C147.53 74.2669 147.16 74.636 146.71 74.636C146.26 74.636 145.89 74.2669 145.89 73.8175C145.89 73.3681 146.26 72.999 146.71 72.999C147.16 72.999 147.53 73.3681 147.53 73.8175Z" fill="white"/>
<path d="M152.836 77.6053C153.289 77.6053 153.657 77.2388 153.657 76.7868C153.657 76.3347 153.289 75.9683 152.836 75.9683C152.384 75.9683 152.016 76.3347 152.016 76.7868C152.016 77.2388 152.384 77.6053 152.836 77.6053Z" fill="white"/>
<path d="M147.024 80.9109C147.476 80.9109 147.844 80.5445 147.844 80.0924C147.844 79.6404 147.476 79.2739 147.024 79.2739C146.571 79.2739 146.203 79.6404 146.203 80.0924C146.203 80.5445 146.571 80.9109 147.024 80.9109Z" fill="white"/>
<path d="M146.71 73.8174L152.836 76.7864L147.024 80.0925" stroke="white" stroke-width="0.5" stroke-miterlimit="10"/>
<path opacity="0.6" d="M162.709 93.8706H32.5499V270.634H162.709V93.8706Z" fill="white"/>
<path opacity="0.2" d="M97.1336 134.349L106.281 125.22L97.1336 116.09L87.9862 125.22L97.1336 134.349Z" fill="white"/>
<path opacity="0.2" d="M47.448 139.827H69.1721C71.2546 139.827 72.9429 138.142 72.9429 136.063V114.381C72.9429 112.303 71.2546 110.618 69.1721 110.618H47.448C45.3655 110.618 43.6773 112.303 43.6773 114.381V136.063C43.6773 138.142 45.3655 139.827 47.448 139.827Z" fill="black"/>
<path opacity="0.2" d="M45.2531 148.405H71.359C72.2273 148.405 72.9348 147.699 72.9348 146.832C72.9348 145.965 72.2273 145.259 71.359 145.259H45.2531C44.3848 145.259 43.6772 145.965 43.6772 146.832C43.6772 147.707 44.3848 148.405 45.2531 148.405Z" fill="black"/>
<path opacity="0.2" d="M86.2732 194.393H107.997C110.08 194.393 111.768 192.708 111.768 190.63V168.947C111.768 166.869 110.08 165.184 107.997 165.184H86.2732C84.1907 165.184 82.5025 166.869 82.5025 168.947V190.63C82.5025 192.708 84.1907 194.393 86.2732 194.393Z" fill="black"/>
<path opacity="0.2" d="M84.0783 202.971H110.184C111.052 202.971 111.76 202.265 111.76 201.398C111.76 200.532 111.052 199.826 110.184 199.826H84.0783C83.21 199.826 82.5024 200.532 82.5024 201.398C82.5024 202.273 83.21 202.971 84.0783 202.971Z" fill="black"/>
<path opacity="0.2" d="M47.448 194.393H69.1721C71.2546 194.393 72.9429 192.708 72.9429 190.63V168.947C72.9429 166.869 71.2546 165.184 69.1721 165.184H47.448C45.3655 165.184 43.6773 166.869 43.6773 168.947V190.63C43.6773 192.708 45.3655 194.393 47.448 194.393Z" fill="black"/>
<path opacity="0.2" d="M45.2531 202.971H71.359C72.2273 202.971 72.9348 202.265 72.9348 201.398C72.9348 200.532 72.2273 199.826 71.359 199.826H45.2531C44.3848 199.826 43.6772 200.532 43.6772 201.398C43.6772 202.273 44.3848 202.971 45.2531 202.971Z" fill="black"/>
<path opacity="0.2" d="M53.5423 171.556H63.0777L67.8374 179.789L63.0777 188.03H53.5423L48.7826 179.789L53.5423 171.556Z" fill="white"/>
<path opacity="0.2" d="M104.813 174.356V186.048H89.457L104.813 174.356Z" fill="white"/>
<path opacity="0.2" d="M125.098 139.827H146.822C148.905 139.827 150.593 138.142 150.593 136.063V114.381C150.593 112.303 148.905 110.618 146.822 110.618H125.098C123.016 110.618 121.328 112.303 121.328 114.381V136.063C121.328 138.142 123.016 139.827 125.098 139.827Z" fill="black"/>
<path opacity="0.2" d="M122.903 148.405H149.009C149.878 148.405 150.585 147.699 150.585 146.832C150.585 145.965 149.878 145.259 149.009 145.259H122.903C122.035 145.259 121.328 145.965 121.328 146.832C121.328 147.707 122.035 148.405 122.903 148.405Z" fill="black"/>
<path opacity="0.2" d="M138.3 132.819C142.713 131.779 145.445 127.367 144.404 122.963C143.363 118.559 138.941 115.832 134.529 116.871C130.117 117.91 127.384 122.323 128.425 126.727C129.467 131.131 133.888 133.858 138.3 132.819Z" fill="white"/>
<path opacity="0.2" d="M54.7644 116.652C54.7644 116.652 65.9883 129.347 65.6667 129.347C65.3451 129.347 50.9454 132.308 50.9454 132.308L54.7644 116.644V116.652Z" fill="white"/>
<path opacity="0.2" d="M86.2732 139.827H107.997C110.08 139.827 111.768 138.142 111.768 136.063V114.381C111.768 112.303 110.08 110.618 107.997 110.618H86.2732C84.1907 110.618 82.5025 112.303 82.5025 114.381V136.063C82.5025 138.142 84.1907 139.827 86.2732 139.827Z" fill="black"/>
<path opacity="0.2" d="M84.0783 148.405H110.184C111.052 148.405 111.76 147.699 111.76 146.832C111.76 145.965 111.052 145.259 110.184 145.259H84.0783C83.21 145.259 82.5024 145.965 82.5024 146.832C82.5024 147.707 83.21 148.405 84.0783 148.405Z" fill="black"/>
<g opacity="0.2">
<path d="M48.4611 76.8109V78.159H48.1476V76.843C48.1476 76.3535 47.8903 76.0967 47.4481 76.0967C46.9496 76.0967 46.6361 76.4096 46.6361 76.9392V78.159H46.3225V74.877H46.6361V76.2411C46.8049 75.9683 47.1104 75.8158 47.5044 75.8158C48.0672 75.8158 48.4611 76.1448 48.4611 76.8109Z" fill="black"/>
<path d="M50.5435 78.0144C50.4229 78.1267 50.2299 78.1749 50.053 78.1749C49.6108 78.1749 49.3696 77.9261 49.3696 77.5008V76.0965H48.9515V75.8317H49.3696V75.3262H49.6832V75.8317H50.3907V76.0965H49.6832V77.4848C49.6832 77.7576 49.8279 77.91 50.0852 77.91C50.2138 77.91 50.3425 77.8699 50.4309 77.7897L50.5435 78.0144Z" fill="black"/>
<path d="M52.2882 78.0144C52.1676 78.1267 51.9746 78.1749 51.7978 78.1749C51.3556 78.1749 51.1144 77.9261 51.1144 77.5008V76.0965H50.6963V75.8317H51.1144V75.3262H51.4279V75.8317H52.1354V76.0965H51.4279V77.4848C51.4279 77.7576 51.5726 77.91 51.8299 77.91C51.9586 77.91 52.0872 77.8699 52.1756 77.7897L52.2882 78.0144Z" fill="black"/>
<path d="M55.2147 76.9955C55.2147 77.7017 54.7163 78.1831 54.057 78.1831C53.6871 78.1831 53.3655 78.0226 53.1726 77.7257V79.0177H52.859V75.832H53.1565V76.2894C53.3495 75.9764 53.6711 75.8159 54.057 75.8159C54.7243 75.8159 55.2147 76.2894 55.2147 76.9955ZM54.9012 76.9955C54.9012 76.4579 54.5233 76.0887 54.0328 76.0887C53.5424 76.0887 53.1645 76.4579 53.1645 76.9955C53.1645 77.5332 53.5344 77.9023 54.0328 77.9023C54.5313 77.9023 54.9012 77.5412 54.9012 76.9955Z" fill="black"/>
<path d="M55.5364 77.8943L55.6811 77.6455C55.866 77.7899 56.1796 77.9103 56.5092 77.9103C56.9514 77.9103 57.1363 77.7578 57.1363 77.5332C57.1363 76.9313 55.6248 77.4048 55.6248 76.4819C55.6248 76.1048 55.9545 75.8159 56.5494 75.8159C56.8469 75.8159 57.1765 75.8962 57.3695 76.0326L57.2328 76.2813C57.0318 76.1369 56.7826 76.0807 56.5494 76.0807C56.1313 76.0807 55.9464 76.2412 55.9464 76.4659C55.9464 77.0918 57.4579 76.6184 57.4579 77.5171C57.4579 77.9183 57.1042 78.1831 56.4931 78.1831C56.1072 78.1831 55.7374 78.0628 55.5444 77.8943H55.5364Z" fill="black"/>
<path d="M57.8278 76.0566C57.8278 75.9202 57.9323 75.8159 58.0609 75.8159C58.1896 75.8159 58.3021 75.9202 58.3021 76.0566C58.3021 76.1931 58.1896 76.2974 58.0609 76.2974C57.9323 76.2974 57.8278 76.1931 57.8278 76.0566ZM57.8278 77.9424C57.8278 77.806 57.9323 77.7017 58.0609 77.7017C58.1896 77.7017 58.3021 77.806 58.3021 77.9424C58.3021 78.0788 58.1896 78.1831 58.0609 78.1831C57.9323 78.1831 57.8278 78.0788 57.8278 77.9424Z" fill="black"/>
<path d="M60.0869 74.4355H60.3764L58.9131 78.6002H58.6237L60.0869 74.4355Z" fill="black"/>
<path d="M61.2769 74.4355H61.5663L60.103 78.6002H59.8136L61.2769 74.4355Z" fill="black"/>
<path d="M65.3934 76.811V78.1591H65.0799V76.843C65.0799 76.3536 64.8306 76.0968 64.4125 76.0968C63.9301 76.0968 63.6326 76.4097 63.6326 76.9393V78.1591H63.3191V76.843C63.3191 76.3536 63.0699 76.0968 62.6437 76.0968C62.1694 76.0968 61.8639 76.4097 61.8639 76.9393V78.1591H61.5503V75.832H61.8478V76.2573C62.0086 75.9764 62.3141 75.8159 62.7 75.8159C63.0859 75.8159 63.3834 75.9764 63.5281 76.3054C63.697 76.0085 64.0266 75.8159 64.4527 75.8159C65.0155 75.8159 65.3934 76.1449 65.3934 76.811Z" fill="black"/>
<path d="M68.1672 75.832L67.0014 78.432C66.8084 78.8894 66.5592 79.0338 66.2295 79.0338C66.0124 79.0338 65.8034 78.9616 65.6587 78.8252L65.8034 78.5925C65.916 78.7048 66.0607 78.769 66.2295 78.769C66.4386 78.769 66.5833 78.6727 66.7119 78.3838L66.8165 78.1591L65.7793 75.8401H66.1089L66.9853 77.8141L67.8616 75.8401H68.1752L68.1672 75.832Z" fill="black"/>
<path d="M68.6174 74.877H68.931V78.159H68.6174V74.877Z" fill="black"/>
<path d="M69.735 75.1016C69.735 74.9813 69.8395 74.877 69.9682 74.877C70.0968 74.877 70.2013 74.9733 70.2013 75.0936C70.2013 75.222 70.1048 75.3263 69.9682 75.3263C69.8315 75.3263 69.735 75.222 69.735 75.1016ZM69.8074 75.8319H70.1209V78.159H69.8074V75.8319Z" fill="black"/>
<path d="M73.1439 76.8107V78.1588H72.8303V76.8428C72.8303 76.3533 72.5731 76.0965 72.1309 76.0965C71.6324 76.0965 71.3188 76.4094 71.3188 76.9391V78.1588H71.0052V75.8317H71.3027V76.257C71.4716 75.9761 71.7851 75.8076 72.1871 75.8076C72.758 75.8076 73.1439 76.1366 73.1439 76.8027V76.8107Z" fill="black"/>
<path d="M74.8646 76.9874L74.3178 77.4929V78.159H74.0043V74.877H74.3178V77.0997L75.7088 75.8319H76.0947L75.0977 76.7788L76.1831 78.1509H75.7972L74.8565 76.9874H74.8646Z" fill="black"/>
<path d="M77.574 74.4355H77.8634L76.4002 78.6002H76.1107L77.574 74.4355Z" fill="black"/>
</g>
<path opacity="0.2" d="M187.457 108.017V175.431C187.457 177.565 185.728 179.291 183.589 179.291H56.5494C54.4107 179.291 52.6821 177.565 52.6821 175.431V108.017C52.6821 105.891 54.4107 104.166 56.5494 104.166H183.589C185.728 104.166 187.457 105.891 187.457 108.017Z" fill="black"/>
<path d="M193.085 101.598V169.011C193.085 171.146 191.356 172.871 189.217 172.871H62.1774C60.0388 172.871 58.3102 171.146 58.3102 169.011V101.598C58.3102 99.4714 60.0388 97.7461 62.1774 97.7461H189.217C191.356 97.7461 193.085 99.4714 193.085 101.598Z" fill="#058DD1"/>
<path opacity="0.5" d="M193.085 110.738V169.012C193.085 171.146 191.356 172.871 189.217 172.871H62.1774C60.0388 172.871 58.3102 171.146 58.3102 169.012V110.738H193.085Z" fill="white"/>
<path d="M157.886 121.146H66.4467V136.825H157.886V121.146Z" fill="white"/>
<path d="M75.9339 128.793V131.031H75.2263V128.873C75.2263 128.111 74.8404 127.733 74.1731 127.733C73.4254 127.733 72.9349 128.183 72.9349 129.025V131.031H72.2274V125.591H72.9349V127.693C73.2324 127.316 73.7148 127.107 74.3098 127.107C75.2585 127.107 75.9258 127.653 75.9258 128.793H75.9339Z" fill="#263238"/>
<path d="M79.4312 130.799C79.2141 130.983 78.8925 131.072 78.579 131.072C77.791 131.072 77.3408 130.638 77.3408 129.852V127.717H76.6815V127.14H77.3408V126.289H78.0483V127.14H79.1659V127.717H78.0483V129.82C78.0483 130.237 78.2654 130.47 78.6594 130.47C78.8684 130.47 79.0614 130.406 79.2141 130.285L79.4312 130.791V130.799Z" fill="#263238"/>
<path d="M82.3819 130.799C82.1648 130.983 81.8432 131.072 81.5296 131.072C80.7417 131.072 80.2915 130.638 80.2915 129.852V127.717H79.6322V127.14H80.2915V126.289H80.999V127.14H82.1166V127.717H80.999V129.82C80.999 130.237 81.2161 130.47 81.61 130.47C81.8191 130.47 82.012 130.406 82.1648 130.285L82.3819 130.791V130.799Z" fill="#263238"/>
<path d="M87.2702 129.082C87.2702 130.277 86.4421 131.072 85.3004 131.072C84.7456 131.072 84.2632 130.855 83.9416 130.438V132.444H83.2341V127.132H83.9095V127.75C84.223 127.316 84.7215 127.1 85.3004 127.1C86.4421 127.1 87.2702 127.894 87.2702 129.082ZM86.5546 129.082C86.5546 128.263 85.9918 127.717 85.2361 127.717C84.4803 127.717 83.9256 128.263 83.9256 129.082C83.9256 129.9 84.4884 130.454 85.2361 130.454C85.9838 130.454 86.5546 129.908 86.5546 129.082Z" fill="#263238"/>
<path d="M87.7527 130.614L88.0502 130.06C88.3798 130.293 88.9105 130.462 89.417 130.462C90.0682 130.462 90.3416 130.261 90.3416 129.932C90.3416 129.057 87.8813 129.812 87.8813 128.271C87.8813 127.573 88.5085 127.107 89.5054 127.107C90.0119 127.107 90.5828 127.236 90.9204 127.461L90.623 128.014C90.2692 127.79 89.8833 127.709 89.4974 127.709C88.8783 127.709 88.5808 127.934 88.5808 128.247C88.5808 129.162 91.0491 128.415 91.0491 129.924C91.0491 130.63 90.4059 131.08 89.3687 131.08C88.7255 131.08 88.0823 130.879 87.7607 130.622L87.7527 130.614Z" fill="#263238"/>
<path d="M91.6038 127.597C91.6038 127.3 91.8289 127.1 92.1022 127.1C92.3756 127.1 92.5846 127.308 92.5846 127.597C92.5846 127.886 92.3676 128.103 92.1022 128.103C91.8369 128.103 91.6038 127.886 91.6038 127.597ZM91.6038 130.558C91.6038 130.261 91.8289 130.061 92.1022 130.061C92.3756 130.061 92.5846 130.269 92.5846 130.558C92.5846 130.847 92.3676 131.064 92.1022 131.064C91.8369 131.064 91.6038 130.847 91.6038 130.558Z" fill="#263238"/>
<path d="M95.5032 124.853H96.1464L93.7183 131.762H93.0831L95.5112 124.853H95.5032Z" fill="#263238"/>
<path d="M97.5936 124.853H98.2368L95.8088 131.762H95.1736L97.6017 124.853H97.5936Z" fill="#263238"/>
<path d="M103.503 131.024V127.284L101.638 130.398H101.3L99.4429 127.3V131.016H98.7354V125.88H99.3384L101.485 129.491L103.6 125.88H104.203V131.016H103.503V131.024Z" fill="#263238"/>
<path d="M107.724 129.25V131.023H107V129.234L104.958 125.888H105.746L107.394 128.592L109.051 125.888H109.774L107.732 129.25H107.724Z" fill="#263238"/>
<path d="M110.417 125.896H111.149V130.389H113.931V131.031H110.409V125.896H110.417Z" fill="#263238"/>
<path d="M114.783 125.896H115.515V131.031H114.783V125.896Z" fill="#263238"/>
<path d="M121.489 125.896V131.031H120.886L117.798 127.204V131.031H117.067V125.896H117.67L120.757 129.723V125.896H121.489Z" fill="#263238"/>
<path d="M124.705 128.744L123.764 129.699V131.023H123.032V125.888H123.764V128.752L126.554 125.888H127.39L125.195 128.199L127.535 131.023H126.674L124.705 128.744Z" fill="#263238"/>
<path d="M129.818 124.853H130.461L128.033 131.762H127.398L129.826 124.853H129.818Z" fill="#263238"/>
<path d="M69.3411 105.081H69.7672V106.694C69.3652 107.047 68.8024 107.231 68.2155 107.231C66.9291 107.231 65.9803 106.316 65.9803 105.081C65.9803 103.845 66.921 102.93 68.2155 102.93C68.8587 102.93 69.4134 103.139 69.7913 103.54L69.5099 103.821C69.1561 103.468 68.73 103.323 68.2315 103.323C67.1863 103.323 66.4145 104.07 66.4145 105.073C66.4145 106.076 67.1783 106.822 68.2235 106.822C68.6255 106.822 69.0034 106.734 69.333 106.493V105.065L69.3411 105.081Z" fill="white"/>
<path d="M73.7148 105.738H71.0535C71.1018 106.404 71.6083 106.846 72.3078 106.846C72.6937 106.846 73.0394 106.709 73.2806 106.428L73.5218 106.709C73.2404 107.046 72.7982 107.231 72.2917 107.231C71.3028 107.231 70.6194 106.557 70.6194 105.61C70.6194 104.663 71.2787 103.997 72.1711 103.997C73.0635 103.997 73.7148 104.655 73.7148 105.61C73.7148 105.65 73.7148 105.698 73.7148 105.746V105.738ZM71.0535 105.417H73.3128C73.2565 104.8 72.8063 104.358 72.1791 104.358C71.552 104.358 71.1098 104.791 71.0535 105.417Z" fill="white"/>
<path d="M76.2715 106.998C76.1027 107.151 75.8454 107.223 75.5961 107.223C74.9931 107.223 74.6635 106.886 74.6635 106.3V104.382H74.0927V104.021H74.6635V103.331H75.0896V104.021H76.0544V104.382H75.0896V106.276C75.0896 106.653 75.2826 106.854 75.6363 106.854C75.8132 106.854 75.9901 106.798 76.1107 106.693L76.2635 106.998H76.2715Z" fill="white"/>
<path d="M78.7238 102.97H79.174V106.806H81.5458V107.191H78.7238V102.962V102.97Z" fill="white"/>
<path d="M82.0925 103.018C82.0925 102.858 82.2292 102.713 82.4061 102.713C82.583 102.713 82.7196 102.842 82.7196 103.01C82.7196 103.187 82.583 103.323 82.4061 103.323C82.2292 103.323 82.0925 103.187 82.0925 103.018ZM82.189 104.021H82.6151V107.199H82.189V104.021Z" fill="white"/>
<path d="M86.7397 105.353V107.191H86.3136V105.393C86.3136 104.727 85.9598 104.382 85.3568 104.382C84.6734 104.382 84.2473 104.808 84.2473 105.53V107.199H83.8212V104.021H84.2312V104.607C84.4644 104.222 84.8905 103.997 85.4372 103.997C86.209 103.997 86.7397 104.446 86.7397 105.353Z" fill="white"/>
<path d="M89.0873 105.602L88.3396 106.292V107.199H87.9135V102.721H88.3396V105.754L90.237 104.021H90.7677L89.4089 105.321L90.8963 107.199H90.3737L89.0873 105.602Z" fill="white"/>
<path d="M163.288 128.913C163.288 127.677 164.229 126.763 165.508 126.763C166.127 126.763 166.681 126.971 167.059 127.381L166.778 127.661C166.432 127.308 166.014 127.164 165.524 127.164C164.502 127.164 163.731 127.91 163.731 128.913C163.731 129.916 164.502 130.663 165.524 130.663C166.006 130.663 166.432 130.51 166.778 130.157L167.059 130.438C166.681 130.847 166.127 131.056 165.508 131.056C164.237 131.056 163.297 130.141 163.297 128.905L163.288 128.913Z" fill="white"/>
<path d="M167.55 128.913C167.55 127.686 168.49 126.763 169.777 126.763C171.063 126.763 171.996 127.677 171.996 128.913C171.996 130.149 171.047 131.064 169.777 131.064C168.506 131.064 167.55 130.149 167.55 128.913ZM171.546 128.913C171.546 127.902 170.79 127.164 169.777 127.164C168.764 127.164 167.992 127.91 167.992 128.913C167.992 129.916 168.756 130.663 169.777 130.663C170.798 130.663 171.546 129.916 171.546 128.913Z" fill="white"/>
<path d="M176.305 128.247C176.305 129.146 175.654 129.692 174.577 129.692H173.443V131.024H172.993V126.795H174.577C175.654 126.795 176.305 127.341 176.305 128.247ZM175.855 128.247C175.855 127.573 175.405 127.188 174.561 127.188H173.435V129.299H174.561C175.405 129.299 175.855 128.913 175.855 128.247Z" fill="white"/>
<path d="M178.725 129.563V131.024H178.283V129.563L176.587 126.795H177.061L178.516 129.17L179.972 126.795H180.422L178.725 129.563Z" fill="white"/>
<path d="M184.176 121.948V136.023H158.689V121.948H184.176ZM184.98 121.146H157.885V136.825H184.98V121.146Z" fill="white"/>
<path d="M138.421 148.693H181.507C183.421 148.693 184.972 150.242 184.972 152.152V161.123C184.972 163.033 183.421 164.582 181.507 164.582H138.421C136.507 164.582 134.955 163.033 134.955 161.123V152.152C134.955 150.242 136.507 148.693 138.421 148.693Z" fill="#058DD1"/>
<path d="M147.015 158.235L147.289 157.649C147.683 158.002 148.35 158.251 149.017 158.251C149.926 158.251 150.312 157.898 150.312 157.44C150.312 156.164 147.136 156.967 147.136 155.025C147.136 154.214 147.763 153.532 149.146 153.532C149.757 153.532 150.4 153.701 150.834 153.998L150.585 154.599C150.127 154.311 149.612 154.174 149.146 154.174C148.254 154.174 147.876 154.551 147.876 155.009C147.876 156.285 151.052 155.49 151.052 157.408C151.052 158.21 150.408 158.893 149.017 158.893C148.213 158.893 147.426 158.628 147.007 158.235H147.015Z" fill="white"/>
<path d="M156.664 153.596V158.836H155.916V156.501H152.901V158.836H152.153V153.596H152.901V155.851H155.916V153.596H156.664Z" fill="white"/>
<path d="M161.584 157.528H158.794L158.215 158.836H157.443L159.823 153.596H160.563L162.943 158.836H162.155L161.576 157.528H161.584ZM161.319 156.926L160.185 154.359L159.051 156.926H161.319Z" fill="white"/>
<path d="M167.236 158.836L166.102 157.232C165.998 157.232 165.885 157.248 165.773 157.248H164.478V158.844H163.731V153.604H165.773C167.14 153.604 167.96 154.295 167.96 155.434C167.96 156.245 167.542 156.822 166.802 157.087L168.048 158.844H167.228L167.236 158.836ZM167.212 155.426C167.212 154.68 166.713 154.254 165.749 154.254H164.47V156.614H165.749C166.705 156.614 167.212 156.18 167.212 155.434V155.426Z" fill="white"/>
<path d="M172.985 158.186V158.836H169.174V153.596H172.88V154.246H169.929V155.851H172.559V156.485H169.929V158.178H172.985V158.186Z" fill="white"/>
<path d="M239.001 96.4463H225.743C224.389 96.4463 223.291 97.5421 223.291 98.8938V112.126C223.291 113.478 224.389 114.574 225.743 114.574H239.001C240.355 114.574 241.453 113.478 241.453 112.126V98.8938C241.453 97.5421 240.355 96.4463 239.001 96.4463Z" fill="#058DD1"/>
<path d="M228.187 102.345C228.809 102.345 229.313 101.842 229.313 101.221C229.313 100.601 228.809 100.098 228.187 100.098C227.566 100.098 227.062 100.601 227.062 101.221C227.062 101.842 227.566 102.345 228.187 102.345Z" fill="white"/>
<path d="M236.565 106.405C237.187 106.405 237.691 105.902 237.691 105.282C237.691 104.661 237.187 104.158 236.565 104.158C235.943 104.158 235.439 104.661 235.439 105.282C235.439 105.902 235.943 106.405 236.565 106.405Z" fill="white"/>
<path d="M229.739 109.799C229.739 110.417 229.232 110.923 228.613 110.923C227.994 110.923 227.488 110.417 227.488 109.799C227.488 109.181 227.994 108.676 228.613 108.676C229.232 108.676 229.739 109.181 229.739 109.799Z" fill="white"/>
<path d="M228.187 101.221L236.565 105.282L228.613 109.799" stroke="white" stroke-width="0.5" stroke-miterlimit="10"/>
<path d="M232.834 112.399C232.834 112.399 232.802 116.17 234.981 117.944C234.981 117.944 231.998 117.422 230.623 113.049L232.834 112.399Z" fill="#058DD1"/>
<path d="M232.85 289.186H238.712V227.999H232.85V289.186Z" fill="#058DD1"/>
<path opacity="0.2" d="M232.85 289.186H238.712V227.999H232.85V289.186Z" fill="black"/>
<path d="M190.89 289.186H196.751V227.999H190.89V289.186Z" fill="#058DD1"/>
<path opacity="0.2" d="M190.89 289.186H196.751V227.999H190.89V289.186Z" fill="black"/>
<path d="M240.561 289.186H246.422V227.999H240.561V289.186Z" fill="#058DD1"/>
<path d="M282.522 289.186H288.383V227.999H282.522V289.186Z" fill="#058DD1"/>
<path d="M178.878 225.736V230.262C178.878 230.992 179.465 231.586 180.196 231.586H293.93C294.662 231.586 295.257 230.992 295.257 230.262V225.736C295.257 225.014 294.662 224.42 293.93 224.42H180.196C179.465 224.42 178.878 225.014 178.878 225.736Z" fill="#058DD1"/>
<path opacity="0.2" d="M178.878 225.736V230.262C178.878 230.992 179.465 231.586 180.196 231.586H293.93C294.662 231.586 295.257 230.992 295.257 230.262V225.736C295.257 225.014 294.662 224.42 293.93 224.42H180.196C179.465 224.42 178.878 225.014 178.878 225.736Z" fill="white"/>
<path opacity="0.3" d="M249.525 225.736V230.262C249.525 230.992 250.112 231.586 250.844 231.586H293.922C294.654 231.586 295.249 230.992 295.249 230.262V225.736C295.249 225.014 294.654 224.42 293.922 224.42H250.844C250.112 224.42 249.525 225.014 249.525 225.736Z" fill="white"/>
<path d="M248.657 123.633C252.564 124.58 255.137 128.352 255.105 132.252C255.081 136.151 255.218 136.103 257.445 137.54C259.672 138.976 256.014 141.568 256.014 141.568C256.014 141.568 256.922 142.948 255.756 144.24C254.583 145.532 256.866 145.957 256.866 145.957C256.866 145.957 255.909 148.004 254.695 146.904C254.695 146.904 254.824 149.111 251.238 149.263C247.644 149.416 241.895 150.933 240.529 149.031C239.162 147.129 234.82 141.624 234.82 141.624C234.82 141.624 231.001 140.132 232.111 134.924C233.228 129.716 237.264 125.96 241.019 126.073C244.782 126.177 248.665 123.641 248.665 123.641L248.657 123.633Z" fill="#263238"/>
<path d="M223.001 155.073C223.001 155.073 219.995 155.675 220.003 156.228C220.011 156.782 221.176 161.115 221.707 161.637C222.238 162.166 223.532 162.816 223.532 162.816L222.76 169.822L226.869 170.881L226.925 163.418C226.925 163.418 228.364 161.228 227.327 159.069C226.29 156.91 222.993 155.081 222.993 155.081L223.001 155.073Z" fill="#E4897B"/>
<path opacity="0.2" d="M223.001 155.073C223.001 155.073 219.995 155.675 220.003 156.228C220.011 156.782 221.176 161.115 221.707 161.637C222.238 162.166 223.532 162.816 223.532 162.816L222.76 169.822L226.869 170.881L226.925 163.418C226.925 163.418 228.364 161.228 227.327 159.069C226.29 156.91 222.993 155.081 222.993 155.081L223.001 155.073Z" fill="black"/>
<path d="M233.92 155.892C231.202 157.834 230.165 168.562 229.096 170.119C228.026 171.676 227.592 167.158 227.592 167.158L222.117 166.893C222.117 166.893 221.369 173.281 224.521 177.814C227.673 182.356 233.502 178.986 236.798 171.7C240.095 164.414 233.912 155.892 233.912 155.892H233.92Z" fill="#263238"/>
<path opacity="0.2" d="M224.537 177.823C225.253 178.842 226.097 179.468 227.022 179.733C230.189 180.639 234.266 177.349 236.814 171.708C237.635 169.887 237.876 167.977 237.755 166.147C237.393 160.691 233.92 155.9 233.92 155.9C231.203 157.842 230.165 168.571 229.096 170.135C228.019 171.692 227.601 167.166 227.601 167.166L222.125 166.901C222.125 166.901 221.378 173.289 224.537 177.831V177.823Z" fill="white"/>
<path d="M233.839 155.996C232.448 156.172 228.895 167.888 228.895 167.888L237.787 171.732L240.143 164.831L233.847 156.004L233.839 155.996Z" fill="#058DD1"/>
<path opacity="0.5" d="M240.143 164.823L237.787 171.732L235.496 170.745L228.895 167.888C228.895 167.888 232.448 156.172 233.839 155.996L236.46 159.663L240.143 164.823Z" fill="white"/>
<path opacity="0.2" d="M240.143 164.822L237.787 171.731L235.496 170.744C233.148 165.721 235.271 161.46 236.46 159.663L240.143 164.822Z" fill="black"/>
<path d="M198.19 282.405L192.763 280.921L193.736 267.712L199.147 269.205L198.19 282.405Z" fill="#E4897B"/>
<path d="M192.433 280.199L198.721 280.632C198.938 280.632 199.115 280.817 199.107 281.041L199.066 286.032C199.026 286.57 198.56 286.987 198.021 286.955C195.826 286.771 194.789 286.57 192.023 286.353C190.327 286.233 186.958 286.153 184.659 285.615C182.359 285.078 182.954 282.831 183.967 282.855C186.387 282.895 189.772 281.571 191.436 280.439C191.726 280.247 192.072 280.159 192.425 280.183L192.433 280.199Z" fill="#263238"/>
<path d="M189.346 280.664C189.169 280.463 189.129 280.175 189.234 279.926C189.274 279.757 189.402 279.629 189.563 279.573C190.271 279.356 191.782 280.544 191.951 280.68C191.991 280.712 192.007 280.768 191.991 280.817C191.983 280.865 191.935 280.905 191.887 280.905C191.388 280.993 190.882 281.025 190.375 281.001C189.997 281.017 189.627 280.897 189.338 280.656L189.346 280.664ZM189.644 279.846C189.563 279.87 189.507 279.934 189.483 280.014C189.418 280.175 189.443 280.351 189.547 280.488C189.796 280.76 190.528 280.849 191.541 280.72C190.922 280.263 190.021 279.733 189.644 279.846Z" fill="#058DD1"/>
<path d="M191.79 280.913C191.251 280.544 190.504 279.316 190.673 278.714C190.737 278.489 190.946 278.345 191.171 278.353C191.38 278.345 191.573 278.425 191.718 278.57C192.24 279.156 191.999 280.776 191.991 280.825C191.983 280.865 191.951 280.905 191.911 280.921C191.895 280.921 191.871 280.921 191.854 280.913C191.83 280.921 191.806 280.921 191.782 280.913H191.79ZM191.179 278.634C190.994 278.642 190.938 278.73 190.922 278.802C190.833 279.204 191.308 280.127 191.758 280.568C191.806 280.046 191.83 279.115 191.517 278.77C191.453 278.69 191.348 278.642 191.243 278.634H191.179Z" fill="#058DD1"/>
<path opacity="0.2" d="M199.147 269.205L193.736 267.721L193.181 275.272L198.624 276.475L199.147 269.205Z" fill="black"/>
<path d="M205.273 282.213L210.395 284.54L211.697 279.051L213.45 271.669L208.345 269.326L206.592 276.708L205.273 282.213Z" fill="#E4897B"/>
<path opacity="0.2" d="M206.592 276.708L211.697 279.051L213.45 271.669L208.345 269.326L206.592 276.708Z" fill="black"/>
<path d="M205.064 281.45L211.207 282.879C211.424 282.919 211.569 283.127 211.528 283.344L210.692 288.271C210.572 288.801 210.041 289.13 209.51 289.017C207.372 288.48 206.383 288.119 203.689 287.469C202.033 287.075 198.721 286.466 196.534 285.575C194.355 284.684 195.296 282.558 196.293 282.742C198.672 283.167 202.226 282.397 204.051 281.547C204.373 281.402 204.726 281.37 205.064 281.45Z" fill="#263238"/>
<path d="M201.945 281.418C201.8 281.186 201.808 280.897 201.953 280.672C202.017 280.52 202.162 280.407 202.331 280.375C203.062 280.271 204.365 281.691 204.517 281.852C204.55 281.892 204.558 281.948 204.534 281.996C204.518 282.044 204.469 282.076 204.413 282.068C203.906 282.068 203.4 282.028 202.909 281.924C202.532 281.884 202.194 281.699 201.945 281.418ZM202.363 280.664C202.282 280.68 202.21 280.728 202.178 280.808C202.089 280.953 202.081 281.129 202.162 281.282C202.363 281.595 203.07 281.787 204.099 281.828C203.561 281.274 202.757 280.608 202.363 280.664Z" fill="#058DD1"/>
<path d="M204.316 282.052C203.85 281.603 203.303 280.271 203.561 279.709C203.657 279.501 203.89 279.388 204.115 279.428C204.316 279.453 204.501 279.565 204.622 279.733C205.048 280.391 204.55 281.956 204.534 282.004C204.517 282.044 204.485 282.077 204.437 282.085C204.421 282.085 204.397 282.085 204.389 282.06C204.365 282.06 204.341 282.06 204.316 282.044V282.052ZM204.075 279.709C203.89 279.685 203.818 279.765 203.794 279.838C203.641 280.223 203.963 281.202 204.341 281.707C204.477 281.194 204.646 280.287 204.389 279.894C204.333 279.806 204.244 279.741 204.148 279.717H204.083L204.075 279.709Z" fill="#058DD1"/>
<path d="M243.23 207.224L244.878 188.977L275.406 189.691C275.406 189.691 279.024 215.112 276.395 219.783C271.708 228.12 240.931 223.386 233.735 224.1C230.8 225.664 215.066 277.679 215.066 277.679L206.262 274.132C206.262 274.132 215.733 230.23 217.888 221.957C220.887 210.458 233.116 210.659 243.222 207.216L243.23 207.224Z" fill="#263238"/>
<path d="M192.642 273.242L200.409 273.956C200.409 273.956 209.936 225.544 210.668 225.343C211.995 224.966 215.854 224.533 217.928 223.995C232.344 220.256 267.833 213.371 267.833 213.371L254.743 200.789C254.743 200.789 195.4 207.898 194.082 221.797C193.446 228.481 192.634 273.242 192.634 273.242H192.642Z" fill="#263238"/>
<path opacity="0.2" d="M212.775 225.375C214.101 224.998 215.862 224.533 217.936 223.995C217.365 224.3 219.03 216.757 220.694 214.807C223.998 210.923 237.256 208.821 242.008 208.059C245.988 207.425 259.326 206.245 259.326 206.245C259.326 206.245 235.777 204.215 218.017 209.078C209.245 211.485 210.805 220.031 212.767 225.375H212.775Z" fill="black"/>
<path d="M228.879 157.472C228.951 157.753 228.774 158.018 228.485 158.058L223.299 158.78C223.01 158.82 222.712 158.628 222.64 158.339L220.051 148.284C219.979 148.003 220.148 147.666 220.437 147.626L225.623 146.904C225.912 146.864 226.218 147.129 226.29 147.409L228.879 157.464V157.472Z" fill="#263238"/>
<path opacity="0.5" d="M225.703 147.433L228.324 157.584C228.396 157.873 228.276 158.09 227.986 158.13L223.588 158.748C223.291 158.788 222.728 158.7 222.656 158.419L220.035 148.236C219.962 147.947 220.429 147.65 220.726 147.602L225.124 146.984C225.413 146.944 225.639 147.152 225.711 147.433H225.703Z" fill="white"/>
<path d="M205.595 272.102L205.273 275.055L215.46 278.634L216.409 276.475L205.595 272.102Z" fill="#058DD1"/>
<path d="M191.026 270.633L191.34 273.586L201.036 274.694L201.446 272.367L191.026 270.633Z" fill="#058DD1"/>
<path d="M244.187 192.7C242.402 182.476 239.395 168.795 233.839 155.996C236.766 154.76 239.773 153.741 242.844 152.946C247.33 151.735 251.881 150.78 256.472 150.09C259.648 149.752 262.848 149.664 266.04 149.825C266.04 149.825 272.922 162.656 276.411 192.7H244.187Z" fill="#058DD1"/>
<path opacity="0.6" d="M276.411 192.699H244.187C242.402 182.484 239.403 168.803 233.839 155.996C236.766 154.76 239.773 153.741 242.844 152.946C247.33 151.735 251.881 150.78 256.472 150.09C259.656 149.752 262.856 149.664 266.04 149.833C266.04 149.833 266.699 151.052 267.712 153.636C268.854 156.549 270.445 161.187 272.053 167.743C273.629 174.163 275.221 182.42 276.411 192.699Z" fill="white"/>
<path opacity="0.2" d="M272.053 167.743C266.835 171.619 259.246 166.106 259.246 166.106L267.712 153.636C268.854 156.549 270.445 161.187 272.053 167.743Z" fill="black"/>
<path d="M249.107 158.315C254.197 159.438 258.136 152.128 258.136 152.128C258.136 152.128 258.144 150.194 250.426 151.165C242.707 152.128 241.952 156.742 249.107 158.323V158.315Z" fill="#263238"/>
<path opacity="0.2" d="M249.107 158.315C254.197 159.438 258.136 152.128 258.136 152.128C258.136 152.128 258.144 150.194 250.426 151.165C242.707 152.128 241.952 156.742 249.107 158.323V158.315Z" fill="white"/>
<path opacity="0.5" d="M243.986 168.393L256.745 167.021L259.825 181.698L247.467 182.677L243.986 168.393Z" fill="white"/>
<path opacity="0.2" d="M243.986 168.393L259.825 181.698L256.745 167.021L243.986 168.393Z" fill="black"/>
<path d="M237.457 162.977L232.826 159.944C232.826 159.944 230.865 154.022 230.414 153.444C229.964 152.866 225.084 154.19 224.545 154.262C224.006 154.335 225.438 160.361 226.089 160.883C226.74 161.404 228.871 161.476 228.871 161.476L234.137 166.107L237.465 162.977H237.457Z" fill="#E4897B"/>
<path d="M265.268 149.841C262.172 150.555 254.751 163.362 250.788 165.722C246.824 168.081 235.857 160.49 235.857 160.49L232.103 165.152C232.103 165.152 240.987 172.968 248.762 173.152C256.536 173.337 267.559 162.367 269.199 158.339C270.84 154.319 269.031 148.966 265.268 149.833V149.841Z" fill="#263238"/>
<path opacity="0.2" d="M265.268 149.841C262.172 150.555 254.751 163.362 250.788 165.722C246.824 168.081 235.857 160.49 235.857 160.49L232.103 165.152C232.103 165.152 240.987 172.968 248.762 173.152C256.536 173.337 267.559 162.367 269.199 158.339C270.84 154.319 269.031 148.966 265.268 149.833V149.841Z" fill="white"/>
<path d="M248.882 138.623C250.104 143.012 252.991 150.731 257.131 151.999C257.131 151.999 254.084 156.983 249.517 157.4C246.615 157.665 245.007 154.391 245.007 154.391C247.966 153.837 246.84 151.67 244.5 148.958L248.882 138.631V138.623Z" fill="#E4897B"/>
<path opacity="0.2" d="M247.097 142.835L244.509 148.95C245.063 149.576 245.562 150.25 245.996 150.964C248.906 151.181 250.997 146.575 250.281 144.705C250.024 143.935 247.612 143.461 247.089 142.835H247.097Z" fill="black"/>
<path d="M238.824 131.617C241.598 132.765 241.067 135.79 236.469 141.295C233.63 138.864 232.095 133.319 233.582 131.537C235.07 129.756 236.404 130.63 238.824 131.617Z" fill="#263238"/>
<path d="M250.233 133.985C251.198 139.979 252.066 143.429 249.759 147.137C246.285 152.706 238.366 151.638 235.624 146.053C233.172 141.038 231.998 132.075 237.265 128.432C241.011 125.808 246.189 126.714 248.818 130.454C249.558 131.505 250.04 132.717 250.233 133.985Z" fill="#E4897B"/>
<path d="M241.751 137.588C241.855 138.069 241.687 138.519 241.373 138.583C241.059 138.647 240.722 138.326 240.609 137.844C240.505 137.363 240.665 136.922 240.979 136.841C241.293 136.769 241.606 137.122 241.751 137.588Z" fill="#263238"/>
<path d="M236.276 138.823C236.38 139.305 236.211 139.754 235.898 139.818C235.584 139.883 235.238 139.562 235.126 139.072C235.013 138.583 235.19 138.141 235.504 138.077C235.817 138.005 236.163 138.342 236.276 138.823Z" fill="#263238"/>
<path d="M238.117 138.647C237.876 140.244 237.409 141.809 236.742 143.277C237.795 143.879 239.146 143.189 239.146 143.189L238.125 138.647H238.117Z" fill="#DE5753"/>
<path d="M242.86 135.526C242.925 135.526 242.989 135.493 243.029 135.445C243.134 135.325 243.118 135.14 242.997 135.036C242.298 134.41 241.341 134.169 240.432 134.386C240.279 134.426 240.191 134.579 240.231 134.723V134.739C240.279 134.892 240.44 134.972 240.593 134.932C241.317 134.771 242.064 134.972 242.611 135.469C242.683 135.518 242.764 135.542 242.852 135.518L242.86 135.526Z" fill="#263238"/>
<path d="M233.365 137.539C233.478 137.515 233.558 137.427 233.59 137.323C233.735 136.6 234.225 135.991 234.893 135.686C235.045 135.629 235.118 135.461 235.069 135.317C235.013 135.172 234.852 135.092 234.7 135.14C233.839 135.517 233.22 136.279 233.027 137.194C232.987 137.347 233.084 137.499 233.236 137.539C233.277 137.547 233.317 137.547 233.365 137.539Z" fill="#263238"/>
<path d="M246.695 129.275C244.139 130.839 245.152 133.744 250.571 138.446C252.983 135.59 253.61 129.868 251.857 128.36C250.104 126.851 248.93 127.918 246.695 129.283V129.275Z" fill="#263238"/>
<path d="M254.116 138.077C254.028 139.602 253.336 141.03 252.195 142.049C250.667 143.381 249.035 142.226 248.729 140.34C248.456 138.639 248.922 135.887 250.796 135.285C252.669 134.683 254.213 136.207 254.116 138.077Z" fill="#E4897B"/>
<path d="M240.143 144.497C240.625 145.131 241.236 146.383 241.236 146.383C241.357 146.351 241.486 146.311 241.606 146.271C243.27 145.749 243.873 144.963 244.034 144.248C244.123 143.855 244.074 143.478 243.994 143.189C243.906 142.852 243.769 142.627 243.769 142.627C243.053 143.43 241.534 144.032 240.714 144.321C240.368 144.441 240.151 144.505 240.151 144.505L240.143 144.497Z" fill="#263238"/>
<path d="M240.706 144.312L241.043 144.858C242.611 144.368 243.648 143.807 243.994 143.181C243.906 142.844 243.769 142.619 243.769 142.619C243.053 143.422 241.534 144.023 240.714 144.312H240.706Z" fill="white"/>
<path d="M241.606 146.27C243.27 145.749 243.873 144.962 244.034 144.248C243.471 144.449 242.82 144.746 242.298 145.187C241.896 145.524 241.703 145.909 241.606 146.27Z" fill="#A24E3F"/>
<path d="M251.825 129.242C251.825 129.242 253.312 126.859 250.128 124.427C246.945 121.996 243.101 124.427 243.101 124.427C243.101 124.427 242.45 123.802 240.135 123.344C237.827 122.895 234.7 126.145 232.786 126.931C230.881 127.71 228.919 129.772 229.924 132.259C230.929 134.747 227.906 140.468 232.416 139.834C232.416 139.834 231.042 139.233 231.572 137.548C232.103 135.862 233.984 135.806 234.048 132.316C234.113 128.825 237.417 131.032 237.417 131.032C237.417 131.032 238.462 129.411 239.894 129.571C241.325 129.724 243.809 130.807 244.155 135.156C244.5 139.505 247.893 140.661 250.804 138.077C253.722 135.493 254.301 135.541 254.832 136.841C254.832 136.841 255.941 134.948 253.562 134.322C251.182 133.696 250.908 130.526 251.809 129.25L251.825 129.242Z" fill="#263238"/>
<path d="M255.748 157.761L265.823 165.248C265.823 165.248 273.002 157.256 268.87 150.972C264.737 144.689 255.756 157.761 255.756 157.761H255.748Z" fill="#058DD1"/>
<path opacity="0.5" d="M255.748 157.761L265.823 165.248C265.823 165.248 273.002 157.256 268.87 150.972C264.737 144.689 255.756 157.761 255.756 157.761H255.748Z" fill="white"/>
</g>
<defs>
<clipPath id="clip0_119_1074">
<rect width="320" height="299" fill="white"/>
</clipPath>
</defs>
</svg>
