<svg width="24" height="24" viewBox="0 0 24 24" fill="none" xmlns="http://www.w3.org/2000/svg">
<path d="M12 22.5C13.3791 22.5018 14.745 22.231 16.0192 21.7032C17.2933 21.1754 18.4506 20.401 19.4245 19.4245C20.401 18.4506 21.1754 17.2933 21.7032 16.0192C22.231 14.745 22.5018 13.3791 22.5 12C22.5017 10.6209 22.2309 9.25497 21.7031 7.98082C21.1754 6.70667 20.401 5.54938 19.4245 4.57545C18.4506 3.59897 17.2933 2.82458 16.0192 2.29679C14.745 1.769 13.3791 1.49822 12 1.50001C10.6209 1.49825 9.25497 1.76905 7.98082 2.29683C6.70667 2.82462 5.54938 3.59899 4.57545 4.57545C3.59899 5.54938 2.82462 6.70667 2.29683 7.98082C1.76905 9.25497 1.49825 10.6209 1.50001 12C1.49822 13.3791 1.769 14.745 2.29679 16.0192C2.82458 17.2933 3.59897 18.4506 4.57545 19.4245C5.54938 20.401 6.70667 21.1754 7.98082 21.7031C9.25497 22.2309 10.6209 22.5017 12 22.5Z" stroke="black" stroke-width="2" stroke-linejoin="round"/>
<path d="M11.9996 14.4273V12.3273C12.6226 12.3273 13.2316 12.1426 13.7496 11.7965C14.2677 11.4503 14.6714 10.9584 14.9098 10.3828C15.1482 9.8072 15.2106 9.17385 15.0891 8.56281C14.9675 7.95177 14.6675 7.39049 14.227 6.94996C13.7865 6.50942 13.2252 6.20941 12.6141 6.08787C12.0031 5.96633 11.3697 6.02871 10.7942 6.26712C10.2186 6.50554 9.72661 6.90928 9.38048 7.4273C9.03435 7.94531 8.84961 8.55433 8.84961 9.17734" stroke="black" stroke-width="2" stroke-linecap="round" stroke-linejoin="round"/>
<path fill-rule="evenodd" clip-rule="evenodd" d="M12 19.1523C12.3481 19.1523 12.6819 19.0141 12.9281 18.7679C13.1742 18.5218 13.3125 18.1879 13.3125 17.8398C13.3125 17.4917 13.1742 17.1579 12.9281 16.9118C12.6819 16.6656 12.3481 16.5273 12 16.5273C11.6519 16.5273 11.3181 16.6656 11.0719 16.9118C10.8258 17.1579 10.6875 17.4917 10.6875 17.8398C10.6875 18.1879 10.8258 18.5218 11.0719 18.7679C11.3181 19.0141 11.6519 19.1523 12 19.1523Z" fill="black"/>
</svg>
