<svg width="21" height="21" viewBox="0 0 21 21" fill="none" xmlns="http://www.w3.org/2000/svg">
<path d="M20.2309 7.92142L13.594 1.27969C12.7726 0.460189 11.66 0 10.5 0C9.34005 0 8.22741 0.460189 7.406 1.27969L0.769135 7.92142C0.524507 8.16462 0.330559 8.454 0.198533 8.77276C0.0665063 9.09153 -0.000971599 9.43335 1.05695e-05 9.7784V18.3734C1.05695e-05 19.07 0.276572 19.7381 0.768854 20.2307C1.26114 20.7233 1.92882 21 2.62501 21H18.375C19.0712 21 19.7389 20.7233 20.2311 20.2307C20.7234 19.7381 21 19.07 21 18.3734V9.7784C21.001 9.43335 20.9335 9.09153 20.8015 8.77276C20.6694 8.454 20.4755 8.16462 20.2309 7.92142ZM13.125 19.249H7.875V15.8046C7.875 15.108 8.15156 14.4399 8.64385 13.9474C9.13613 13.4548 9.80381 13.1781 10.5 13.1781C11.1962 13.1781 11.8639 13.4548 12.3562 13.9474C12.8484 14.4399 13.125 15.108 13.125 15.8046V19.249ZM19.25 18.3734C19.25 18.6056 19.1578 18.8283 18.9937 18.9925C18.8296 19.1567 18.6071 19.249 18.375 19.249H14.875V15.8046C14.875 14.6436 14.4141 13.5302 13.5936 12.7092C12.7731 11.8882 11.6603 11.427 10.5 11.427C9.33968 11.427 8.22688 11.8882 7.40641 12.7092C6.58594 13.5302 6.125 14.6436 6.125 15.8046V19.249H2.62501C2.39294 19.249 2.17038 19.1567 2.00629 18.9925C1.8422 18.8283 1.75001 18.6056 1.75001 18.3734V9.7784C1.75082 9.54637 1.84292 9.32399 2.00638 9.15941L8.64325 2.52031C9.13649 2.02908 9.80408 1.7533 10.5 1.7533C11.1959 1.7533 11.8635 2.02908 12.3567 2.52031L18.9936 9.16203C19.1564 9.32597 19.2485 9.54728 19.25 9.7784V18.3734Z" fill="#717D96"/>
</svg>
