<svg width="23" height="23" viewBox="0 0 23 23" fill="none" xmlns="http://www.w3.org/2000/svg">
<path d="M20.95 6.775L16.75 8.875M16.75 8.875L16.225 9.1375L11.5 11.5M16.75 8.875V12.55M16.75 8.875L6.775 3.625M11.5 11.5L2.05 6.775M11.5 11.5V21.475M15.2569 2.4511L17.3569 3.5536C19.6154 4.73905 20.7452 5.33125 21.3731 6.397C22 7.4617 22 8.78785 22 11.437V11.5598C22 14.2111 22 15.5372 21.3731 16.6019C20.7452 17.6677 19.6154 18.261 17.3569 19.4464L15.2569 20.5478C13.4131 21.5159 12.4912 22 11.5 22C10.5088 22 9.5869 21.517 7.7431 20.5489L5.6431 19.4464C3.38455 18.261 2.25475 17.6687 1.62685 16.603C1 15.5383 1 14.2121 1 11.563V11.4401C1 8.7889 1 7.46275 1.62685 6.39805C2.25475 5.3323 3.38455 4.73905 5.6431 3.55465L7.7431 2.45215C9.5869 1.48405 10.5088 1 11.5 1C12.4912 1 13.4131 1.483 15.2569 2.4511Z" stroke="#717D96" stroke-width="1.5" stroke-linecap="round"/>
</svg>
