<svg width="295" height="227" viewBox="0 0 295 227" fill="none" xmlns="http://www.w3.org/2000/svg">
<g clip-path="url(#clip0_85_443)">
<path d="M147.5 227C210.679 227 261.895 224.003 261.895 220.306C261.895 216.608 210.679 213.611 147.5 213.611C84.3213 213.611 33.1049 216.608 33.1049 220.306C33.1049 224.003 84.3213 227 147.5 227Z" fill="#F5F5F5"/>
<path d="M140.656 167.237H26.7329C24.8744 167.237 23.3699 165.723 23.3699 163.86V3.34711C23.3876 1.49614 24.8862 0.00591361 26.7329 0H140.656C142.514 0 144.025 1.51389 144.025 3.37667V163.86C144.025 165.723 142.514 167.237 140.656 167.237ZM26.7329 0.118272C24.957 0.118272 23.5174 1.56711 23.5174 3.34711V163.86C23.5174 165.64 24.957 167.083 26.7329 167.089H140.656C142.432 167.089 143.871 165.64 143.877 163.86V3.34711C143.877 1.56711 142.432 0.124186 140.656 0.118272H26.7329Z" fill="#E6E6E6"/>
<path d="M268.273 167.237H154.344C152.486 167.237 150.981 165.723 150.975 163.86V3.34711C150.993 1.49614 152.497 0.00591361 154.344 0H268.273C270.12 0.00591361 271.612 1.49614 271.63 3.34711V163.86C271.63 165.723 270.132 167.231 268.273 167.237ZM154.344 0.118272C152.568 0.118272 151.129 1.56711 151.123 3.34711V163.86C151.123 165.64 152.568 167.083 154.344 167.089H268.273C270.049 167.089 271.488 165.64 271.494 163.86V3.34711C271.494 1.56711 270.049 0.124186 268.273 0.118272H154.344Z" fill="#E6E6E6"/>
<path d="M50.7047 197.207H26.3907V197.355H50.7047V197.207Z" fill="#E0E0E0"/>
<path d="M100.265 196.024H75.8799V196.172H100.265V196.024Z" fill="#E0E0E0"/>
<path d="M131.995 196.024H126.095V196.172H131.995V196.024Z" fill="#E0E0E0"/>
<path d="M73.0243 201.075H45.7368V201.223H73.0243V201.075Z" fill="#E0E0E0"/>
<path d="M167.407 197.13H154.663V197.278H167.407V197.13Z" fill="#E0E0E0"/>
<path d="M189.136 197.13H172.658V197.278H189.136V197.13Z" fill="#E0E0E0"/>
<path d="M268.609 199.632H231.77V199.78H268.609V199.632Z" fill="#E0E0E0"/>
<path d="M295 191.406H0V191.554H295V191.406Z" fill="#EBEBEB"/>
<path opacity="0.8" d="M197.55 12.2709L196.081 32.5369C196.033 33.2406 195.727 33.8852 195.261 34.3642C194.724 34.9378 193.957 35.2986 193.131 35.2986H176.912C176.31 35.2986 175.773 35.1093 175.342 34.7782C174.675 34.2814 174.28 33.4594 174.345 32.5369L175.814 12.2709C175.92 10.7452 177.242 9.50928 178.764 9.50928H194.983C196.505 9.50928 197.656 10.7452 197.55 12.2709Z" fill="#E0E0E0"/>
<path d="M190.517 21.449C190.31 24.4413 188.151 26.86 185.702 26.86C183.254 26.86 181.431 24.4354 181.643 21.449C181.85 18.4568 184.009 16.0381 186.458 16.0381C188.906 16.0381 190.729 18.4627 190.517 21.449Z" fill="white"/>
<path d="M192.564 33.9091H177.72C176.782 33.9091 176.127 33.4597 176.103 32.821C176.068 31.9044 180.882 27.9127 185.449 28.2557C185.467 28.2557 185.484 28.2557 185.496 28.2557C185.496 28.2557 185.531 28.2557 185.549 28.2557C188.346 28.2675 190.983 29.4562 193.196 31.2066C195.396 32.9511 193.314 33.9091 192.558 33.9091H192.564Z" fill="white"/>
<path d="M113.882 34.5654C110.725 34.6068 107.94 32.058 107.681 28.8942C107.421 25.7245 109.775 23.1166 112.938 23.0752C116.094 23.0338 118.879 25.5826 119.139 28.7464C119.398 31.9101 117.044 34.524 113.882 34.5654ZM113.186 26.1266C111.705 26.1444 110.601 27.3685 110.725 28.8528C110.849 30.3371 112.153 31.5317 113.628 31.5139C115.109 31.4962 116.212 30.2721 116.088 28.7878C115.964 27.3034 114.661 26.1089 113.186 26.1266Z" fill="#E0E0E0"/>
<path d="M114.165 25.6828L111.994 25.7124L110.837 11.6853L113.015 11.6616L114.165 25.6828Z" fill="#E0E0E0"/>
<path d="M115.074 12.2886L110.991 12.3418L110.814 10.1597L114.891 10.1064L115.074 12.2886Z" fill="#E0E0E0"/>
<path d="M115.304 15.0918L111.469 15.1391L111.292 12.957L115.127 12.9097L115.304 15.0918Z" fill="#E0E0E0"/>
<path d="M115.64 19.0419L112.289 19.0833L112.112 16.9071L115.457 16.8657L115.64 19.0419Z" fill="#E0E0E0"/>
<path d="M46.7929 153.778C46.8047 153.956 46.8283 154.133 46.8578 154.305C47.0525 155.446 47.6484 156.475 48.4685 157.244C49.4125 158.131 50.6751 158.681 52.0262 158.681H101.875C104.401 158.681 106.342 156.765 106.43 154.305C106.43 154.133 106.43 153.956 106.424 153.778C106.33 152.43 105.699 151.2 104.749 150.319C103.805 149.432 102.542 148.882 101.191 148.882H51.3418C48.6396 148.882 46.6041 151.076 46.7929 153.778Z" fill="#F0F0F0"/>
<path d="M106.43 154.305C106.43 154.464 106.412 154.624 106.389 154.778C106.259 153.5 105.634 152.341 104.731 151.502C103.787 150.615 102.524 150.065 101.173 150.065L48.1617 150.147C48.97 149.361 50.091 148.882 51.3477 148.882H101.197C102.548 148.882 103.805 149.432 104.755 150.319C105.699 151.2 106.342 152.43 106.436 153.778C106.442 153.956 106.448 154.133 106.436 154.305H106.43Z" fill="#E0E0E0"/>
<path d="M97.8987 151.241L98.0639 153.63L100.3 152.802L100.807 153.985L98.5241 154.742L100.117 156.747L99.0846 157.504L97.5329 155.422L96.2939 157.504L95.1906 156.747L96.4827 154.742L94.1168 153.985L94.459 152.814L96.8308 153.613L96.6656 151.247H97.8987V151.241Z" fill="white"/>
<path d="M84.2638 151.241L84.429 153.63L86.6651 152.802L87.1725 153.985L84.8892 154.742L86.4822 156.747L85.4497 157.504L83.898 155.422L82.659 157.504L81.5557 156.747L82.8478 154.742L80.4819 153.985L80.8241 152.814L83.1959 153.613L83.0307 151.247H84.2638V151.241Z" fill="white"/>
<path d="M70.6348 151.241L70.8 153.63L73.0361 152.802L73.5435 153.985L71.2602 154.742L72.8532 156.747L71.8207 157.504L70.269 155.422L69.03 157.504L67.9267 156.747L69.2188 154.742L66.8529 153.985L67.1951 152.814L69.5669 153.613L69.4017 151.247H70.6348V151.241Z" fill="white"/>
<path d="M56.9999 151.241L57.1651 153.63L59.4012 152.802L59.9086 153.985L57.6253 154.742L59.2183 156.747L58.1858 157.504L56.6341 155.422L55.3951 157.504L54.2918 156.747L55.5839 154.742L53.218 153.985L53.5602 152.814L55.932 153.613L55.7668 151.247H56.9999V151.241Z" fill="white"/>
<path d="M90.1107 147.155H87.792L87.7979 146.563H90.1225L90.1107 147.155Z" fill="#E0E0E0"/>
<path d="M100.105 147.155H92.5238L92.5356 146.563H100.117L100.105 147.155Z" fill="#E0E0E0"/>
<g opacity="0.8">
<path d="M158.934 144.174L168.333 158.68L199.343 127.598C199.615 127.326 199.243 126.9 198.936 127.137L169.383 150.354L163.802 141.335L158.928 144.174H158.934Z" fill="#E0E0E0"/>
</g>
<path opacity="0.1" d="M153.317 40.9341L131.051 124.411H138.538L160.557 40.9341H153.317Z" fill="white"/>
<path opacity="0.1" d="M164.876 40.9341L142.609 124.411H157.465L179.484 40.9341H164.876Z" fill="white"/>
<path d="M245.033 116.25L249.729 49.2486C249.883 47.037 248.213 45.2392 245.989 45.2451L129.328 45.3457C127.11 45.3457 125.186 47.1434 125.027 49.3551L120.331 116.356C120.177 118.568 121.847 120.366 124.071 120.36L240.732 120.259C242.95 120.259 244.874 118.462 245.033 116.25Z" fill="#263238"/>
<path d="M243.534 114.789L248.231 47.7877C248.384 45.576 246.714 43.7783 244.49 43.7842L127.829 43.8847C125.611 43.8847 123.688 45.6825 123.528 47.8942L118.832 114.895C118.679 117.107 120.348 118.905 122.573 118.899L239.233 118.798C241.452 118.798 243.375 117.001 243.534 114.789Z" fill="#058DD1"/>
<path opacity="0.6" d="M240.443 115.782C240.277 115.936 239.988 116.125 239.564 116.125L122.903 116.226C122.118 116.226 121.475 115.54 121.534 114.759L126.23 47.758C126.26 47.3381 126.466 47.0661 126.632 46.9064C126.797 46.7527 127.086 46.5634 127.511 46.5634L244.171 46.4629C244.956 46.4629 245.593 47.1489 245.54 47.9295L240.844 114.931C240.814 115.351 240.608 115.623 240.443 115.782Z" fill="white"/>
<path d="M201.638 78.9468H160.686C159.955 78.9468 159.3 79.5381 159.223 80.2655L158.598 86.2678C158.521 86.9952 159.052 87.5866 159.784 87.5866H200.736C201.467 87.5866 202.122 86.9952 202.199 86.2678L202.824 80.2655C202.901 79.5381 202.37 78.9468 201.638 78.9468Z" fill="white"/>
<path d="M165.56 103.458H159.17C158.439 103.458 157.784 104.05 157.707 104.777L157.082 110.78C157.005 111.507 157.536 112.098 158.267 112.098H164.657C165.389 112.098 166.044 111.507 166.12 110.78L166.746 104.777C166.822 104.05 166.291 103.458 165.56 103.458Z" fill="white"/>
<path d="M176.593 103.458H170.203C169.472 103.458 168.817 104.05 168.74 104.777L168.115 110.78C168.038 111.507 168.569 112.098 169.301 112.098H175.69C176.422 112.098 177.077 111.507 177.153 110.78L177.779 104.777C177.856 104.05 177.325 103.458 176.593 103.458Z" fill="white"/>
<path d="M187.626 103.458H181.236C180.505 103.458 179.85 104.05 179.773 104.777L179.148 110.78C179.071 111.507 179.602 112.098 180.334 112.098H186.723C187.455 112.098 188.11 111.507 188.186 110.78L188.812 104.777C188.889 104.05 188.358 103.458 187.626 103.458Z" fill="white"/>
<path d="M198.659 103.458H192.269C191.538 103.458 190.883 104.05 190.806 104.777L190.181 110.78C190.104 111.507 190.635 112.098 191.366 112.098H197.756C198.488 112.098 199.143 111.507 199.219 110.78L199.845 104.777C199.921 104.05 199.39 103.458 198.659 103.458Z" fill="white"/>
<path d="M165.825 99.3724H191.443C192.688 99.3724 193.803 98.3671 193.933 97.1253L194.24 94.1803C194.37 92.9384 193.467 91.9331 192.222 91.9331H166.604C165.359 91.9331 164.244 92.9384 164.114 94.1803L163.808 97.1253C163.678 98.3671 164.58 99.3724 165.825 99.3724Z" stroke="#058DD1" stroke-width="0.55786" stroke-linecap="round" stroke-linejoin="round"/>
<path d="M203.113 66.4453H162.162C161.43 66.4453 160.775 67.0367 160.698 67.764L160.073 73.7664C159.996 74.4937 160.527 75.0851 161.259 75.0851H202.211C202.942 75.0851 203.597 74.4937 203.674 73.7664L204.299 67.764C204.376 67.0367 203.845 66.4453 203.113 66.4453Z" fill="white"/>
<path d="M165.666 83.2693C165.749 82.4591 165.165 81.8086 164.35 81.8086C163.536 81.8086 162.816 82.465 162.734 83.2693C162.651 84.0794 163.235 84.7299 164.049 84.7299C164.864 84.7299 165.583 84.0735 165.666 83.2693Z" fill="#263238"/>
<path d="M170.174 83.2693C170.256 82.4591 169.672 81.8086 168.858 81.8086C168.044 81.8086 167.324 82.465 167.241 83.2693C167.159 84.0794 167.743 84.7299 168.557 84.7299C169.371 84.7299 170.091 84.0735 170.174 83.2693Z" fill="#263238"/>
<path d="M174.675 83.2693C174.758 82.4591 174.174 81.8086 173.36 81.8086C172.545 81.8086 171.826 82.465 171.743 83.2693C171.66 84.0794 172.245 84.7299 173.059 84.7299C173.873 84.7299 174.593 84.0735 174.675 83.2693Z" fill="#263238"/>
<path d="M179.177 83.2693C179.26 82.4591 178.676 81.8086 177.861 81.8086C177.047 81.8086 176.327 82.465 176.245 83.2693C176.162 84.0794 176.746 84.7299 177.56 84.7299C178.375 84.7299 179.094 84.0735 179.177 83.2693Z" fill="#263238"/>
<path d="M183.773 83.2693C183.856 82.4591 183.272 81.8086 182.458 81.8086C181.643 81.8086 180.924 82.465 180.841 83.2693C180.758 84.0794 181.342 84.7299 182.157 84.7299C182.971 84.7299 183.691 84.0735 183.773 83.2693Z" fill="#263238"/>
<path d="M167.141 70.7683C167.224 69.9581 166.64 69.3076 165.825 69.3076C165.011 69.3076 164.291 69.964 164.209 70.7683C164.126 71.5784 164.71 72.2289 165.524 72.2289C166.339 72.2289 167.058 71.5725 167.141 70.7683Z" fill="#263238"/>
<path d="M171.649 70.7683C171.731 69.9581 171.147 69.3076 170.333 69.3076C169.519 69.3076 168.799 69.964 168.716 70.7683C168.634 71.5784 169.218 72.2289 170.032 72.2289C170.846 72.2289 171.566 71.5725 171.649 70.7683Z" fill="#263238"/>
<path d="M176.15 70.7683C176.233 69.9581 175.649 69.3076 174.835 69.3076C174.021 69.3076 173.301 69.964 173.218 70.7683C173.136 71.5784 173.72 72.2289 174.534 72.2289C175.348 72.2289 176.068 71.5725 176.15 70.7683Z" fill="#263238"/>
<path d="M180.652 70.7683C180.735 69.9581 180.151 69.3076 179.336 69.3076C178.522 69.3076 177.802 69.964 177.72 70.7683C177.637 71.5784 178.221 72.2289 179.036 72.2289C179.85 72.2289 180.57 71.5725 180.652 70.7683Z" fill="#263238"/>
<path d="M185.16 70.7683C185.242 69.9581 184.658 69.3076 183.844 69.3076C183.03 69.3076 182.31 69.964 182.227 70.7683C182.145 71.5784 182.729 72.2289 183.543 72.2289C184.357 72.2289 185.077 71.5725 185.16 70.7683Z" fill="#263238"/>
<path d="M189.661 70.7683C189.744 69.9581 189.16 69.3076 188.346 69.3076C187.532 69.3076 186.812 69.964 186.729 70.7683C186.646 71.5784 187.231 72.2289 188.045 72.2289C188.859 72.2289 189.579 71.5725 189.661 70.7683Z" fill="#263238"/>
<path d="M185.838 53.2104L185.52 56.2441C185.49 56.5162 185.248 56.7409 184.971 56.7409C184.694 56.7409 184.499 56.5221 184.528 56.2441L184.847 53.2104C184.947 52.2288 184.233 51.4364 183.254 51.4364H182.168C181.189 51.4364 180.304 52.2347 180.204 53.2104L179.926 56.0253H178.935L179.212 53.2104C179.372 51.6847 180.746 50.4429 182.275 50.4429H183.36C184.888 50.4429 186.003 51.6847 185.838 53.2104Z" fill="#058DD1"/>
<path d="M185.856 56.1317L185.236 62.0394C185.195 62.4119 184.865 62.7135 184.487 62.7135H178.564C178.192 62.7135 177.92 62.4119 177.956 62.0394L178.575 56.1317C178.599 55.8892 178.752 55.6763 178.953 55.558C179.065 55.493 179.189 55.4575 179.325 55.4575H185.242C185.372 55.4575 185.484 55.493 185.584 55.5521C185.767 55.6704 185.88 55.8833 185.85 56.1317H185.856Z" fill="#058DD1"/>
<path d="M232.053 43.394L217.633 43.4768" stroke="#263238" stroke-width="0.55786" stroke-linecap="round" stroke-linejoin="round"/>
<path d="M239.912 43.3525L234.814 43.3762" stroke="#263238" stroke-width="0.55786" stroke-linecap="round" stroke-linejoin="round"/>
<g opacity="0.3">
<path d="M138.709 46.546H155.217L138.438 116.22H125.151C125.151 116.22 125.127 116.22 125.115 116.22C123.469 116.214 122.313 114.635 122.696 113.033L138.709 46.54V46.546Z" fill="white"/>
<path d="M162.545 46.5459H169.548L152.769 116.226H145.765L162.545 46.5459Z" fill="white"/>
</g>
<path d="M51.1235 24.7959H54.4747C51.1058 24.7959 48.5629 27.5339 48.7989 30.9106L55.9084 132.802C56.1444 136.179 59.0649 138.917 62.4397 138.917H59.0885C55.7196 138.917 52.7932 136.179 52.5572 132.802L45.4477 30.9106C45.2117 27.5339 47.7546 24.7959 51.1235 24.7959Z" fill="#058DD1"/>
<path d="M51.1234 24.7959H54.4746C51.1057 24.7959 48.5628 27.5339 48.7988 30.9106L55.9083 132.802C56.1443 136.179 59.0648 138.917 62.4396 138.917H59.0884C55.7195 138.917 52.3211 136.179 52.0851 132.802L44.9756 30.9106C44.7396 27.5339 47.7545 24.7959 51.1234 24.7959Z" fill="#263238"/>
<path d="M60.0855 138.923H101.091C104.459 138.923 107.002 136.185 106.766 132.808L99.6568 30.9164C99.4208 27.5398 96.5003 24.8018 93.1255 24.8018H52.1264C48.7575 24.8018 46.2146 27.5398 46.4506 30.9164L53.5601 132.808C53.7961 136.185 56.7166 138.923 60.0914 138.923H60.0855Z" fill="#058DD1"/>
<g opacity="0.6">
<path d="M93.0193 26.7593C95.3616 26.7593 97.3971 28.6694 97.5623 31.0171L104.672 132.909C104.749 134.003 104.4 135.02 103.692 135.783C102.984 136.54 101.999 136.96 100.914 136.96H59.9085C57.5662 136.96 55.5307 135.049 55.3655 132.702L48.256 30.8101C48.1793 29.7161 48.5274 28.6989 49.2354 27.9361C49.9434 27.1791 50.9287 26.7593 52.0143 26.7593H93.0193Z" fill="white"/>
</g>
<g opacity="0.3">
<path d="M81.4376 136.96H65.0828L78.5702 26.7593H91.7331C92.9308 26.7593 94.0046 27.2619 94.7657 28.0662L81.4376 136.954V136.96Z" fill="white"/>
<path d="M62.1505 136.96H58.4689L71.9563 26.7593H75.6379L62.1505 136.96Z" fill="white"/>
</g>
<path d="M60.8762 74.9077H90.5768" stroke="white" stroke-width="0.55786" stroke-linecap="round" stroke-linejoin="round"/>
<path d="M64.7053 79.3135H87.969" stroke="white" stroke-width="0.55786" stroke-linecap="round" stroke-linejoin="round"/>
<path d="M61.7611 54.6123L61.8024 55.7832H61.0413L61 54.6064L59.6548 52.4834H60.4631L61.3953 53.95L62.2213 52.4834H62.9706L61.767 54.6123H61.7611Z" fill="#058DD1"/>
<path d="M62.9943 54.1275C62.9589 53.1458 63.6964 52.4185 64.7348 52.4185C65.7732 52.4185 66.5579 53.1399 66.5933 54.1275C66.6287 55.1151 65.8853 55.8365 64.8528 55.8365C63.8203 55.8365 63.0297 55.1092 62.9943 54.1275ZM65.8204 54.1275C65.7968 53.5006 65.3425 53.069 64.7525 53.069C64.1625 53.069 63.7377 53.5006 63.7613 54.1275C63.7849 54.7543 64.2392 55.186 64.8292 55.186C65.4192 55.186 65.844 54.7543 65.8204 54.1275Z" fill="#058DD1"/>
<path d="M67.1478 54.3285L67.0829 52.4775H67.844L67.9089 54.2989C67.9325 54.9258 68.2098 55.186 68.6759 55.186C69.142 55.186 69.4016 54.9258 69.378 54.2989L69.3132 52.4775H70.0624L70.1273 54.3285C70.1627 55.2983 69.6258 55.8365 68.6936 55.8365C67.7614 55.8365 67.1832 55.2983 67.1478 54.3285Z" fill="#058DD1"/>
<path d="M73.0302 55.7832L72.3635 54.8607H71.6614L71.6909 55.7832H70.9298L70.8118 52.4834H72.2337C73.1128 52.4834 73.6792 52.9387 73.7028 53.6839C73.7205 54.1806 73.4845 54.5413 73.0656 54.7247L73.8385 55.7832H73.0184H73.0302ZM72.2219 53.1043H71.6024L71.6437 54.2575H72.2632C72.7293 54.2575 72.9535 54.0387 72.9417 53.6839C72.9299 53.3231 72.688 53.1102 72.2219 53.1102V53.1043Z" fill="#058DD1"/>
<path d="M75.4609 54.1275C75.4255 53.134 76.163 52.4185 77.1837 52.4185C77.7501 52.4185 78.2339 52.6254 78.5584 53.0039L78.0864 53.4593C77.8563 53.205 77.5731 53.0749 77.2486 53.0749C76.635 53.0749 76.2102 53.5066 76.2338 54.1334C76.2574 54.7543 76.7058 55.1919 77.3253 55.1919C77.6557 55.1919 77.9271 55.0618 78.1395 54.8016L78.6469 55.257C78.3519 55.6414 77.8858 55.8484 77.3076 55.8484C76.2869 55.8484 75.5022 55.1387 75.4668 54.1393L75.4609 54.1275Z" fill="#058DD1"/>
<path d="M78.8358 54.1275C78.8004 53.1458 79.5379 52.4185 80.5763 52.4185C81.6147 52.4185 82.3994 53.1399 82.4348 54.1275C82.4702 55.1151 81.7268 55.8365 80.6943 55.8365C79.6618 55.8365 78.8712 55.1092 78.8358 54.1275ZM81.6619 54.1275C81.6383 53.5006 81.184 53.069 80.594 53.069C80.004 53.069 79.5792 53.5006 79.6028 54.1275C79.6264 54.7543 80.0807 55.186 80.6707 55.186C81.2607 55.186 81.6855 54.7543 81.6619 54.1275Z" fill="#058DD1"/>
<path d="M82.954 52.4775H84.4467C85.5205 52.4775 86.2816 53.128 86.317 54.1274C86.3524 55.1268 85.6385 55.7773 84.5588 55.7773H83.0661L82.9481 52.4775H82.954ZM84.5057 55.1505C85.1606 55.1505 85.5736 54.7602 85.55 54.1274C85.5264 53.4947 85.0839 53.1044 84.4349 53.1044H83.7387L83.8095 55.1505H84.5057Z" fill="#058DD1"/>
<path d="M89.4793 55.1682L89.5029 55.7832H86.9541L86.8361 52.4834H89.32L89.3436 53.0984H87.6149L87.6385 53.814H89.1666L89.1902 54.4112H87.6621L87.6857 55.1741H89.4793V55.1682Z" fill="#058DD1"/>
<path d="M67.4841 68.0542L67.5077 69.3788H61.295L61.2773 68.3321L64.5695 65.1506C65.3719 64.3641 65.5076 63.8733 65.5017 63.4002C65.4899 62.6255 64.953 62.182 63.9146 62.182C63.0945 62.182 62.416 62.4599 61.9558 63.0631L60.8466 62.2174C61.4838 61.3363 62.6402 60.8159 64.0267 60.8159C65.8557 60.8159 67.0534 61.7444 67.077 63.2405C67.0888 64.0625 66.8764 64.8076 65.7259 65.9075L63.5134 68.0542H67.4841Z" fill="#263238"/>
<path d="M74.3458 66.8481C74.3694 68.2733 73.3192 69.5033 71.0595 69.5033C69.8677 69.5033 68.67 69.1426 67.8794 68.5275L68.5343 67.3093C69.142 67.8179 70.0624 68.1432 71.0182 68.1432C72.1392 68.1432 72.7882 67.6464 72.7764 66.8658C72.7646 66.103 72.1982 65.6121 70.9238 65.6121H70.1509L70.1332 64.5418L72.0035 62.2591H68.1744L68.1508 60.9463H73.8915L73.9092 61.993L71.9032 64.4294C73.4962 64.6364 74.3163 65.5885 74.3399 66.854L74.3458 66.8481Z" fill="#263238"/>
<path d="M82.2105 66.9543C82.24 68.5214 80.8948 69.4972 78.8003 69.4972C76.7058 69.4972 75.3547 68.5214 75.3252 66.9543C75.3075 66.0259 75.7795 65.3399 76.635 64.9378C75.9565 64.5652 75.573 63.962 75.5553 63.1637C75.5317 61.7148 76.7766 60.8101 78.641 60.8101C80.5054 60.8101 81.8094 61.7148 81.8389 63.1637C81.8507 63.962 81.4789 64.5652 80.8004 64.9378C81.6854 65.334 82.1929 66.0259 82.2047 66.9543H82.2105ZM80.6352 66.907C80.6175 66.0732 79.8918 65.5528 78.7354 65.5528C77.579 65.5528 76.8888 66.0732 76.9065 66.907C76.9242 67.7645 77.6262 68.2671 78.7826 68.2671C79.939 68.2671 80.6529 67.7586 80.6352 66.907ZM77.1071 63.2406C77.1189 63.962 77.7265 64.4233 78.7177 64.4233C79.7089 64.4233 80.3225 63.962 80.3107 63.2406C80.2989 62.4777 79.6382 62.046 78.6765 62.046C77.7148 62.046 77.0953 62.4777 77.1071 63.2406Z" fill="#263238"/>
<path d="M90.0575 66.9543C90.087 68.5214 88.7418 69.4972 86.6473 69.4972C84.5528 69.4972 83.2017 68.5214 83.1722 66.9543C83.1545 66.0259 83.6265 65.3399 84.482 64.9378C83.8035 64.5652 83.42 63.962 83.4023 63.1637C83.3787 61.7148 84.6236 60.8101 86.488 60.8101C88.3524 60.8101 89.6563 61.7148 89.6799 63.1637C89.6917 63.962 89.32 64.5652 88.6415 64.9378C89.5265 65.334 90.0339 66.0259 90.0457 66.9543H90.0575ZM88.4822 66.907C88.4645 66.0732 87.7388 65.5528 86.5824 65.5528C85.426 65.5528 84.7357 66.0732 84.7534 66.907C84.7711 67.7645 85.4732 68.2671 86.6296 68.2671C87.786 68.2671 88.4999 67.7586 88.4822 66.907ZM84.954 63.2406C84.9658 63.962 85.5735 64.4233 86.5647 64.4233C87.5559 64.4233 88.1695 63.962 88.1577 63.2406C88.1459 62.4777 87.4851 62.046 86.5234 62.046C85.5617 62.046 84.9422 62.4777 84.954 63.2406Z" fill="#263238"/>
<path d="M45.2648 39.5679L46.3091 53.8611" stroke="#058DD1" stroke-width="0.55786" stroke-linecap="round" stroke-linejoin="round"/>
<path d="M44.7869 33.0513L45.0642 36.8242" stroke="#058DD1" stroke-width="0.55786" stroke-linecap="round" stroke-linejoin="round"/>
<path d="M72.7883 18.841V10.1421" stroke="#058DD1" stroke-width="0.55786" stroke-linecap="round" stroke-linejoin="round"/>
<path d="M65.9147 20.6863L61.5782 13.1523" stroke="#058DD1" stroke-width="0.55786" stroke-linecap="round" stroke-linejoin="round"/>
<path d="M83.9982 13.1523L79.6617 20.6863" stroke="#058DD1" stroke-width="0.55786" stroke-linecap="round" stroke-linejoin="round"/>
<path d="M185.195 173.287C182.216 185.262 181 197.674 181.614 210.004" stroke="#058DD1" stroke-width="0.55786" stroke-miterlimit="10"/>
<path d="M182.44 172.778C182.469 173.884 183.455 177.787 184.558 177.757C185.661 177.728 186.458 173.783 186.428 172.678C186.399 171.572 185.484 170.702 184.387 170.726C183.283 170.756 182.416 171.672 182.44 172.772V172.778Z" fill="#058DD1"/>
<path d="M186.729 185.191C186.7 184.085 185.714 180.182 184.611 180.212C183.508 180.241 182.711 184.186 182.735 185.291C182.758 186.397 183.679 187.267 184.776 187.243C185.88 187.213 186.747 186.297 186.723 185.197L186.729 185.191Z" fill="#058DD1"/>
<path d="M178.392 181.134C179.496 181.11 183.39 180.117 183.36 179.011C183.331 177.905 179.395 177.107 178.292 177.137C177.189 177.166 176.322 178.083 176.345 179.183C176.375 180.288 177.289 181.158 178.387 181.134H178.392Z" fill="#058DD1"/>
<path d="M190.777 176.835C189.673 176.865 185.779 177.852 185.809 178.958C185.838 180.064 189.773 180.862 190.877 180.838C191.98 180.815 192.847 179.892 192.824 178.792C192.8 177.687 191.88 176.817 190.782 176.841L190.777 176.835Z" fill="#058DD1"/>
<path d="M178.687 176.113C179.484 176.876 182.935 178.934 183.697 178.136C184.458 177.337 182.239 173.978 181.437 173.215C180.64 172.453 179.378 172.482 178.617 173.286C177.856 174.085 177.885 175.35 178.687 176.113Z" fill="#058DD1"/>
<path d="M190.482 181.849C189.685 181.086 186.234 179.029 185.472 179.827C184.711 180.625 186.93 183.984 187.732 184.747C188.529 185.51 189.791 185.48 190.552 184.676C191.313 183.878 191.284 182.612 190.482 181.849Z" fill="#058DD1"/>
<path d="M181.726 184.889C182.487 184.091 184.54 180.631 183.744 179.868C182.947 179.106 179.596 181.329 178.835 182.133C178.074 182.932 178.103 184.197 178.906 184.96C179.702 185.723 180.965 185.693 181.726 184.889Z" fill="#058DD1"/>
<path d="M187.449 173.073C186.688 173.872 184.635 177.331 185.431 178.094C186.228 178.857 189.579 176.633 190.34 175.829C191.101 175.031 191.072 173.765 190.269 173.002C189.473 172.24 188.21 172.269 187.449 173.073Z" fill="#058DD1"/>
<path d="M182.222 179.04C182.251 180.347 183.337 181.382 184.641 181.353C185.944 181.323 186.977 180.235 186.947 178.928C186.918 177.621 185.832 176.586 184.528 176.616C183.225 176.645 182.192 177.734 182.222 179.04Z" fill="white"/>
<path d="M181.885 196.639C181.885 196.639 182.292 190.602 185.602 189.644C188.912 188.686 190.122 187.396 190.122 187.396C190.122 187.396 189.785 196.758 181.885 196.639Z" fill="#058DD1"/>
<path opacity="0.5" d="M181.885 196.639C181.885 196.639 182.292 190.602 185.602 189.644C188.912 188.686 190.122 187.396 190.122 187.396C190.122 187.396 189.785 196.758 181.885 196.639Z" fill="white"/>
<path d="M181.449 201.264C181.449 201.264 181.042 195.226 177.732 194.268C174.422 193.31 173.212 192.015 173.212 192.015C173.212 192.015 173.549 201.376 181.449 201.258V201.264Z" fill="#058DD1"/>
<path opacity="0.5" d="M181.449 201.264C181.449 201.264 181.042 195.226 177.732 194.268C174.422 193.31 173.212 192.015 173.212 192.015C173.212 192.015 173.549 201.376 181.449 201.258V201.264Z" fill="white"/>
<path d="M193.933 213.842C193.933 218.555 188.334 222.37 181.431 222.37C174.528 222.37 168.929 218.555 168.929 213.842C168.929 211.459 170.363 209.301 172.681 207.757C174.021 206.858 175.655 206.166 177.472 205.758H185.39C187.26 206.184 188.936 206.9 190.293 207.834C192.547 209.377 193.933 211.494 193.933 213.842Z" fill="#058DD1"/>
<path opacity="0.8" d="M185.39 205.758C187.26 206.184 188.936 206.9 190.293 207.834C192.547 209.377 193.933 211.494 193.933 213.842C193.933 218.555 188.334 222.37 181.431 222.37C174.528 222.37 168.929 218.555 168.929 213.842C168.929 211.459 170.363 209.301 172.681 207.757C174.021 206.858 175.655 206.166 177.472 205.758H185.39Z" fill="white"/>
<path d="M181.466 206.527V210.743" stroke="#058DD1" stroke-width="0.55786" stroke-miterlimit="10"/>
<path d="M190.841 205.628L190.181 207.698L190.169 207.721H172.687L172.652 207.609L172.02 205.628H190.841Z" fill="#058DD1"/>
<path d="M192.458 215.557C191.254 217.302 189.538 218.697 187.655 219.697C184.652 221.293 172.02 221.707 170.581 214.522C170.563 214.422 170.528 214.327 170.51 214.227C170.168 212.346 171.832 210.678 173.731 210.868C174.911 210.986 176.139 210.844 177.313 210.667C181.832 209.975 186.493 210.229 190.912 211.4C192.718 211.879 193.526 214.025 192.464 215.563L192.458 215.557Z" fill="#263238"/>
<path d="M101.781 213.168C101.999 213.091 102.147 212.914 102.217 212.648C102.271 212.447 102.194 212.317 102.123 212.24C101.669 211.767 99.8221 212.104 99.6156 212.139C99.5684 212.151 99.5271 212.187 99.5212 212.234C99.5094 212.281 99.5271 212.328 99.5684 212.358C99.8752 212.577 100.324 212.861 100.766 213.044C101.138 213.192 101.504 213.269 101.787 213.168H101.781ZM101.946 212.405C101.976 212.435 102.005 212.488 101.981 212.589C101.934 212.772 101.84 212.89 101.698 212.938C101.362 213.056 100.725 212.831 99.9578 212.328C100.701 212.216 101.71 212.151 101.946 212.405Z" fill="#058DD1"/>
<path d="M99.651 212.382C100.217 212.311 101.515 211.642 101.627 211.063C101.651 210.951 101.645 210.744 101.374 210.596C101.203 210.501 101.02 210.483 100.831 210.548C100.117 210.791 99.5448 212.151 99.5212 212.21C99.5035 212.252 99.5094 212.293 99.5389 212.328C99.5507 212.346 99.5684 212.358 99.592 212.364C99.6097 212.37 99.6333 212.376 99.6569 212.37L99.651 212.382ZM101.256 210.809C101.391 210.886 101.397 210.962 101.386 211.022C101.315 211.376 100.453 211.92 99.8457 212.098C100.058 211.654 100.489 210.933 100.914 210.785C101.014 210.75 101.114 210.75 101.209 210.785C101.226 210.791 101.244 210.803 101.262 210.809H101.256Z" fill="#058DD1"/>
<path d="M94.0519 209.999L98.8545 211.944L103.049 200.821L98.2409 198.875L94.0519 209.999Z" fill="#FFB573"/>
<path d="M99.4622 211.548L94.0637 209.36C93.869 209.283 93.6507 209.348 93.5445 209.526L91.1786 213.488C90.9308 213.896 91.1432 214.463 91.5975 214.641C93.4914 215.368 94.4413 215.628 96.819 216.592C98.2763 217.184 100.347 218.195 102.365 219.017C104.336 219.815 105.309 217.911 104.542 217.391C101.108 215.067 100.973 213.724 100.147 212.163C99.9991 211.879 99.7513 211.66 99.4622 211.548Z" fill="#263238"/>
<path d="M102.985 206.279L94.6419 202.896L95.4089 199.833L104.359 203.115L102.985 206.279Z" fill="#058DD1"/>
<path d="M111.339 77.5274C109.646 82.4357 104.636 94.0027 100.778 89.189C100.088 88.3315 99.5034 87.3972 99.0904 86.3741C97.4502 82.3233 97.049 75.7592 96.8425 74.3222L95.5268 69.8219C95.5032 69.7451 95.4914 69.6623 95.4914 69.5854L95.4678 67.0189C95.4678 65.9781 96.3056 65.3572 97.4384 65.4518C97.4384 65.4518 99.2674 65.2389 99.2674 66.3329L99.6214 70.1886H99.6096C99.7925 71.531 99.2615 73.3997 99.5742 74.6356C100.748 79.266 102.377 79.4729 103.397 84.2511C104.819 80.8035 107.362 74.8367 107.362 74.8367C109.079 75.0496 111.893 75.913 111.333 77.5333L111.339 77.5274Z" fill="#FFB573"/>
<path d="M105.285 90.9515C104.135 92.7315 101.539 92.8379 100.288 91.123C99.5212 90.0763 98.9194 88.9231 98.6539 88.0479C97.1199 83.0095 96.17 79.8812 96.0402 74.6181C97.1081 73.5063 98.8486 73.0865 100.306 73.6069L102.819 82.1402C102.819 82.1402 107.935 69.3964 110.005 68.941C112.448 68.4029 113.463 70.585 114.489 73.2698C115.227 75.2035 108.625 85.8007 105.291 90.9574L105.285 90.9515Z" fill="#058DD1"/>
<path d="M125.953 56.1851C125.375 59.1419 124.077 65.5937 126.142 67.5688C126.142 67.5688 125.334 70.567 119.853 70.567C113.823 70.567 116.973 67.5688 116.973 67.5688C120.266 66.7823 120.177 64.3341 119.605 62.0337L125.959 56.1792L125.953 56.1851Z" fill="#FFB573"/>
<path d="M116.731 49.2131C116.767 49.2131 116.802 49.2072 116.838 49.1894C116.956 49.1303 117.003 48.9884 116.944 48.8701C116.36 47.7051 115.28 47.5691 115.233 47.5632C115.103 47.5454 114.985 47.6401 114.973 47.7702C114.961 47.9003 115.05 48.0185 115.18 48.0304C115.215 48.0304 116.053 48.1486 116.519 49.083C116.56 49.1658 116.643 49.2131 116.731 49.2131Z" fill="#263238"/>
<path d="M114.932 51.7974C114.932 51.7974 114.047 53.4295 113.197 54.1687C113.663 54.7246 114.584 54.6122 114.584 54.6122L114.932 51.7974Z" fill="#ED893E"/>
<path d="M115.404 50.9341C115.487 51.3244 115.351 51.6911 115.091 51.7443C114.838 51.7975 114.56 51.5255 114.472 51.1352C114.383 50.7449 114.525 50.3782 114.784 50.325C115.038 50.2718 115.315 50.5438 115.404 50.9341Z" fill="#263238"/>
<path d="M114.908 50.319L113.905 50.2539C113.905 50.2539 114.548 50.8867 114.908 50.319Z" fill="#263238"/>
<path d="M94.3884 65.2393V65.2516C94.3884 65.2516 94.3823 65.2454 94.3823 65.2393H94.3884Z" fill="#FFB573"/>
<path opacity="0.2" d="M111.126 75.0083C112.171 74.0503 112.879 74.3342 113.357 75.097C113.835 77.3087 111.014 81.945 109.882 83.7013L111.121 75.0083H111.126Z" fill="black"/>
<path d="M135.287 77.9239C135.151 80.3603 134.921 83.4295 134.549 87.2911C134.16 91.3656 133.605 96.3153 132.844 102.329C124.826 102.329 116.431 102.205 112.531 102.205C112.855 94.2159 112.979 86.1261 109.404 70.2244C109.215 69.3906 109.764 68.5627 110.601 68.4148C112.218 68.1251 114.902 67.7111 117.634 67.581C121.033 67.4154 123.817 67.309 126.809 67.581C130.744 67.9417 135.216 68.8584 135.216 68.8584C135.216 68.8584 135.712 70.3249 135.287 77.9298V77.9239Z" fill="#058DD1"/>
<path opacity="0.2" d="M135.287 77.9237C135.151 80.3601 134.921 83.4293 134.549 87.2909C132.39 84.7835 130.349 76.1496 130.998 73.1987C132.591 74.2868 134.066 75.9604 135.193 77.4565C135.228 77.5985 135.263 77.7522 135.287 77.9237Z" fill="black"/>
<path d="M156.108 88.7459L160.214 86.4277L160.982 90.6441C160.982 90.6441 157.501 91.9806 155.654 91.0463L156.102 88.7459H156.108Z" fill="#FFB573"/>
<path d="M162.97 86.9068L163.253 88.2847C163.341 88.7164 163.164 89.1599 162.799 89.4083L160.981 90.6442L160.214 86.4278L161.636 86.073C162.238 85.9193 162.84 86.3036 162.97 86.9068Z" fill="#FFB573"/>
<path d="M131.334 73.7371C132.65 76.4219 137.482 86.5637 139.606 88.9055L140.019 89.3431L140.225 89.5619C140.296 89.6329 140.355 89.6979 140.467 89.7985C140.868 90.1769 141.287 90.4903 141.718 90.7446C142.579 91.265 143.453 91.5666 144.29 91.7854C145.972 92.2053 147.565 92.2763 149.117 92.2467C152.22 92.1225 155.123 91.6021 158.026 90.7328L157.5 88.2668C156.143 88.3851 154.71 88.4679 153.329 88.4915C151.943 88.527 150.562 88.4915 149.229 88.3614C147.901 88.2491 146.609 88.0125 145.512 87.6341C144.969 87.4389 144.497 87.1965 144.143 86.9422C143.966 86.8121 143.818 86.682 143.706 86.5519C143.683 86.5341 143.624 86.4573 143.571 86.3981L143.417 86.2148L143.11 85.8482C141.482 83.8021 137.181 73.9381 135.889 71.4722L131.334 73.743V73.7371Z" fill="#FFB573"/>
<path d="M156.043 92.9382C152.692 94.7478 148.615 95.144 144.981 94.0145C141.523 92.9382 138.449 90.425 136.668 87.2671C134.538 84.127 128.868 75.2447 129.576 72.9443C130.419 70.2004 132.213 68.4973 135.21 69.2365C137.317 69.751 141.34 79.9993 143.281 84.0974C144.048 85.2387 145.506 87.0483 147.14 87.6101C150.025 88.6095 152.149 88.1778 155.176 87.7461C155.73 88.0773 155.689 88.5917 155.966 89.1713C156.539 90.3363 156.633 91.7851 156.043 92.9382Z" fill="#058DD1"/>
<path d="M128.927 51.4425C128.024 56.3035 127.741 58.385 124.962 60.5908C120.779 63.9143 115.02 61.7381 114.454 56.6997C113.947 52.1639 115.51 44.973 120.537 43.6188C125.487 42.2823 129.829 46.5756 128.921 51.4425H128.927Z" fill="#FFB573"/>
<path d="M146.143 78.3614C145.217 79.4199 144.922 80.0349 143.635 80.6086C142.349 81.1822 139.541 80.6854 138.65 79.5914C138.939 80.443 140.626 81.9746 141.511 82.0929C139.553 83.2401 136.797 82.7552 135.34 81.0048C135.482 82.0397 136.455 82.9681 137.44 83.317C126.136 83.6127 130.897 78.2786 123.817 70.6914C115.976 62.2882 117.681 55.3515 117.681 55.3515C117.675 54.151 117.41 52.1582 116.141 50.5378C115.009 49.0831 115.339 47.1198 115.699 46.0198C116.224 44.4054 117.823 43.8377 119.357 43.7431C119.628 42.1523 122.873 42.4421 123.292 42.7082C123.646 42.9388 123.741 42.9152 124.095 42.6905C124.891 42.176 126.897 41.6438 129.045 43.3824C130.355 44.4468 131.759 46.351 131.806 50.4077C131.853 54.6241 129.847 59.633 136.803 66.0374C140.904 69.8162 138.945 77.9238 146.137 78.3673L146.143 78.3614Z" fill="#263238"/>
<path d="M116.755 51.8151C116.159 52.643 115.988 53.672 116.118 54.4999C116.318 55.7477 117.528 55.8305 118.407 55.0321C119.198 54.3107 120.047 52.7968 119.398 51.7619C118.761 50.7448 117.434 50.869 116.749 51.8151H116.755Z" fill="#FFB573"/>
<path d="M127.705 102.323C127.705 102.323 125.298 136.273 122.578 158.662C121.764 165.374 119.723 171.873 116.554 177.864L103.226 203.032L96.4059 200.342C96.4059 200.342 101.102 176.421 110.318 163.376C110.318 163.376 103.439 124.387 112.442 102.199L127.705 102.317V102.323Z" fill="#263238"/>
<path opacity="0.2" d="M118.431 110.543C118.431 110.543 120.46 125.943 121.575 135.067C117.392 129.568 114.189 121.892 118.431 110.543Z" fill="black"/>
<path d="M144.928 216.356C145.087 216.184 145.134 215.96 145.069 215.694C145.022 215.493 144.892 215.41 144.792 215.38C144.166 215.167 142.691 216.32 142.526 216.451C142.491 216.48 142.473 216.533 142.485 216.575C142.497 216.622 142.538 216.658 142.585 216.663C142.957 216.711 143.488 216.758 143.966 216.717C144.361 216.681 144.721 216.575 144.922 216.356H144.928ZM144.709 215.611C144.751 215.623 144.804 215.652 144.827 215.753C144.874 215.936 144.845 216.084 144.745 216.196C144.509 216.456 143.83 216.551 142.916 216.462C143.517 216.019 144.379 215.498 144.709 215.611Z" fill="#058DD1"/>
<path d="M142.674 216.645C143.14 216.32 143.972 215.131 143.795 214.57C143.759 214.463 143.659 214.28 143.352 214.274C143.158 214.274 142.986 214.339 142.851 214.487C142.337 215.031 142.479 216.497 142.485 216.562C142.485 216.604 142.514 216.645 142.556 216.663C142.573 216.675 142.597 216.675 142.621 216.675C142.644 216.675 142.662 216.663 142.68 216.651L142.674 216.645ZM143.346 214.516C143.506 214.516 143.547 214.587 143.565 214.641C143.671 214.984 143.163 215.865 142.715 216.302C142.697 215.811 142.727 214.978 143.034 214.652C143.11 214.576 143.193 214.528 143.293 214.522C143.311 214.522 143.329 214.522 143.346 214.522V214.516Z" fill="#058DD1"/>
<path d="M136.597 217.125L141.759 216.628L140.184 204.86L135.016 205.363L136.597 217.125Z" fill="#FFB573"/>
<path d="M142.113 215.995L136.308 216.557C136.095 216.575 135.942 216.74 135.93 216.947L135.718 221.542C135.694 222.021 136.148 222.423 136.638 222.37C138.656 222.139 139.623 221.926 142.178 221.684C143.748 221.53 146.06 221.471 148.232 221.264C150.356 221.057 150.308 218.928 149.382 218.822C145.246 218.355 144.491 217.231 143.016 216.232C142.75 216.054 142.432 215.971 142.119 216.001L142.113 215.995Z" fill="#263238"/>
<path d="M132.815 102.318C132.815 102.318 139.423 142.832 140.697 166.829L140.933 209.815L135.582 210.862C135.582 210.862 127.829 183.435 126.938 167.586C124.573 125.523 110.902 125.452 119.127 102.241L132.809 102.318H132.815Z" fill="#263238"/>
<path d="M142.715 209.999L133.859 211.211L132.956 207.805L142.426 206.569L142.715 209.999Z" fill="#058DD1"/>
<path d="M94.4007 65.2817H94.3823V65.251C94.3823 65.251 94.3946 65.2694 94.4007 65.2817Z" fill="#FFB573"/>
<path d="M94.9664 58.8525H95.3027C94.9605 58.8525 94.7009 59.1305 94.7186 59.4735L95.2555 69.7691C95.2732 70.1121 95.5623 70.39 95.9045 70.39H95.5682C95.226 70.39 94.9369 70.1121 94.9192 69.7691L94.3823 59.4735C94.3646 59.1305 94.6242 58.8525 94.9664 58.8525Z" fill="#058DD1"/>
<path opacity="0.1" d="M94.9664 58.8525H95.3027C94.9605 58.8525 94.7009 59.1305 94.7186 59.4735L95.2555 69.7691C95.2732 70.1121 95.5623 70.39 95.9045 70.39H95.5682C95.226 70.39 94.9369 70.1121 94.9192 69.7691L94.3823 59.4735C94.3646 59.1305 94.6242 58.8525 94.9664 58.8525Z" fill="white"/>
<path d="M95.6684 70.39H99.8102C100.152 70.39 100.412 70.1121 100.394 69.7691L99.8574 59.4735C99.8397 59.1305 99.5506 58.8525 99.2084 58.8525H95.0666C94.7244 58.8525 94.4648 59.1305 94.4825 59.4735L95.0194 69.7691C95.0371 70.1121 95.3262 70.39 95.6684 70.39Z" fill="#058DD1"/>
<path opacity="0.4" d="M95.6684 70.39H99.8102C100.152 70.39 100.412 70.1121 100.394 69.7691L99.8574 59.4735C99.8397 59.1305 99.5506 58.8525 99.2084 58.8525H95.0666C94.7244 58.8525 94.4648 59.1305 94.4825 59.4735L95.0194 69.7691C95.0371 70.1121 95.3262 70.39 95.6684 70.39Z" fill="white"/>
<path d="M100.141 69.5564C100.147 69.6628 100.111 69.7634 100.04 69.8403C99.9696 69.9112 99.8693 69.9526 99.7631 69.9526H95.7452C95.5151 69.9526 95.3204 69.7634 95.3086 69.5327L94.7835 59.5447C94.7776 59.4382 94.813 59.3377 94.8838 59.2667C94.9546 59.1898 95.0549 59.1484 95.1611 59.1484H99.179C99.4091 59.1484 99.6038 59.3377 99.6156 59.5683L99.651 60.2839L100.141 69.5564Z" fill="#263238"/>
<g opacity="0.1">
<path d="M99.651 60.2839L98.3176 69.9526H96.7187L98.2291 59.1484H99.179C99.4091 59.1484 99.6038 59.3377 99.6156 59.5683L99.651 60.2839Z" fill="white"/>
<path d="M96.1405 69.9526H95.7806L97.291 59.1484H97.6509L96.1405 69.9526Z" fill="white"/>
</g>
<path d="M111.227 103.471C108.224 109.372 106.589 115.972 106.489 122.601C116.531 130.401 125.859 121.265 137.34 122.808C136.939 117.61 135.181 107.995 133.086 103.222C125.499 103.542 118.395 102.785 111.227 103.471Z" fill="#058DD1"/>
<path d="M112.271 101.359C112.271 101.359 111.463 103.441 111.693 103.441H132.744C132.927 103.441 133.074 103.352 133.086 103.24L133.269 101.436C133.281 101.312 133.128 101.206 132.927 101.206H112.601C112.454 101.206 112.318 101.265 112.277 101.359H112.271Z" fill="white"/>
<path d="M115.239 103.618H114.696C114.59 103.618 114.507 103.565 114.513 103.494L114.767 101.153C114.773 101.082 114.867 101.028 114.979 101.028H115.522C115.628 101.028 115.711 101.082 115.705 101.153L115.451 103.494C115.445 103.565 115.351 103.618 115.239 103.618Z" fill="#058DD1"/>
<path d="M128.431 103.618H127.888C127.782 103.618 127.7 103.565 127.705 103.494L127.959 101.153C127.965 101.082 128.06 101.028 128.172 101.028H128.714C128.821 101.028 128.903 101.082 128.897 101.153L128.644 103.494C128.638 103.565 128.543 103.618 128.431 103.618Z" fill="#058DD1"/>
</g>
<defs>
<clipPath id="clip0_85_443">
<rect width="295" height="227" fill="white"/>
</clipPath>
</defs>
</svg>
