<svg width="20" height="20" viewBox="0 0 20 20" fill="none" xmlns="http://www.w3.org/2000/svg">
<path d="M12.9167 12.5H16.25V14.1667H12.9167V12.5ZM20 11.6667V20H0V11.6667C0 10.2883 1.12167 9.16667 2.5 9.16667H4.16667V2.5C4.16667 1.12167 5.28833 0 6.66667 0H13.3333C14.7117 0 15.8333 1.12167 15.8333 2.5V9.16667H17.5C18.8783 9.16667 20 10.2883 20 11.6667ZM5.83333 9.16667H14.1667V2.5C14.1667 2.04 13.7933 1.66667 13.3333 1.66667H6.66667C6.20667 1.66667 5.83333 2.04 5.83333 2.5V9.16667ZM1.66667 18.3333H9.16667V10.8333H2.5C2.04 10.8333 1.66667 11.2067 1.66667 11.6667V18.3333ZM18.3333 11.6667C18.3333 11.2067 17.96 10.8333 17.5 10.8333H10.8333V18.3333H18.3333V11.6667ZM3.75 12.5V14.1667H7.08333V12.5H3.75ZM8.33333 5H11.6667V3.33333H8.33333V5Z" fill="#717D96"/>
</svg>
