<svg width="163" height="163" viewBox="0 0 163 163" fill="none" xmlns="http://www.w3.org/2000/svg">
<g clip-path="url(#clip0_1807_457)">
<path d="M16.0771 0.636721C12.1932 1.68731 9.35976 3.34278 6.36718 6.36719C4.1705 8.53203 3.3746 9.61446 2.29218 11.7793C-0.0318453 16.5229 -0.0318454 16.4592 0.0636624 36.8979L0.15917 55.0125L1.11425 56.3814C2.51503 58.3871 4.6162 59.374 7.4496 59.3422C9.96464 59.3422 11.6201 58.6736 13.1164 57.0818C14.8037 55.299 14.8037 55.5219 14.9629 37.0889L15.1221 19.8975L16.0135 18.4012C16.5865 17.4143 17.4142 16.5865 18.4012 16.0135L19.8975 15.1221L37.0889 14.9629C55.5219 14.8037 55.299 14.8037 57.0818 13.1164C58.6736 11.6201 59.3422 9.96465 59.3422 7.44961C59.374 4.61621 58.3871 2.51504 56.3814 1.11426L55.0125 0.159182L36.675 0.0955106C19.5473 0.0318387 18.1465 0.0636746 16.0771 0.636721Z" fill="black"/>
<path d="M107.319 0.700393C103.053 2.80157 102.257 9.67813 105.918 13.1164C107.701 14.8037 107.478 14.8037 125.911 14.9629L143.103 15.1221L144.599 16.0135C145.586 16.5865 146.413 17.4143 146.987 18.4012L147.878 19.8975L148.037 37.0889C148.196 55.5219 148.196 55.299 149.884 57.0818C151.38 58.6736 153.035 59.3422 155.55 59.3422C158.384 59.374 160.485 58.3871 161.886 56.3814L162.841 55.0125L162.936 36.9934C163.032 16.6184 163.032 16.6502 160.676 11.7793C158.829 7.95899 155.041 4.17051 151.221 2.32403C146.413 2.77761e-06 146.541 2.77761e-06 126.516 2.77761e-06C108.943 2.77761e-06 108.688 2.77761e-06 107.319 0.700393Z" fill="black"/>
<path d="M33.5869 30.2123C32.8866 30.5307 31.9315 31.1992 31.4539 31.7086C29.5756 33.7143 29.6075 33.4596 29.6075 51.9563C29.6075 67.6832 29.6711 69.0203 30.2123 70.1982C30.9446 71.8219 32.7274 73.4137 34.2873 73.8275C36.102 74.3369 67.8106 74.3051 69.5297 73.7957C71.217 73.2863 73.3819 71.1215 73.8276 69.5297C74.3051 67.8424 74.3051 35.9428 73.8276 34.2873C73.4137 32.7273 71.8219 30.9445 70.1983 30.2123C69.0204 29.6711 67.6832 29.6074 51.8926 29.6074C35.9746 29.6074 34.7649 29.6711 33.5869 30.2123ZM59.2149 51.8926V59.2148H51.8926H44.5703V51.8926V44.5703H51.8926H59.2149V51.8926Z" fill="black"/>
<path d="M92.8017 30.2123C91.1781 30.9445 89.5863 32.7273 89.1724 34.2873C88.663 36.102 88.6949 67.8106 89.2042 69.5297C89.7136 71.217 91.7829 73.2863 93.4702 73.7957C95.1894 74.3051 126.898 74.3369 128.713 73.8275C130.273 73.4137 132.055 71.8219 132.788 70.1982C133.329 69.0203 133.393 67.6832 133.393 51.9563C133.393 33.4596 133.424 33.7143 131.546 31.7086C131.068 31.1992 130.113 30.5307 129.413 30.2123C128.235 29.6711 127.025 29.6074 111.107 29.6074C95.3167 29.6074 93.9796 29.6711 92.8017 30.2123ZM118.43 51.8926V59.2148H111.107H103.785V51.8926V44.5703H111.107H118.43V51.8926Z" fill="black"/>
<path d="M33.9371 89.268C32.3771 89.841 30.9445 91.1781 30.2123 92.8018C29.6711 93.9797 29.6074 95.1894 29.6074 111.107C29.6074 127.025 29.6711 128.235 30.2123 129.413C30.5307 130.113 31.1992 131.069 31.7086 131.546C33.7143 133.424 33.4596 133.393 51.9562 133.393C67.6832 133.393 69.0203 133.329 70.1982 132.788C71.8219 132.055 73.4137 130.241 73.8594 128.617C74.0822 127.789 74.1777 121.772 74.1141 110.375L74.0186 93.4066L73.1271 92.0695C72.6496 91.3373 71.6627 90.3504 70.9305 89.8728L69.5934 88.9814L52.402 88.9178C38.3305 88.8541 34.9559 88.9178 33.9371 89.268ZM59.2148 111.107V118.43H51.8926H44.5703V111.107V103.785H51.8926H59.2148V111.107Z" fill="black"/>
<path d="M93.3429 89.1725C91.8785 89.6182 89.6818 91.8785 89.2042 93.4703C88.5994 95.5078 88.6949 105.377 89.3316 106.905C90.4777 109.707 92.8972 111.171 96.3037 111.171C99.7101 111.171 102.13 109.707 103.276 106.905C104.072 105.059 103.976 94.5527 103.18 92.8018C102.448 91.1781 100.665 89.5863 99.1052 89.1725C97.6408 88.7586 94.7755 88.7586 93.3429 89.1725Z" fill="black"/>
<path d="M115.437 89.2998C112.667 90.2867 111.107 92.7699 111.107 96.3037C111.107 98.8506 111.776 100.57 113.209 101.939C114.96 103.594 115.978 103.785 122.314 103.785C127.312 103.785 128.331 103.69 129.413 103.18C130.973 102.448 132.246 101.143 132.883 99.5828C133.584 97.9273 133.52 94.4254 132.788 92.8018C132.055 91.1781 130.273 89.5863 128.713 89.1725C126.898 88.6631 116.965 88.7586 115.437 89.2998Z" fill="black"/>
<path d="M5.03008 103.881C3.05625 104.454 1.49629 105.695 0.668555 107.383C0 108.72 0 109.134 0 126.58C0 146.573 0 146.541 2.29219 151.221C4.20234 155.041 7.95898 158.829 11.7793 160.676C16.6502 163.032 16.6184 163.032 36.9934 162.936L55.0125 162.841L56.3814 161.886C58.3871 160.485 59.374 158.384 59.3422 155.55C59.3422 153.035 58.6736 151.38 57.0818 149.884C55.299 148.196 55.5219 148.196 37.0889 148.037L19.8975 147.878L18.4012 146.987C17.4143 146.413 16.5865 145.586 16.0135 144.599L15.1221 143.103L14.9629 125.911C14.8355 112.699 14.7082 108.497 14.3898 107.765C12.9891 104.581 8.78672 102.83 5.03008 103.881Z" fill="black"/>
<path d="M153.608 103.753C151.38 104.326 149.438 105.918 148.61 107.765C148.292 108.497 148.164 112.699 148.037 125.911L147.878 143.103L146.986 144.599C146.413 145.586 145.586 146.413 144.599 146.987L143.102 147.878L125.911 148.037C107.478 148.196 107.701 148.196 105.918 149.884C104.326 151.38 103.658 153.035 103.658 155.55C103.626 158.384 104.613 160.485 106.618 161.886L107.987 162.841L126.007 162.936C146.382 163.032 146.35 163.032 151.221 160.676C155.041 158.829 158.829 155.041 160.676 151.221C163.032 146.35 163.032 146.382 162.936 126.007L162.841 107.987L161.886 106.619C161.344 105.823 160.326 104.931 159.498 104.517C157.938 103.721 155.105 103.339 153.608 103.753Z" fill="black"/>
<path d="M101.175 118.748C99.5191 119.257 98.0547 120.404 97.1633 121.868C96.4311 123.173 96.3037 123.714 96.3037 125.911C96.3037 128.999 97.1314 130.75 99.2645 132.278L100.665 133.233L114.068 133.329C123.205 133.393 127.885 133.329 128.713 133.074C130.273 132.629 132.087 131.005 132.788 129.413C133.584 127.694 133.584 124.128 132.788 122.409C132.024 120.754 130.687 119.512 128.967 118.907C127.789 118.493 125.529 118.43 114.8 118.462C107.796 118.462 101.652 118.589 101.175 118.748Z" fill="black"/>
</g>
<defs>
<clipPath id="clip0_1807_457">
<rect width="163" height="163" fill="white"/>
</clipPath>
</defs>
</svg>
