<svg width="30" height="30" viewBox="0 0 30 30" fill="none" xmlns="http://www.w3.org/2000/svg">
<g id="social-networks 1 (traced)">
<g id="Black">
<path id="Vector" d="M4.88044 3.075C4.06485 3.29531 3.39457 3.9375 3.10865 4.77656C2.97741 5.16562 2.96335 5.89219 3.07584 6.28594C3.35239 7.22344 4.11173 7.93594 5.03981 8.13281C5.22261 8.17031 5.46166 8.20312 5.57884 8.20312C5.85539 8.20312 6.3663 8.09062 6.6241 7.97812L6.83034 7.88437L8.27871 9.33281L9.72239 10.7766L9.6099 10.9312C9.00524 11.7469 8.60213 12.6375 8.38183 13.6547C8.23184 14.3437 8.23184 15.6562 8.38183 16.3453C8.60213 17.3578 9.00055 18.2437 9.6099 19.0687L9.72239 19.2234L8.93024 20.0156L8.14278 20.8078L7.87561 20.6719C7.34126 20.4 6.97565 20.3203 6.30537 20.325C5.7804 20.3297 5.64446 20.3437 5.32104 20.4516C4.78669 20.6297 4.39296 20.8734 3.96173 21.3047C3.30552 21.9562 3.00084 22.7109 3.00084 23.6672C3.00084 24.2719 3.08521 24.6516 3.32895 25.1484C3.65706 25.8187 4.18204 26.3438 4.85232 26.6719C5.34917 26.9156 5.72884 27 6.33349 27C7.2897 27 8.04435 26.6953 8.69588 26.0391C9.13179 25.6031 9.32866 25.2844 9.53021 24.7172C9.66146 24.3375 9.67552 24.2531 9.67552 23.6953C9.6802 23.025 9.59583 22.6594 9.32866 22.125L9.19273 21.8578L9.98488 21.0703L10.777 20.2781L10.9317 20.3906C11.7567 21 12.6426 21.3984 13.655 21.6187C14.344 21.7641 15.6565 21.7641 16.3455 21.6187C17.358 21.3984 18.2438 21 19.0688 20.3906L19.2235 20.2781L20.6672 21.7219L22.1155 23.1703L22.0218 23.3766C21.9093 23.6344 21.7968 24.1453 21.7968 24.4219C21.7968 25.5516 22.5983 26.5969 23.7139 26.925C24.042 27.0188 24.7357 27.0234 25.1013 26.9297C25.9544 26.7047 26.7044 25.9547 26.9294 25.1016C27.0231 24.7359 27.0184 24.0422 26.9247 23.7141C26.6481 22.7766 25.8888 22.0641 24.9607 21.8672C24.7826 21.8297 24.5389 21.7969 24.4217 21.7969C24.1451 21.7969 23.6342 21.9094 23.3764 22.0219L23.1702 22.1156L21.7218 20.6672L20.2781 19.2234L20.3906 19.0687C21 18.2437 21.3984 17.3578 21.6187 16.3453C21.7687 15.6562 21.7687 14.3437 21.6187 13.6547C21.3984 12.6422 21 11.7562 20.3906 10.9312L20.2781 10.7766L21.0703 9.98438L21.8577 9.19219L22.1202 9.32812C24.0467 10.2984 26.381 9.25781 26.9059 7.19062C27.0231 6.74531 27.0325 5.97187 26.9247 5.53125C26.7091 4.59844 26.0247 3.75469 25.1482 3.32812C24.6513 3.08437 24.2717 3 23.667 3C22.7108 3 21.9562 3.30469 21.3046 3.96094C20.8734 4.39219 20.6297 4.78594 20.4516 5.32031C20.3437 5.64375 20.3297 5.77969 20.325 6.30469C20.3203 6.975 20.4 7.34062 20.6719 7.875L20.8078 8.14219L20.0156 8.92969L19.2235 9.72187L19.0688 9.60938C18.2438 9 17.358 8.60156 16.3455 8.38125C15.6565 8.23594 14.344 8.23594 13.655 8.38125C12.6426 8.60156 11.7473 9.00469 10.9317 9.60938L10.777 9.72187L9.33335 8.27812L7.88498 6.82969L7.97873 6.62344C8.09122 6.36562 8.20371 5.85469 8.20371 5.57812C8.20371 4.44844 7.40219 3.40312 6.28662 3.075C5.96789 2.98125 5.2273 2.98125 4.88044 3.075ZM6.07569 4.55156C6.63817 4.81875 6.89597 5.53125 6.62879 6.06562C6.52098 6.27187 6.28662 6.50625 6.08507 6.61406C5.82258 6.75 5.57884 6.76875 5.27886 6.68437C4.47733 6.45 4.1961 5.52656 4.7117 4.84687C4.98825 4.48594 5.64915 4.34062 6.07569 4.55156ZM24.4779 4.63125C24.8529 4.81406 25.2232 5.19375 25.3966 5.56406C25.5701 5.94844 25.5982 6.56719 25.4529 6.94687C25.2466 7.50469 24.8529 7.9125 24.3279 8.11875C24.1357 8.19375 23.967 8.22187 23.6436 8.22187C23.2452 8.22656 23.1983 8.21719 22.8702 8.05312C21.5859 7.42031 21.3796 5.76562 22.4671 4.875C22.8608 4.55156 23.1749 4.45312 23.7233 4.46719C24.117 4.47656 24.2061 4.49531 24.4779 4.63125ZM15.8205 9.77344C17.522 10.05 18.9797 11.1281 19.7391 12.675C20.4937 14.2031 20.4797 15.8906 19.7016 17.4C19.4953 17.8078 19.1485 18.3281 19.0876 18.3281C19.0688 18.3281 18.9985 18.2156 18.9235 18.0797C18.6282 17.5078 17.8361 16.6828 17.3392 16.4297C17.2642 16.3875 17.2033 16.3359 17.2033 16.3078C17.2033 16.2797 17.2736 16.1766 17.358 16.0734C17.5548 15.8438 17.7939 15.3656 17.8923 14.9859C18.0189 14.5266 17.9954 13.8047 17.8407 13.3266C17.5454 12.4172 16.833 11.7047 15.919 11.4047C15.5955 11.3016 15.4549 11.2828 15.0003 11.2828C14.5456 11.2828 14.405 11.3016 14.0816 11.4047C13.4253 11.6203 12.9004 12.0187 12.516 12.5953C12.1738 13.1016 12.0379 13.575 12.0332 14.2266C12.0285 14.5922 12.052 14.8219 12.1129 15.0187C12.2254 15.4031 12.4551 15.8578 12.6426 16.0734C12.7269 16.1766 12.7972 16.2797 12.7972 16.3078C12.7972 16.3359 12.7363 16.3875 12.6613 16.4297C12.1645 16.6828 11.4286 17.4469 11.1004 18.0469C11.0161 18.2016 10.9317 18.3281 10.913 18.3281C10.8473 18.3281 10.4864 17.775 10.2661 17.3297C9.52084 15.8438 9.51615 14.1891 10.2567 12.675C11.2786 10.5984 13.5613 9.40312 15.8205 9.77344ZM15.3284 12.7547C15.6424 12.8203 16.0643 13.1109 16.2518 13.3922C16.6877 14.0437 16.5892 14.8359 16.0033 15.3703C15.4174 15.9094 14.5831 15.9094 13.9972 15.3703C13.7113 15.1125 13.5706 14.8641 13.4956 14.4797C13.355 13.7812 13.8894 12.9656 14.6112 12.7687C14.8971 12.6937 15.0284 12.6891 15.3284 12.7547ZM15.7455 17.3203C16.308 17.4562 16.8845 17.8219 17.297 18.3141C17.4986 18.5484 17.9064 19.2703 17.9064 19.3875C17.9064 19.4672 16.9502 19.9406 16.5658 20.0578C15.483 20.3766 14.419 20.3672 13.3831 20.0344C12.9613 19.8984 12.0941 19.4625 12.0941 19.3875C12.0941 19.3594 12.1832 19.1578 12.291 18.9375C12.6707 18.1734 13.4769 17.5078 14.2597 17.3156C14.6065 17.2359 15.3846 17.2359 15.7455 17.3203ZM7.14908 21.9562C7.96935 22.3594 8.40058 23.25 8.18497 24.0938C8.03497 24.675 7.70686 25.0781 7.14908 25.3734C6.8819 25.5141 6.83972 25.5234 6.35224 25.5234C5.8882 25.5234 5.80852 25.5094 5.56478 25.3969C5.1898 25.2187 4.81482 24.8484 4.62733 24.4734C4.48671 24.1828 4.47733 24.1359 4.47733 23.6484C4.47733 23.175 4.4914 23.1094 4.61327 22.8609C5.09605 21.8906 6.21162 21.4922 7.14908 21.9562ZM24.7451 23.325C25.0404 23.4094 25.3169 23.6484 25.4576 23.9344C25.5372 24.1031 25.5513 24.2062 25.5372 24.4641C25.5044 25.0875 25.0873 25.5047 24.4639 25.5375C24.2061 25.5516 24.1029 25.5375 23.9342 25.4578C23.3623 25.1812 23.1045 24.4734 23.3717 23.9344C23.5639 23.5594 23.9904 23.2687 24.3795 23.2547C24.4451 23.25 24.6092 23.2828 24.7451 23.325Z" fill="black"/>
</g>
</g>
</svg>
