<svg width="24" height="24" viewBox="0 0 24 24" fill="none" xmlns="http://www.w3.org/2000/svg">
<g clip-path="url(#clip0_658_4084)">
<path d="M2.2875 0.839264C1.60781 1.05958 1.02656 1.65489 0.825 2.33926C0.759375 2.55958 0.75 2.95801 0.75 5.1752C0.75 7.66895 0.754688 7.7627 0.84375 7.9127C1.11563 8.35801 1.85625 8.37676 2.14219 7.93614C2.22188 7.81895 2.22656 7.61739 2.25 5.32051C2.27344 2.94395 2.27813 2.83145 2.36719 2.67676C2.48906 2.47051 2.65781 2.34864 2.8875 2.29708C2.98594 2.27364 4.125 2.2502 5.41406 2.2502C7.66875 2.2502 7.7625 2.24551 7.9125 2.15645C8.1375 2.01583 8.25 1.80489 8.25 1.5002C8.25 1.19551 8.1375 0.984577 7.9125 0.843952C7.7625 0.754889 7.67344 0.750202 5.15625 0.754889C2.76562 0.754889 2.53125 0.764265 2.2875 0.839264Z" fill="black"/>
<path d="M16.0873 0.84375C15.642 1.11562 15.6232 1.85625 16.0639 2.14219C16.181 2.22187 16.3826 2.22656 18.6795 2.25C21.056 2.27344 21.1685 2.27812 21.3232 2.36719C21.5295 2.48906 21.6514 2.65781 21.7029 2.8875C21.7264 2.98594 21.7498 4.125 21.7498 5.41406C21.7498 7.66875 21.7545 7.7625 21.8435 7.9125C21.9842 8.1375 22.1951 8.25 22.4998 8.25C22.8045 8.25 23.0154 8.1375 23.156 7.9125C23.2451 7.7625 23.2498 7.66875 23.2498 5.175C23.2498 2.95781 23.2404 2.55937 23.1748 2.33906C22.9732 1.64531 22.3873 1.05469 21.6982 0.839062C21.431 0.754687 21.2342 0.75 18.8295 0.75C16.331 0.75 16.2373 0.754687 16.0873 0.84375Z" fill="black"/>
<path d="M4.0875 3.84375C4.00313 3.89531 3.89531 4.00312 3.84375 4.0875C3.75469 4.2375 3.75 4.33125 3.75 6.75C3.75 9.16875 3.75469 9.2625 3.84375 9.4125C3.89531 9.49687 4.00313 9.60469 4.0875 9.65625C4.2375 9.74531 4.33125 9.75 6.75 9.75C9.16875 9.75 9.2625 9.74531 9.4125 9.65625C9.49688 9.60469 9.60469 9.49687 9.65625 9.4125C9.74531 9.2625 9.75 9.16875 9.75 6.75C9.75 4.33125 9.74531 4.2375 9.65625 4.0875C9.60469 4.00312 9.49688 3.89531 9.4125 3.84375C9.2625 3.75469 9.16875 3.75 6.75 3.75C4.33125 3.75 4.2375 3.75469 4.0875 3.84375ZM8.25 6.75V8.25H6.75H5.25V6.75V5.25H6.75H8.25V6.75Z" fill="black"/>
<path d="M11.5875 3.84375C11.3625 3.98438 11.25 4.19531 11.25 4.5C11.25 4.80469 11.3625 5.01562 11.5875 5.15625C11.7375 5.24531 11.8313 5.25 15.2484 5.25H18.75V6.50156C18.75 7.67344 18.7547 7.76719 18.8438 7.9125C18.9844 8.1375 19.1953 8.25 19.5 8.25C19.8047 8.25 20.0156 8.1375 20.1562 7.9125C20.2453 7.76719 20.25 7.67344 20.25 6C20.25 4.32656 20.2453 4.23281 20.1562 4.0875C20.1047 4.00312 19.9969 3.89531 19.9125 3.84375C19.7625 3.75469 19.6688 3.75 15.75 3.75C11.8313 3.75 11.7375 3.75469 11.5875 3.84375Z" fill="black"/>
<path d="M11.5875 6.84375C11.2734 7.03594 11.25 7.125 11.25 8.25C11.25 9.17344 11.2594 9.27187 11.3438 9.4125C11.4844 9.6375 11.6953 9.75 12 9.75C12.3047 9.75 12.5156 9.6375 12.6562 9.4125C12.7406 9.27187 12.75 9.17344 12.75 8.25C12.75 7.32656 12.7406 7.22812 12.6562 7.0875C12.5156 6.8625 12.3047 6.75 12 6.75C11.8266 6.75 11.6906 6.77812 11.5875 6.84375Z" fill="black"/>
<path d="M14.5875 6.84375C14.5031 6.89531 14.3953 7.00312 14.3438 7.0875C14.2547 7.2375 14.25 7.33125 14.25 9.75C14.25 12.1687 14.2547 12.2625 14.3438 12.4125C14.4844 12.6375 14.6953 12.75 15 12.75C15.3047 12.75 15.5156 12.6375 15.6562 12.4125C15.7453 12.2625 15.75 12.1687 15.75 10.2516V8.25H16.2563C16.6734 8.25 16.7812 8.23594 16.9125 8.15625C17.1375 8.01562 17.25 7.80469 17.25 7.5C17.25 7.19531 17.1375 6.98438 16.9125 6.84375C16.7719 6.75937 16.6734 6.75 15.75 6.75C14.8266 6.75 14.7281 6.75937 14.5875 6.84375Z" fill="black"/>
<path d="M17.5875 9.84355C17.3625 9.98418 17.25 10.1951 17.25 10.4998C17.25 10.8045 17.3625 11.0154 17.5875 11.1561C17.7188 11.2357 17.8266 11.2498 18.2484 11.2498H18.75V11.7514C18.75 12.3232 18.8109 12.4873 19.0875 12.6561C19.2984 12.7826 19.7016 12.7826 19.9125 12.6561C20.2266 12.4639 20.25 12.3748 20.25 11.2498C20.25 10.3264 20.2406 10.2279 20.1562 10.0873C19.9641 9.77324 19.875 9.7498 18.75 9.7498C17.8266 9.7498 17.7281 9.75918 17.5875 9.84355Z" fill="black"/>
<path d="M4.0875 11.3438C3.8625 11.4844 3.75 11.6953 3.75 12C3.75 12.3047 3.8625 12.5156 4.0875 12.6562C4.2375 12.7453 4.33125 12.75 6.375 12.75C8.41875 12.75 8.5125 12.7453 8.6625 12.6562C8.8875 12.5156 9 12.3047 9 12C9 11.6953 8.8875 11.4844 8.6625 11.3438C8.5125 11.2547 8.41875 11.25 6.375 11.25C4.33125 11.25 4.2375 11.2547 4.0875 11.3438Z" fill="black"/>
<path d="M10.8375 11.3438C10.6125 11.4844 10.5 11.6953 10.5 12C10.5 12.3047 10.6125 12.5156 10.8375 12.6562C10.9734 12.7359 11.0766 12.75 11.625 12.75C12.1734 12.75 12.2766 12.7359 12.4125 12.6562C12.6375 12.5156 12.75 12.3047 12.75 12C12.75 11.6953 12.6375 11.4844 12.4125 11.3438C12.2766 11.2641 12.1734 11.25 11.625 11.25C11.0766 11.25 10.9734 11.2641 10.8375 11.3438Z" fill="black"/>
<path d="M4.0875 14.3438C4.00313 14.3953 3.89531 14.5031 3.84375 14.5875C3.75469 14.7375 3.75 14.8312 3.75 17.25C3.75 19.6687 3.75469 19.7625 3.84375 19.9125C3.89531 19.9969 4.00313 20.1047 4.0875 20.1562C4.2375 20.2453 4.33125 20.25 6.75 20.25C9.16875 20.25 9.2625 20.2453 9.4125 20.1562C9.49688 20.1047 9.60469 19.9969 9.65625 19.9125C9.74531 19.7625 9.75 19.6687 9.75 17.25C9.75 14.8312 9.74531 14.7375 9.65625 14.5875C9.60469 14.5031 9.49688 14.3953 9.4125 14.3438C9.2625 14.2547 9.16875 14.25 6.75 14.25C4.33125 14.25 4.2375 14.2547 4.0875 14.3438ZM8.25 17.25V18.75H6.75H5.25V17.25V15.75H6.75H8.25V17.25Z" fill="black"/>
<path d="M11.5875 14.3438C11.5031 14.3953 11.3953 14.5031 11.3438 14.5875C11.2547 14.7375 11.25 14.8313 11.25 17.25C11.25 19.6688 11.2547 19.7625 11.3438 19.9125C11.4844 20.1375 11.6953 20.25 12 20.25C12.3047 20.25 12.5156 20.1375 12.6562 19.9125C12.7453 19.7625 12.75 19.6688 12.75 17.25C12.75 14.8313 12.7453 14.7375 12.6562 14.5875C12.6047 14.5031 12.4969 14.3953 12.4125 14.3438C12.2016 14.2172 11.7984 14.2172 11.5875 14.3438Z" fill="black"/>
<path d="M14.5875 14.3438C14.5031 14.3953 14.3953 14.5031 14.3438 14.5875C14.2547 14.7375 14.25 14.8312 14.25 17.25C14.25 19.6687 14.2547 19.7625 14.3438 19.9125C14.3953 19.9969 14.5031 20.1047 14.5875 20.1562C14.7375 20.2453 14.8313 20.25 17.25 20.25C19.6688 20.25 19.7625 20.2453 19.9125 20.1562C19.9969 20.1047 20.1047 19.9969 20.1562 19.9125C20.2453 19.7625 20.25 19.6687 20.25 17.25C20.25 14.8312 20.2453 14.7375 20.1562 14.5875C20.1047 14.5031 19.9969 14.3953 19.9125 14.3438C19.7625 14.2547 19.6688 14.25 17.25 14.25C14.8313 14.25 14.7375 14.2547 14.5875 14.3438ZM18.75 17.25V18.75H17.25H15.75V17.25V15.75H17.25H18.75V17.25Z" fill="black"/>
<path d="M1.0875 15.8438C1.00313 15.8953 0.895313 16.0031 0.84375 16.0875C0.754688 16.2375 0.75 16.3313 0.75 18.825C0.75 21.0422 0.759375 21.4406 0.825 21.6609C1.02656 22.3547 1.6125 22.9453 2.30156 23.1609C2.56875 23.2453 2.76562 23.25 5.17031 23.25C7.66875 23.25 7.7625 23.2453 7.9125 23.1563C8.1375 23.0156 8.25 22.8047 8.25 22.5C8.25 22.1953 8.1375 21.9844 7.9125 21.8438C7.7625 21.7547 7.66875 21.75 5.41406 21.75C4.125 21.75 2.98594 21.7266 2.8875 21.7031C2.65781 21.6516 2.48906 21.5297 2.36719 21.3234C2.27813 21.1688 2.27344 21.0563 2.25 18.6797C2.22188 15.9188 2.24063 16.0453 1.90781 15.8438C1.70156 15.7172 1.29375 15.7172 1.0875 15.8438Z" fill="black"/>
<path d="M22.0922 15.8438C21.7594 16.0453 21.7781 15.9188 21.75 18.6797C21.7266 21.0563 21.7219 21.1688 21.6328 21.3234C21.5109 21.5297 21.3422 21.6516 21.1125 21.7031C21.0141 21.7266 19.875 21.75 18.5859 21.75C16.3313 21.75 16.2375 21.7547 16.0875 21.8438C15.8625 21.9844 15.75 22.1953 15.75 22.5C15.75 22.8047 15.8625 23.0156 16.0875 23.1563C16.2375 23.2453 16.3313 23.25 18.825 23.25C21.0422 23.25 21.4406 23.2406 21.6609 23.175C22.3547 22.9734 22.9453 22.3875 23.1609 21.6984C23.2453 21.4313 23.25 21.2344 23.25 18.8297C23.25 16.3313 23.2453 16.2375 23.1563 16.0875C23.1047 16.0031 22.9969 15.8953 22.9125 15.8438C22.7063 15.7172 22.2984 15.7172 22.0922 15.8438Z" fill="black"/>
</g>
<defs>
<clipPath id="clip0_658_4084">
<rect width="24" height="24" fill="white"/>
</clipPath>
</defs>
</svg>
