<svg width="24" height="24" viewBox="0 0 24 24" fill="none" xmlns="http://www.w3.org/2000/svg">
<g clip-path="url(#clip0_658_4105)">
<path d="M11.2407 0.107616C10.7063 0.290428 10.4626 0.501366 9.74069 1.3873C9.08444 2.20293 8.92037 2.34355 8.65319 2.34355C8.58287 2.34355 8.13287 2.23574 7.65006 2.10449C7.16256 1.97324 6.61881 1.85605 6.42194 1.84199C5.35787 1.7623 4.31256 2.5123 4.05944 3.54355C4.02194 3.69355 3.96569 4.25137 3.93756 4.78105C3.88131 5.83574 3.84381 5.99043 3.58131 6.16387C3.50162 6.22012 3.07975 6.39355 2.64381 6.55762C1.51412 6.98418 1.23287 7.15762 0.895373 7.64043C0.595373 8.06699 0.506311 8.34355 0.478186 8.90605C0.450061 9.60449 0.534436 9.82949 1.24225 10.917C1.75319 11.7092 1.80006 11.7982 1.80006 11.9998C1.80006 12.2014 1.75319 12.2904 1.24225 13.0826C0.534436 14.1701 0.450061 14.3951 0.478186 15.0936C0.506311 15.6514 0.567248 15.8529 0.871936 16.3123C1.20944 16.8326 1.486 17.0061 2.64381 17.442C3.07975 17.6061 3.50162 17.7795 3.58131 17.8357C3.84381 18.0092 3.88131 18.1639 3.93756 19.2186C3.96569 19.7482 4.02194 20.3061 4.05944 20.4561C4.31256 21.4873 5.35787 22.2373 6.42194 22.1576C6.61881 22.1436 7.16256 22.0264 7.65006 21.8951C8.13287 21.7639 8.58287 21.6561 8.65319 21.6561C8.92037 21.6561 9.08444 21.7967 9.74537 22.617C10.4719 23.5123 10.7391 23.7373 11.2829 23.9061C11.6954 24.0326 12.3047 24.0326 12.7172 23.9061C13.261 23.7373 13.5282 23.5123 14.2547 22.617C14.9157 21.7967 15.0797 21.6561 15.3469 21.6561C15.4172 21.6561 15.8672 21.7639 16.3501 21.8951C16.8376 22.0264 17.3813 22.1436 17.5782 22.1576C18.6422 22.2373 19.6876 21.4873 19.9407 20.4561C19.9782 20.3061 20.0344 19.7482 20.0626 19.2232C20.0907 18.6467 20.1376 18.2107 20.1751 18.117C20.2641 17.9061 20.4235 17.7982 20.9204 17.6061C21.1547 17.517 21.5766 17.3529 21.8532 17.2498C22.4626 17.0154 22.8282 16.7576 23.1047 16.3592C23.3907 15.9514 23.4985 15.6279 23.5219 15.0701C23.5501 14.3998 23.461 14.1607 22.7579 13.0826C22.0172 11.9389 22.0172 12.0607 22.7579 10.917C23.461 9.83887 23.5501 9.5998 23.5219 8.92949C23.4985 8.37168 23.3907 8.04824 23.1047 7.64043C22.8282 7.24199 22.4626 6.98418 21.8532 6.7498C21.5766 6.64668 21.1547 6.48262 20.9204 6.39355C20.4235 6.20137 20.2641 6.09355 20.1751 5.88262C20.1376 5.78887 20.0907 5.35293 20.0626 4.77637C20.0344 4.25137 19.9782 3.69355 19.9407 3.54355C19.6876 2.5123 18.6422 1.7623 17.5782 1.84199C17.3813 1.85605 16.8376 1.97324 16.3501 2.10449C15.8672 2.23574 15.4172 2.34355 15.3469 2.34355C15.0797 2.34355 14.9157 2.20293 14.2547 1.38262C13.5282 0.487305 13.261 0.262304 12.7172 0.0935535C12.2813 -0.0423832 11.6579 -0.0330086 11.2407 0.107616ZM12.3235 1.69199C12.4219 1.74824 12.7266 2.07637 13.0688 2.50293C13.7438 3.34199 13.8094 3.40762 14.1797 3.63262C14.8547 4.03574 15.3516 4.0498 16.6454 3.70293C17.1469 3.56699 17.6297 3.45918 17.7282 3.45918C17.9672 3.45449 18.2297 3.62793 18.3282 3.8623C18.3938 4.00762 18.4219 4.24668 18.4454 4.82793C18.4641 5.25449 18.4969 5.74668 18.5204 5.92949C18.6047 6.5623 19.0126 7.20449 19.5469 7.54668C19.6688 7.62637 20.1751 7.84668 20.6719 8.03418C21.2626 8.26387 21.6188 8.42793 21.7079 8.5123C21.8719 8.67168 21.9563 8.91074 21.9188 9.11699C21.9001 9.20137 21.6704 9.60918 21.4032 10.0217C21.1313 10.4342 20.8688 10.8561 20.8172 10.9639C20.5032 11.5732 20.5032 12.4264 20.8172 13.0357C20.8688 13.1436 21.1313 13.5654 21.4032 13.9779C21.6704 14.3904 21.9001 14.7982 21.9188 14.8826C21.9563 15.0889 21.8719 15.3279 21.7079 15.4873C21.6188 15.5717 21.2626 15.7357 20.6719 15.9654C20.1751 16.1529 19.6688 16.3732 19.5469 16.4529C19.0126 16.7951 18.6047 17.4373 18.5204 18.0701C18.4969 18.2482 18.4641 18.7451 18.4454 19.1717C18.4219 19.7529 18.3938 19.992 18.3282 20.1373C18.2297 20.3717 17.9672 20.5451 17.7282 20.5404C17.6297 20.5404 17.1844 20.442 16.7344 20.3201C16.2844 20.1982 15.7969 20.0811 15.6469 20.0623C15.0657 19.9779 14.3532 20.1795 13.8938 20.5545C13.786 20.6436 13.4251 21.0514 13.0922 21.4639C12.4735 22.2373 12.2766 22.4061 12.0001 22.4061C11.7235 22.4061 11.5266 22.2373 10.9079 21.4639C10.5751 21.0514 10.2141 20.6436 10.1063 20.5545C9.64694 20.1795 8.97194 19.9873 8.36725 20.0623C8.21256 20.0811 7.71569 20.1982 7.26569 20.3201C6.30944 20.5779 6.16412 20.5873 5.911 20.4232C5.63912 20.2404 5.59225 20.0623 5.536 18.9326C5.47506 17.6717 5.36256 17.3154 4.85631 16.7904C4.55631 16.4764 4.30787 16.3404 3.33287 15.9654C2.74694 15.7404 2.37662 15.567 2.29225 15.4873C2.12819 15.3279 2.04381 15.0889 2.08131 14.8826C2.10006 14.7982 2.32975 14.3904 2.59694 13.9779C2.86881 13.5654 3.13131 13.1436 3.18287 13.0357C3.49694 12.4264 3.49694 11.5732 3.18287 10.9639C3.13131 10.8561 2.86881 10.4342 2.59694 10.0217C2.32975 9.60918 2.10006 9.20137 2.08131 9.11699C2.04381 8.91074 2.12819 8.67168 2.29225 8.5123C2.37662 8.43262 2.74694 8.25918 3.33287 8.03418C3.82975 7.84199 4.336 7.62168 4.45787 7.54199C4.98756 7.20449 5.39537 6.55762 5.47975 5.92949C5.50319 5.74668 5.536 5.25449 5.55475 4.82793C5.57819 4.24668 5.60631 4.00762 5.67194 3.8623C5.77037 3.62793 6.03287 3.45449 6.27194 3.45918C6.37037 3.45918 6.81569 3.55762 7.26569 3.67949C7.71569 3.80137 8.21256 3.91855 8.36725 3.9373C8.97194 4.0123 9.64694 3.82012 10.1063 3.44512C10.2141 3.35605 10.5751 2.94824 10.9079 2.53574C11.236 2.12324 11.5829 1.74355 11.6719 1.69199C11.8829 1.57012 12.1079 1.57012 12.3235 1.69199Z" fill="black"/>
<path d="M8.59694 7.78597C8.05319 7.85629 7.54694 8.24535 7.35944 8.7516C7.2235 9.12191 7.23756 9.71722 7.39694 10.0407C7.54225 10.3313 7.81881 10.6078 8.11881 10.7625C8.47506 10.9453 9.00944 10.9735 9.39381 10.8282C9.73131 10.6969 10.0829 10.3828 10.2563 10.0547C10.3688 9.84847 10.3829 9.76878 10.3829 9.3516C10.3829 8.94847 10.3641 8.85003 10.2657 8.64847C9.961 8.02972 9.31412 7.69691 8.59694 7.78597Z" fill="black"/>
<path d="M15.183 7.78124C15.0892 7.7953 14.9533 7.85624 14.8783 7.9078C14.8033 7.96405 13.0736 9.68437 11.0299 11.7281C7.50018 15.2672 7.31737 15.4547 7.27987 15.6562C7.22831 15.9141 7.2705 16.1906 7.39237 16.3547C7.50018 16.5 7.84706 16.6875 8.01581 16.6875C8.37206 16.6875 8.33456 16.7203 12.2908 12.7641C16.0783 8.97187 16.1205 8.92499 16.1486 8.70937C16.2377 8.11405 15.7736 7.66874 15.183 7.78124Z" fill="black"/>
<path d="M14.1048 13.5703C13.397 13.7953 12.9376 14.4797 12.9986 15.2156C13.0408 15.7875 13.3783 16.2703 13.9126 16.5328C14.1423 16.6453 14.2361 16.6641 14.5783 16.6641C14.9204 16.6641 15.0142 16.6453 15.2439 16.5328C15.5814 16.3687 15.8533 16.0969 16.0173 15.7594C16.1298 15.5297 16.1486 15.4359 16.1486 15.0937C16.1486 14.6156 16.0126 14.2781 15.7033 13.9688C15.3095 13.575 14.6251 13.4016 14.1048 13.5703Z" fill="black"/>
</g>
<defs>
<clipPath id="clip0_658_4105">
<rect width="24" height="24" fill="white"/>
</clipPath>
</defs>
</svg>
