<svg width="18" height="16" viewBox="0 0 18 16" fill="none" xmlns="http://www.w3.org/2000/svg">
<path d="M9.83341 11.3333H8.16675C7.70841 11.3333 7.33341 10.9583 7.33341 10.5H1.50841V13.8333C1.50841 14.75 2.25841 15.5 3.17508 15.5H14.8334C15.7501 15.5 16.5001 14.75 16.5001 13.8333V10.5H10.6667C10.6667 10.9583 10.2917 11.3333 9.83341 11.3333ZM15.6667 3.83333H12.3334C12.3334 1.99167 10.8417 0.5 9.00008 0.5C7.15841 0.5 5.66675 1.99167 5.66675 3.83333H2.33341C1.41675 3.83333 0.666748 4.58333 0.666748 5.5V8C0.666748 8.925 1.40841 9.66667 2.33341 9.66667H7.33341V8.83333C7.33341 8.375 7.70841 8 8.16675 8H9.83341C10.2917 8 10.6667 8.375 10.6667 8.83333V9.66667H15.6667C16.5834 9.66667 17.3334 8.91667 17.3334 8V5.5C17.3334 4.58333 16.5834 3.83333 15.6667 3.83333ZM7.33341 3.83333C7.33341 2.91667 8.08341 2.16667 9.00008 2.16667C9.91675 2.16667 10.6667 2.91667 10.6667 3.83333H7.32508H7.33341Z" fill="white"/>
</svg>
