<svg width="26" height="22" viewBox="0 0 26 22" fill="none" xmlns="http://www.w3.org/2000/svg">
<path d="M6.77693 9.02845L11.1312 2.06845C11.3 1.79335 11.5371 1.56665 11.8195 1.41043C12.1019 1.25421 12.4199 1.1738 12.7426 1.17702C12.9968 1.16785 13.2502 1.20971 13.4879 1.30015C13.7256 1.39059 13.9428 1.52776 14.1266 1.70355C14.3104 1.87935 14.4571 2.0902 14.558 2.32366C14.6589 2.55711 14.712 2.80842 14.7141 3.06273V8.05131H22.2398C22.5179 8.06032 22.7909 8.1281 23.0409 8.25018C23.2909 8.37226 23.5123 8.54588 23.6904 8.75962C23.8685 8.97336 23.9994 9.22238 24.0744 9.49031C24.1493 9.75824 24.1668 10.039 24.1255 10.3142L22.7541 19.1599C22.6956 19.6326 22.4664 20.0677 22.1097 20.3834C21.753 20.6991 21.2933 20.8736 20.8169 20.8742H9.57122C9.03588 20.8763 8.50749 20.753 8.02836 20.5142L6.79408 19.897M6.77693 9.02845V19.8456H2.71408C2.48675 19.8456 2.26873 19.7553 2.10798 19.5945C1.94724 19.4338 1.85693 19.2158 1.85693 18.9884V9.88559C1.85693 9.65826 1.94724 9.44025 2.10798 9.2795C2.26873 9.11875 2.48675 9.02845 2.71408 9.02845H6.77693Z" stroke="black" stroke-width="2" stroke-linecap="round" stroke-linejoin="round"/>
</svg>
