<svg width="16" height="16" viewBox="0 0 16 16" fill="none" xmlns="http://www.w3.org/2000/svg">
<path d="M6.33333 0.5H1.33333C1.11232 0.5 0.900358 0.587797 0.744078 0.744078C0.587797 0.900358 0.5 1.11232 0.5 1.33333V6.33333C0.5 6.55435 0.587797 6.76631 0.744078 6.92259C0.900358 7.07887 1.11232 7.16667 1.33333 7.16667H6.33333C6.55435 7.16667 6.76631 7.07887 6.92259 6.92259C7.07887 6.76631 7.16667 6.55435 7.16667 6.33333V1.33333C7.16667 1.11232 7.07887 0.900358 6.92259 0.744078C6.76631 0.587797 6.55435 0.5 6.33333 0.5ZM5.5 5.5H2.16667V2.16667H5.5V5.5ZM14.6667 0.5H9.66667C9.44565 0.5 9.23369 0.587797 9.07741 0.744078C8.92113 0.900358 8.83333 1.11232 8.83333 1.33333V6.33333C8.83333 6.55435 8.92113 6.76631 9.07741 6.92259C9.23369 7.07887 9.44565 7.16667 9.66667 7.16667H14.6667C14.8877 7.16667 15.0996 7.07887 15.2559 6.92259C15.4122 6.76631 15.5 6.55435 15.5 6.33333V1.33333C15.5 1.11232 15.4122 0.900358 15.2559 0.744078C15.0996 0.587797 14.8877 0.5 14.6667 0.5ZM13.8333 5.5H10.5V2.16667H13.8333V5.5ZM6.33333 8.83333H1.33333C1.11232 8.83333 0.900358 8.92113 0.744078 9.07741C0.587797 9.23369 0.5 9.44565 0.5 9.66667V14.6667C0.5 14.8877 0.587797 15.0996 0.744078 15.2559C0.900358 15.4122 1.11232 15.5 1.33333 15.5H6.33333C6.55435 15.5 6.76631 15.4122 6.92259 15.2559C7.07887 15.0996 7.16667 14.8877 7.16667 14.6667V9.66667C7.16667 9.44565 7.07887 9.23369 6.92259 9.07741C6.76631 8.92113 6.55435 8.83333 6.33333 8.83333ZM5.5 13.8333H2.16667V10.5H5.5V13.8333ZM12.1667 8.83333C10.3283 8.83333 8.83333 10.3283 8.83333 12.1667C8.83333 14.005 10.3283 15.5 12.1667 15.5C14.005 15.5 15.5 14.005 15.5 12.1667C15.5 10.3283 14.005 8.83333 12.1667 8.83333ZM12.1667 13.8333C11.2475 13.8333 10.5 13.0858 10.5 12.1667C10.5 11.2475 11.2475 10.5 12.1667 10.5C13.0858 10.5 13.8333 11.2475 13.8333 12.1667C13.8333 13.0858 13.0858 13.8333 12.1667 13.8333Z" fill="#FAFAFA"/>
</svg>
