<svg width="24" height="26" viewBox="0 0 24 26" fill="none" xmlns="http://www.w3.org/2000/svg">
<path d="M12.015 0.8125C12.9325 0.8225 13.8463 0.92875 14.7425 1.12875C14.9332 1.17131 15.1058 1.27238 15.2362 1.41783C15.3667 1.56327 15.4484 1.74583 15.47 1.94L15.6825 3.84875C15.7125 4.11786 15.8053 4.37616 15.9533 4.60288C16.1014 4.8296 16.3006 5.01841 16.5349 5.15411C16.7692 5.28981 17.0321 5.36862 17.3024 5.38419C17.5727 5.39976 17.8429 5.35165 18.0913 5.24375L19.8413 4.475C20.0191 4.39669 20.2168 4.37555 20.4072 4.41452C20.5975 4.45348 20.771 4.55062 20.9038 4.6925C22.1691 6.04376 23.1115 7.66441 23.66 9.4325C23.7174 9.61842 23.7154 9.81758 23.6545 10.0024C23.5936 10.1871 23.4767 10.3484 23.32 10.4637L21.7688 11.6088C21.5502 11.769 21.3725 11.9784 21.25 12.2201C21.1274 12.4618 21.0636 12.729 21.0636 13C21.0636 13.271 21.1274 13.5382 21.25 13.7799C21.3725 14.0216 21.5502 14.231 21.7688 14.3912L23.3225 15.535C23.4795 15.6504 23.5965 15.8119 23.6574 15.9969C23.7184 16.182 23.7202 16.3814 23.6625 16.5675C23.1142 18.3354 22.1722 19.956 20.9075 21.3075C20.775 21.4493 20.6018 21.5465 20.4117 21.5857C20.2216 21.6249 20.0241 21.6041 19.8463 21.5262L18.0888 20.755C17.8408 20.6463 17.5706 20.5974 17.3002 20.6125C17.0299 20.6275 16.7668 20.706 16.5324 20.8416C16.298 20.9772 16.0988 21.1661 15.9509 21.3929C15.8031 21.6198 15.7107 21.8783 15.6813 22.1475L15.4688 24.055C15.4476 24.2469 15.3676 24.4276 15.2399 24.5723C15.1121 24.7171 14.9428 24.8188 14.755 24.8637C12.9445 25.2945 11.0581 25.2945 9.24753 24.8637C9.05953 24.8191 8.88993 24.7174 8.76194 24.5726C8.63395 24.4278 8.55383 24.2471 8.53253 24.055L8.32128 22.15C8.29059 21.8816 8.1974 21.6242 8.04919 21.3984C7.90099 21.1726 7.70189 20.9846 7.46789 20.8497C7.23389 20.7148 6.97152 20.6366 6.70183 20.6215C6.43214 20.6063 6.16266 20.6546 5.91503 20.7625L4.15753 21.5325C3.97959 21.6107 3.78177 21.6316 3.59142 21.5924C3.40107 21.5532 3.22761 21.4558 3.09503 21.3137C1.83011 19.9607 0.888577 18.3383 0.341275 16.5687C0.283646 16.3827 0.285421 16.1832 0.346354 15.9982C0.407287 15.8132 0.52435 15.6517 0.681275 15.5363L2.23503 14.3912C2.45358 14.231 2.63132 14.0216 2.75384 13.7799C2.87635 13.5382 2.9402 13.271 2.9402 13C2.9402 12.729 2.87635 12.4618 2.75384 12.2201C2.63132 11.9784 2.45358 11.769 2.23503 11.6088L0.681275 10.4662C0.52435 10.3508 0.407287 10.1893 0.346354 10.0043C0.285421 9.81927 0.283646 9.61984 0.341275 9.43375C0.889797 7.66567 1.83218 6.04501 3.09753 4.69375C3.23026 4.55187 3.40379 4.45473 3.59413 4.41577C3.78447 4.3768 3.98222 4.39794 4.16003 4.47625L5.91003 5.245C6.1588 5.35284 6.4294 5.40083 6.70008 5.38511C6.97077 5.36939 7.234 5.2904 7.46862 5.15449C7.70324 5.01858 7.90271 4.82954 8.05101 4.60255C8.19931 4.37556 8.29231 4.11695 8.32253 3.8475L8.53502 1.94C8.55647 1.74544 8.63828 1.56248 8.76897 1.41677C8.89967 1.27106 9.07269 1.16991 9.26377 1.1275C10.1675 0.927766 11.0895 0.822202 12.015 0.8125ZM12.015 2.6875C11.448 2.69416 10.8823 2.74305 10.3225 2.83375L10.185 4.055C10.1225 4.61663 9.92889 5.15571 9.61983 5.62881C9.31077 6.1019 8.89489 6.49577 8.4057 6.77868C7.91651 7.06158 7.36771 7.22561 6.80351 7.25754C6.23931 7.28947 5.67551 7.18841 5.15753 6.9625L4.03378 6.47C3.31932 7.33736 2.75065 8.31512 2.35003 9.365L3.34628 10.0988C3.80162 10.4332 4.17187 10.8702 4.4271 11.3742C4.68234 11.8783 4.8154 12.4353 4.81552 13.0003C4.81564 13.5653 4.68282 14.1224 4.4278 14.6266C4.17279 15.1307 3.80272 15.5678 3.34753 15.9025L2.34877 16.6375C2.74878 17.69 3.31878 18.67 4.03378 19.54L5.16503 19.0437C5.68189 18.8181 6.24452 18.7169 6.80762 18.7484C7.37072 18.7799 7.91856 18.9431 8.40705 19.225C8.89553 19.5069 9.31101 19.8995 9.62004 20.3713C9.92907 20.8431 10.123 21.3808 10.1863 21.9412L10.3225 23.1712C11.435 23.3587 12.5713 23.3587 13.6825 23.1712L13.82 21.9412C13.8823 21.3801 14.0755 20.8415 14.3843 20.3688C14.693 19.8961 15.1086 19.5026 15.5974 19.2201C16.0863 18.9377 16.6346 18.774 17.1983 18.7425C17.7621 18.711 18.3253 18.8125 18.8425 19.0387L19.9725 19.5337C20.6875 18.6656 21.2566 17.687 21.6575 16.6363L20.66 15.9012C20.2045 15.5669 19.834 15.13 19.5786 14.626C19.3232 14.1219 19.19 13.5648 19.1899 12.9997C19.1898 12.4346 19.3227 11.8774 19.5779 11.3732C19.8331 10.8691 20.2033 10.432 20.6588 10.0975L21.655 9.36375C21.2541 8.31334 20.685 7.33515 19.97 6.4675L18.8488 6.95875C18.331 7.18544 17.7671 7.28718 17.2027 7.25577C16.6383 7.22436 16.0892 7.06067 15.5998 6.77792C15.1103 6.49517 14.6942 6.10128 14.3851 5.62807C14.0759 5.15485 13.8823 4.61556 13.82 4.05375L13.6838 2.83375C13.1324 2.74361 12.5737 2.69473 12.015 2.6875ZM12 8.3125C13.2432 8.3125 14.4355 8.80636 15.3146 9.68544C16.1937 10.5645 16.6875 11.7568 16.6875 13C16.6875 14.2432 16.1937 15.4355 15.3146 16.3146C14.4355 17.1936 13.2432 17.6875 12 17.6875C10.7568 17.6875 9.56454 17.1936 8.68546 16.3146C7.80639 15.4355 7.31253 14.2432 7.31253 13C7.31253 11.7568 7.80639 10.5645 8.68546 9.68544C9.56454 8.80636 10.7568 8.3125 12 8.3125ZM12 10.1875C11.2541 10.1875 10.5387 10.4838 10.0113 11.0113C9.48384 11.5387 9.18752 12.2541 9.18752 13C9.18752 13.7459 9.48384 14.4613 10.0113 14.9887C10.5387 15.5162 11.2541 15.8125 12 15.8125C12.7459 15.8125 13.4613 15.5162 13.9888 14.9887C14.5162 14.4613 14.8125 13.7459 14.8125 13C14.8125 12.2541 14.5162 11.5387 13.9888 11.0113C13.4613 10.4838 12.7459 10.1875 12 10.1875Z" fill="black"/>
</svg>
