<svg width="24" height="22" viewBox="0 0 24 22" fill="none" xmlns="http://www.w3.org/2000/svg">
<path d="M21 11H9.125M18.5 14.75L22.25 11L18.5 7.25M12.25 4.75V3.5C12.25 2.83696 11.9866 2.20107 11.5178 1.73223C11.0489 1.26339 10.413 1 9.75 1H3.5C2.83696 1 2.20107 1.26339 1.73223 1.73223C1.26339 2.20107 1 2.83696 1 3.5V18.5C1 19.163 1.26339 19.7989 1.73223 20.2678C2.20107 20.7366 2.83696 21 3.5 21H9.75C10.413 21 11.0489 20.7366 11.5178 20.2678C11.9866 19.7989 12.25 19.163 12.25 18.5V17.25" stroke="#E30909" stroke-width="2" stroke-linecap="round" stroke-linejoin="round"/>
</svg>
