<svg width="20" height="22" viewBox="0 0 20 22" fill="none" xmlns="http://www.w3.org/2000/svg">
<path d="M1.25 17.6673V4.33353C1.25 3.23353 1.25 2.68353 1.48125 2.35853C1.58116 2.21813 1.70902 2.0999 1.8568 2.01128C2.00458 1.92265 2.16909 1.86554 2.34 1.84353C2.73625 1.79353 3.22125 2.05103 4.19 2.56853L16.69 9.23478L16.695 9.23728C17.7663 9.80853 18.3025 10.0948 18.4788 10.4748C18.6313 10.8073 18.6313 11.191 18.4788 11.5235C18.3025 11.9048 17.765 12.1923 16.6913 12.7648L4.19125 19.431C3.22 19.9485 2.73625 20.206 2.34125 20.156C2.17012 20.1342 2.00537 20.0771 1.85737 19.9885C1.70936 19.8999 1.5813 19.7816 1.48125 19.641C1.25 19.316 1.25 18.7673 1.25 17.6673Z" stroke="black" stroke-width="2" stroke-linecap="round" stroke-linejoin="round"/>
</svg>
